{
.appVersion = "1246";
copyright = "Copyright 2019 The Inter project authors";
customParameters = (
{
name = vendorID;
value = RSMS;
},
{
name = panose;
value = (
2,
11,
5,
2,
3,
0,
0,
0,
0,
4
);
},
{
name = unicodeRanges;
value = (
0,
1,
2,
3,
4,
5,
6,
7,
9,
29,
30,
31,
32,
33,
34,
35,
36,
37,
38,
39,
40,
45,
47,
57,
60,
64
);
},
{
name = codePageRanges;
value = (
1252,
1250,
1251,
1253,
1254,
1257,
1258
);
},
{
name = fsType;
value = (
);
},
{
name = glyphOrder;
value = (
.notdef,
.null,
uni0041,
uni00C4,
uni00C3,
uni00C0,
uni00C1,
uni00C2,
uni00C5,
uni0100,
uni0102,
uni0104,
uni01CD,
uni01DE,
uni01E0,
uni01FA,
uni0200,
uni0202,
uni0226,
uni1E00,
uni1EA0,
uni1EA2,
uni1EA4,
uni1EA6,
uni1EA8,
uni1EAA,
uni1EAC,
uni1EAE,
uni1EB0,
uni1EB2,
uni1EB4,
uni1EB6,
uni0391,
uni0386,
uni1F08,
uni1F09,
uni1F0A,
uni1F0B,
uni1F0C,
uni1F0D,
uni1F0E,
uni1F0F,
uni1FB8,
uni1FB9,
uni1FBA,
uni023A,
uni1FBB,
uni0410,
uni04D0,
uni04D2,
uni1F88,
uni1F89,
uni1F8A,
uni1F8B,
uni1F8C,
uni1F8D,
uni1F8E,
uni1F8F,
uni1FBC,
uni039B,
uni00C6,
uni01E2,
uni01FC,
uni04D4,
uni0042,
uni1E02,
uni1E04,
uni1E06,
uni0243,
uni0181,
uni0412,
uni0392,
uni0043,
uni0187,
uni00C7,
uni0106,
uni0108,
uni010A,
uni010C,
uni1E08,
uni023B,
uni0186,
uni03F9,
uni0044,
uni018A,
uni010E,
uni1E0A,
uni1E0C,
uni1E0E,
uni1E10,
uni1E12,
uni0189,
uni01F2,
uni01C5,
uni0045,
uni00C8,
uni00C9,
uni00CA,
uni00CB,
uni0112,
uni0114,
uni0116,
uni0118,
uni011A,
uni0204,
uni0206,
uni0228,
uni1E14,
uni1E16,
uni1E18,
uni1E1A,
uni1E1C,
uni1EB8,
uni1EBA,
uni1EBC,
uni1EBE,
uni1EC0,
uni1EC2,
uni1EC4,
uni1EC6,
uni0246,
uni018E,
uni0395,
uni0388,
uni1F18,
uni1F19,
uni1F1A,
uni1F1B,
uni1F1C,
uni1F1D,
uni1FC8,
uni1FC9,
uni0415,
uni0400,
uni0401,
uni04D6,
uni0046,
uni0191,
uni1E1E,
uni2132,
uni0047,
uni01E4,
uni0193,
uni011C,
uni011E,
uni0120,
uni0122,
uni01E6,
uni01F4,
uni1E20,
uniE002,
uniE003,
uniE004,
uniE005,
uniE006,
uniE007,
uniE008,
uniE009,
uniE00A,
uniE00B,
uni0048,
uni1E28,
uni0124,
uni021E,
uni1E22,
uni1E24,
uni1E26,
uni1E2A,
uni0126,

glyphs = (
{
glyphname = .notdef;
layers = (
{
layerId = "25D77734-040B-4C95-BAE5-6EFF5F3D7B2E";
paths = (
{
closed = 1;
nodes = (
"2552 -640 LINE",
"2552 -128 LINE",
"248 -128 LINE",
"248 -640 LINE"
);
},
{
closed = 1;
nodes = (
"2552 64 LINE",
"2552 576 LINE",
"248 576 LINE",
"248 64 LINE"
);
},
{
closed = 1;
nodes = (
"2552 768 LINE",
"2552 1280 LINE",
"248 1280 LINE",
"248 768 LINE"
);
},
{
closed = 1;
nodes = (
"2552 1472 LINE",
"2552 1984 LINE",
"248 1984 LINE",
"248 1472 LINE"
);
},
{
closed = 1;
nodes = (
"2552 2176 LINE",
"2552 2688 LINE",
"248 2688 LINE",
"248 2176 LINE"
);
}
);
width = 2800;
}
);
note = .notdef;
},
{
glyphname = uni0041;
layers = (
{
layerId = "25D77734-040B-4C95-BAE5-6EFF5F3D7B2E";
paths = (
{
closed = 1;
nodes = (
"538 580 LINE",
"1366 580 LINE",
"1572 0 LINE",
"1832 0 LINE",
"1080 2048 LINE",
"824 2048 LINE",
"72 0 LINE",
"332 0 LINE"
);
},
{
closed = 1;
nodes = (
"944 1724 LINE",
"960 1724 LINE",
"1288 800 LINE",
"616 800 LINE"
);
}
);
width = 1904;
}
);
leftKerningGroup = uni0041;
note = uni0041;
rightKerningGroup = uni0041;
unicode = 0041;
},
{
glyphname = uni023A;
layers = (
{
layerId = "25D77734-040B-4C95-BAE5-6EFF5F3D7B2E";
paths = (
{
closed = 1;
nodes = (
"1344 2308 LINE",
"1167 1810 LINE",
"1080 2048 LINE",
"824 2048 LINE",
"72 0 LINE",
"332 0 LINE",
"538 580 LINE",
"730 580 LINE",
"432 -260 LINE",
"660 -260 LINE",
"958 580 LINE",
"1366 580 LINE",
"1572 0 LINE",
"1832 0 LINE",
"1283 1495 LINE",
"1572 2308 LINE"
);
},
{
closed = 1;
nodes = (
"616 800 LINE",
"944 1724 LINE",
"960 1724 LINE",
"1048 1475 LINE",
"808 800 LINE"
);
},
{
closed = 1;
nodes = (
"1288 800 LINE",
"1036 800 LINE",
"1162 1154 LINE"
);
}
);
width = 1904;
}
);
leftKerningGroup = uni0041;
note = uni023A;
rightKerningGroup = uni0041;
unicode = 023A;
},
{
glyphname = uni039B;
layers = (
{
layerId = "25D77734-040B-4C95-BAE5-6EFF5F3D7B2E";
paths = (
{
closed = 1;
nodes = (
"944 1724 LINE",
"960 1724 LINE",
"1572 0 LINE",
"1832 0 LINE",
"1080 2048 LINE",
"824 2048 LINE",
"72 0 LINE",
"332 0 LINE"
);
}
);
width = 1904;
}
);
leftKerningGroup = uni0041;
note = uni039B;
rightKerningGroup = uni0041;
unicode = 039B;
},
{
glyphname = uni00C6;
layers = (
{
layerId = "25D77734-040B-4C95-BAE5-6EFF5F3D7B2E";
paths = (
{
closed = 1;
nodes = (
"344 0 LINE",
"617 580 LINE",
"1352 580 LINE",
"1352 0 LINE",
"2604 0 LINE",
"2604 220 LINE",
"1600 220 LINE",
"1600 916 LINE",
"2524 916 LINE",
"2524 1136 LINE",
"1600 1136 LINE",
"1600 1828 LINE",
"2588 1828 LINE",
"2588 2048 LINE",
"1064 2048 LINE",
"72 0 LINE"
);
},
{
closed = 1;
nodes = (
"1204 1828 LINE",
"1352 1828 LINE",
"1352 800 LINE",
"720 800 LINE"
);
}
);
width = 2788;
}
);
leftKerningGroup = uni0041;
note = uni00C6;
rightKerningGroup = uni00C6;
unicode = 00C6;
},
{
glyphname = uni0042;
layers = (
{
layerId = "25D77734-040B-4C95-BAE5-6EFF5F3D7B2E";
paths = (
{
closed = 1;
nodes = (
"988 0 LINE SMOOTH",
"1230 0 OFFCURVE",
"1532 144 OFFCURVE",
"1672 390 OFFCURVE",
"1672 544 QCURVE SMOOTH",
"1672 706 OFFCURVE",
"1544 930 OFFCURVE",
"1354 1050 OFFCURVE",
"1260 1056 QCURVE",
"1260 1076 LINE",
"1348 1100 OFFCURVE",
"1499 1200 OFFCURVE",
"1592 1372 OFFCURVE",
"1592 1504 QCURVE SMOOTH",
"1592 1654 OFFCURVE",
"1456 1901 OFFCURVE",
"1178 2048 OFFCURVE",
"964 2048 QCURVE SMOOTH",
"248 2048 LINE",
"248 0 LINE"
);
},
{
closed = 1;
nodes = (
"496 932 LINE",
"1000 932 LINE SMOOTH",
"1134 932 OFFCURVE",
"1330 825 OFFCURVE",
"1436 648 OFFCURVE",
"1436 544 QCURVE SMOOTH",
"1436 409 OFFCURVE",
"1231 220 OFFCURVE",
"988 220 QCURVE SMOOTH",
"496 220 LINE"
);
},
{
closed = 1;
nodes = (
"496 1828 LINE",
"964 1828 LINE SMOOTH",
"1168 1828 OFFCURVE",
"1356 1639 OFFCURVE",
"1356 1504 QCURVE SMOOTH",
"1356 1342 OFFCURVE",
"1124 1148 OFFCURVE",
"956 1148 QCURVE SMOOTH",
"496 1148 LINE"
);
}
);
width = 1832;
}
);
leftKerningGroup = uni0042;
note = uni0042;
rightKerningGroup = uni0042;
unicode = 0042;
},
{
glyphname = uni0181;
layers = (
{
layerId = "25D77734-040B-4C95-BAE5-6EFF5F3D7B2E";
paths = (
{
closed = 1;
nodes = (
"1416 0 LINE SMOOTH",
"1658 0 OFFCURVE",
"1960 144 OFFCURVE",
"2100 390 OFFCURVE",
"2100 544 QCURVE SMOOTH",
"2100 706 OFFCURVE",
"1972 930 OFFCURVE",
"1782 1050 OFFCURVE",
"1688 1056 QCURVE",
"1688 1076 LINE",
"1776 1100 OFFCURVE",
"1927 1200 OFFCURVE",
"2020 1372 OFFCURVE",
"2020 1504 QCURVE SMOOTH",
"2020 1654 OFFCURVE",
"1884 1901 OFFCURVE",
"1606 2048 OFFCURVE",
"1392 2048 QCURVE SMOOTH",
"544 2048 LINE SMOOTH",
"346 2048 OFFCURVE",
"136 1808 OFFCURVE",
"136 1640 QCURVE SMOOTH",
"136 1504 LINE",
"368 1504 LINE",
"368 1580 LINE SMOOTH",
"368 1644 OFFCURVE",
"391 1757 OFFCURVE",
"468 1828 OFFCURVE",
"548 1828 QCURVE SMOOTH",
"676 1828 LINE",
"676 0 LINE"
);
},
{
closed = 1;
nodes = (
"924 932 LINE",
"1428 932 LINE SMOOTH",
"1562 932 OFFCURVE",
"1758 825 OFFCURVE",
"1864 648 OFFCURVE",
"1864 544 QCURVE SMOOTH",
"1864 409 OFFCURVE",
"1659 220 OFFCURVE",
"1416 220 QCURVE SMOOTH",
"924 220 LINE"
);
},
{
closed = 1;
nodes = (
"924 1828 LINE",
"1392 1828 LINE SMOOTH",
"1596 1828 OFFCURVE",
"1784 1639 OFFCURVE",
"1784 1504 QCURVE SMOOTH",
"1784 1342 OFFCURVE",
"1552 1148 OFFCURVE",
"1384 1148 QCURVE SMOOTH",
"924 1148 LINE"
);
}
);
width = 2260;
}
);
leftKerningGroup = uni0042;
note = uni0181;
rightKerningGroup = uni0042;
unicode = 0181;
},
{
glyphname = uni0043;
layers = (
{
layerId = "25D77734-040B-4C95-BAE5-6EFF5F3D7B2E";
paths = (
{
closed = 1;
nodes = (
"1858 1618 OFFCURVE",
"1624 1917 OFFCURVE",
"1278 2076 OFFCURVE",
"1072 2076 QCURVE SMOOTH",
"810 2076 OFFCURVE",
"402 1820 OFFCURVE",
"168 1348 OFFCURVE",
"168 1024 QCURVE SMOOTH",
"168 700 OFFCURVE",
"402 228 OFFCURVE",
"810 -28 OFFCURVE",
"1072 -28 QCURVE SMOOTH",
"1278 -28 OFFCURVE",
"1624 131 OFFCURVE",
"1858 430 OFFCURVE",
"1896 640 QCURVE",
"1648 640 LINE",
"1618 498 OFFCURVE",
"1448 304 OFFCURVE",
"1208 204 OFFCURVE",
"1072 204 QCURVE SMOOTH",
"886 204 OFFCURVE",
"585 392 OFFCURVE",
"408 758 OFFCURVE",
"408 1024 QCURVE SMOOTH",
"408 1290 OFFCURVE",
"585 1656 OFFCURVE",
"886 1844 OFFCURVE",
"1072 1844 QCURVE SMOOTH",
"1208 1844 OFFCURVE",
"1448 1744 OFFCURVE",
"1618 1550 OFFCURVE",
"1648 1408 QCURVE",
"1896 1408 LINE"
);
}
);
width = 2048;
}
);
leftKerningGroup = uni0043;
note = uni0043;
rightKerningGroup = uni0043;
unicode = 0043;
},
{
glyphname = uni0187;
layers = (
{
layerId = "25D77734-040B-4C95-BAE5-6EFF5F3D7B2E";
paths = (
{
closed = 1;
nodes = (
"1896 1664 LINE SMOOTH",
"1896 1784 OFFCURVE",
"2024 1872 OFFCURVE",
"2120 1872 QCURVE SMOOTH",
"2141 1872 OFFCURVE",
"2181 1867 OFFCURVE",
"2196 1864 QCURVE",
"2196 2064 LINE",
"2169 2073 OFFCURVE",
"2096 2076 OFFCURVE",
"2060 2076 QCURVE SMOOTH",
"1931 2076 OFFCURVE",
"1730 1949 OFFCURVE",
"1687 1829 QCURVE",
"1451 2076 OFFCURVE",
"1072 2076 QCURVE SMOOTH",
"810 2076 OFFCURVE",
"402 1820 OFFCURVE",
"168 1348 OFFCURVE",
"168 1024 QCURVE SMOOTH",
"168 700 OFFCURVE",
"402 228 OFFCURVE",
"810 -28 OFFCURVE",
"1072 -28 QCURVE SMOOTH",
"1278 -28 OFFCURVE",
"1624 131 OFFCURVE",
"1858 430 OFFCURVE",
"1896 640 QCURVE",
"1648 640 LINE",
"1618 498 OFFCURVE",
"1448 304 OFFCURVE",
"1208 204 OFFCURVE",
"1072 204 QCURVE SMOOTH",
"886 204 OFFCURVE",
"585 392 OFFCURVE",
"408 758 OFFCURVE",
"408 1024 QCURVE SMOOTH",
"408 1290 OFFCURVE",
"585 1656 OFFCURVE",
"886 1844 OFFCURVE",
"1072 1844 QCURVE SMOOTH",
"1208 1844 OFFCURVE",
"1448 1744 OFFCURVE",
"1618 1550 OFFCURVE",
"1648 1408 QCURVE",
"1896 1408 LINE"
);
}
);
width = 2172;
}
);
leftKerningGroup = uni0043;
note = uni0187;
rightKerningGroup = uni0043;
unicode = 0187;
},
{
glyphname = uni023B;
layers = (
{
layerId = "25D77734-040B-4C95-BAE5-6EFF5F3D7B2E";
paths = (
{
closed = 1;
nodes = (
"692 -260 LINE",
"790 15 LINE",
"923 -28 OFFCURVE",
"1072 -28 QCURVE SMOOTH",
"1278 -28 OFFCURVE",
"1624 131 OFFCURVE",
"1858 430 OFFCURVE",
"1896 640 QCURVE",
"1648 640 LINE",
"1618 498 OFFCURVE",
"1448 304 OFFCURVE",
"1208 204 OFFCURVE",
"1072 204 QCURVE SMOOTH",
"965 204 OFFCURVE",
"868 236 QCURVE",
"1407 1754 LINE",
"1496 1699 OFFCURVE",
"1623 1525 OFFCURVE",
"1648 1408 QCURVE",
"1896 1408 LINE",
"1860 1607 OFFCURVE",
"1644 1897 OFFCURVE",
"1487 1979 QCURVE",
"1604 2308 LINE",
"1376 2308 LINE",
"1285 2053 LINE",
"1182 2076 OFFCURVE",
"1072 2076 QCURVE SMOOTH",
"810 2076 OFFCURVE",
"402 1820 OFFCURVE",
"168 1348 OFFCURVE",
"168 1024 QCURVE SMOOTH",
"168 704 OFFCURVE",
"398 234 OFFCURVE",
"594 107 QCURVE",
"464 -260 LINE"
);
},
{
closed = 1;
nodes = (
"554 440 OFFCURVE",
"408 785 OFFCURVE",
"408 1024 QCURVE SMOOTH",
"408 1290 OFFCURVE",
"585 1656 OFFCURVE",
"886 1844 OFFCURVE",
"1072 1844 QCURVE SMOOTH",
"1141 1844 OFFCURVE",
"1207 1831 QCURVE",
"677 340 LINE"
);
}
);
width = 2048;
}
);
leftKerningGroup = uni0043;
note = uni023B;
rightKerningGroup = uni0043;
unicode = 023B;
},
{
glyphname = uni0186;
layers = (
{
layerId = "25D77734-040B-4C95-BAE5-6EFF5F3D7B2E";
paths = (
{
closed = 1;
nodes = (
"1238 -28 OFFCURVE",
"1646 228 OFFCURVE",
"1880 700 OFFCURVE",
"1880 1024 QCURVE SMOOTH",
"1880 1348 OFFCURVE",
"1646 1820 OFFCURVE",
"1238 2076 OFFCURVE",
"976 2076 QCURVE SMOOTH",
"770 2076 OFFCURVE",
"424 1917 OFFCURVE",
"190 1618 OFFCURVE",
"152 1408 QCURVE",
"400 1408 LINE",
"430 1550 OFFCURVE",
"600 1744 OFFCURVE",
"840 1844 OFFCURVE",
"976 1844 QCURVE SMOOTH",
"1162 1844 OFFCURVE",
"1463 1656 OFFCURVE",
"1640 1290 OFFCURVE",
"1640 1024 QCURVE SMOOTH",
"1640 758 OFFCURVE",
"1463 392 OFFCURVE",
"1162 204 OFFCURVE",
"976 204 QCURVE SMOOTH",
"840 204 OFFCURVE",
"600 304 OFFCURVE",
"430 498 OFFCURVE",
"400 640 QCURVE",
"152 640 LINE",
"190 430 OFFCURVE",
"424 131 OFFCURVE",
"770 -28 OFFCURVE",
"976 -28 QCURVE SMOOTH"
);
}
);
width = 2048;
}
);
leftKerningGroup = uni0043;
note = uni0186;
rightKerningGroup = uni0043;
unicode = 0186;
},
{
glyphname = uni0044;
layers = (
{
layerId = "25D77734-040B-4C95-BAE5-6EFF5F3D7B2E";
paths = (
{
closed = 1;
nodes = (
"1192 0 OFFCURVE",
"1628 247 OFFCURVE",
"1856 708 OFFCURVE",
"1856 1028 QCURVE SMOOTH",
"1856 1346 OFFCURVE",
"1630 1803 OFFCURVE",
"1206 2048 OFFCURVE",
"908 2048 QCURVE SMOOTH",
"248 2048 LINE",
"248 0 LINE",
"880 0 LINE SMOOTH"
);
},
{
closed = 1;
nodes = (
"496 1828 LINE",
"892 1828 LINE SMOOTH",
"1252 1828 OFFCURVE",
"1616 1400 OFFCURVE",
"1616 1028 QCURVE SMOOTH",
"1616 653 OFFCURVE",
"1245 220 OFFCURVE",
"864 220 QCURVE SMOOTH",
"496 220 LINE"
);
}
);
width = 2024;
}
);
leftKerningGroup = uni0042;
note = uni0044;
rightKerningGroup = uni0044;
unicode = 0044;
},
{
glyphname = uni018A;
layers = (
{
layerId = "25D77734-040B-4C95-BAE5-6EFF5F3D7B2E";
paths = (
{
closed = 1;
nodes = (
"368 1504 LINE",
"368 1580 LINE SMOOTH",
"368 1644 OFFCURVE",
"391 1757 OFFCURVE",
"468 1828 OFFCURVE",
"548 1828 QCURVE SMOOTH",
"692 1828 LINE",
"692 0 LINE",
"1324 0 LINE SMOOTH",
"1636 0 OFFCURVE",
"2072 247 OFFCURVE",
"2300 708 OFFCURVE",
"2300 1028 QCURVE SMOOTH",
"2300 1346 OFFCURVE",
"2074 1803 OFFCURVE",
"1650 2048 OFFCURVE",
"1352 2048 QCURVE SMOOTH",
"544 2048 LINE SMOOTH",
"346 2048 OFFCURVE",
"136 1808 OFFCURVE",
"136 1640 QCURVE SMOOTH",
"136 1504 LINE"
);
},
{
closed = 1;
nodes = (
"940 1828 LINE",
"1336 1828 LINE SMOOTH",
"1696 1828 OFFCURVE",
"2060 1400 OFFCURVE",
"2060 1028 QCURVE SMOOTH",
"2060 653 OFFCURVE",
"1689 220 OFFCURVE",
"1308 220 QCURVE SMOOTH",
"940 220 LINE"
);
}
);
width = 2468;
}
);
leftKerningGroup = uni0042;
note = uni018A;
rightKerningGroup = uni0044;
unicode = 018A;
},
{
glyphname = uni0045;
layers = (
{
layerId = "25D77734-040B-4C95-BAE5-6EFF5F3D7B2E";
paths = (
{
closed = 1;
nodes = (
"1500 0 LINE",
"1500 220 LINE",
"496 220 LINE",
"496 916 LINE",
"1420 916 LINE",
"1420 1136 LINE",
"496 1136 LINE",
"496 1828 LINE",
"1484 1828 LINE",
"1484 2048 LINE",
"248 2048 LINE",
"248 0 LINE"
);
}
);
width = 1684;
}
);
leftKerningGroup = uni0042;
note = uni0045;
rightKerningGroup = uni00C6;
unicode = 0045;
},
{
glyphname = uni0246;
layers = (
{
layerId = "25D77734-040B-4C95-BAE5-6EFF5F3D7B2E";
paths = (
{
closed = 1;
nodes = (
"1184 2308 LINE",
"1109 2048 LINE",
"248 2048 LINE",
"248 0 LINE",
"519 0 LINE",
"444 -260 LINE",
"672 -260 LINE",
"747 0 LINE",
"1500 0 LINE",
"1500 220 LINE",
"810 220 LINE",
"1011 916 LINE",
"1420 916 LINE",
"1420 1136 LINE",
"1074 1136 LINE",
"1274 1828 LINE",
"1484 1828 LINE",
"1484 2048 LINE",
"1337 2048 LINE",
"1412 2308 LINE"
);
},
{
closed = 1;
nodes = (
"846 1136 LINE",
"496 1136 LINE",
"496 1828 LINE",
"1046 1828 LINE"
);
},
{
closed = 1;
nodes = (
"582 220 LINE",
"496 220 LINE",
"496 916 LINE",
"783 916 LINE"
);
}
);
width = 1684;
}
);
leftKerningGroup = uni0042;
note = uni0246;
rightKerningGroup = uni00C6;
unicode = 0246;
},
{
glyphname = uni0046;
layers = (
{
layerId = "25D77734-040B-4C95-BAE5-6EFF5F3D7B2E";
paths = (
{
closed = 1;
nodes = (
"496 0 LINE",
"496 916 LINE",
"1384 916 LINE",
"1384 1136 LINE",
"496 1136 LINE",
"496 1828 LINE",
"1476 1828 LINE",
"1476 2048 LINE",
"248 2048 LINE",
"248 0 LINE"
);
}
);
width = 1652;
}
);
leftKerningGroup = uni0042;
note = uni0046;
rightKerningGroup = uni0046;
unicode = 0046;
},
{
glyphname = uni0191;
layers = (
{
layerId = "25D77734-040B-4C95-BAE5-6EFF5F3D7B2E";
paths = (
{
closed = 1;
nodes = (
"248 -280 OFFCURVE",
"124 -368 OFFCURVE",
"28 -368 QCURVE SMOOTH",
"7 -368 OFFCURVE",
"-33 -363 OFFCURVE",
"-48 -360 QCURVE",
"-48 -564 LINE",
"-3 -573 OFFCURVE",
"16 -576 OFFCURVE",
"28 -576 QCURVE SMOOTH",
"259 -576 OFFCURVE",
"496 -362 OFFCURVE",
"496 -164 QCURVE SMOOTH",
"496 916 LINE",
"1384 916 LINE",
"1384 1136 LINE",
"496 1136 LINE",
"496 1828 LINE",
"1476 1828 LINE",
"1476 2048 LINE",
"248 2048 LINE",
"248 -160 LINE SMOOTH"
);
}
);
width = 1652;
}
);
leftKerningGroup = uni0191;
note = uni0191;
rightKerningGroup = uni0046;
unicode = 0191;
},
{
glyphname = uni0047;
layers = (
{
layerId = "25D77734-040B-4C95-BAE5-6EFF5F3D7B2E";
paths = (
{
closed = 1;
nodes = (
"1904 1408 LINE",
"1866 1606 OFFCURVE",
"1632 1907 OFFCURVE",
"1280 2076 OFFCURVE",
"1064 2076 QCURVE SMOOTH",
"802 2076 OFFCURVE",
"397 1820 OFFCURVE",
"168 1348 OFFCURVE",
"168 1024 QCURVE SMOOTH",
"168 700 OFFCURVE",
"397 228 OFFCURVE",
"808 -28 OFFCURVE",
"1080 -28 QCURVE SMOOTH",
"1324 -28 OFFCURVE",
"1701 177 OFFCURVE",
"1916 551 OFFCURVE",
"1916 804 QCURVE SMOOTH",
"1916 1024 LINE",
"1136 1024 LINE",
"1136 804 LINE",
"1676 804 LINE",
"1672 620 OFFCURVE",
"1520 351 OFFCURVE",
"1253 204 OFFCURVE",
"1080 204 QCURVE SMOOTH",
"890 204 OFFCURVE",
"586 392 OFFCURVE",
"408 758 OFFCURVE",
"408 1024 QCURVE SMOOTH",
"408 1290 OFFCURVE",
"584 1656 OFFCURVE",
"882 1844 OFFCURVE",
"1064 1844 QCURVE SMOOTH",
"1286 1844 OFFCURVE",
"1583 1610 OFFCURVE",
"1648 1408 QCURVE"
);
}
);
width = 2092;
}
);
leftKerningGroup = uni0043;
note = uni0047;
rightKerningGroup = uni0047;
unicode = 0047;
},
{
glyphname = uni01E4;
layers = (
{
layerId = "25D77734-040B-4C95-BAE5-6EFF5F3D7B2E";
paths = (
{
closed = 1;
nodes = (
"1900 624 LINE",
"1916 711 OFFCURVE",
"1916 804 QCURVE SMOOTH",
"1916 1024 LINE",
"1136 1024 LINE",
"1136 804 LINE",
"1676 804 LINE",
"1674 709 OFFCURVE",
"1651 624 QCURVE",
"1136 624 LINE",
"1136 424 LINE",
"1556 424 LINE",
"1477 319 OFFCURVE",
"1233 204 OFFCURVE",
"1080 204 QCURVE SMOOTH",
"890 204 OFFCURVE",
"586 392 OFFCURVE",
"408 758 OFFCURVE",
"408 1024 QCURVE SMOOTH",
"408 1290 OFFCURVE",
"584 1656 OFFCURVE",
"882 1844 OFFCURVE",
"1064 1844 QCURVE SMOOTH",
"1286 1844 OFFCURVE",
"1583 1610 OFFCURVE",
"1648 1408 QCURVE",
"1904 1408 LINE",
"1866 1606 OFFCURVE",
"1632 1907 OFFCURVE",
"1280 2076 OFFCURVE",
"1064 2076 QCURVE SMOOTH",
"802 2076 OFFCURVE",
"397 1820 OFFCURVE",
"168 1348 OFFCURVE",
"168 1024 QCURVE SMOOTH",
"168 700 OFFCURVE",
"397 228 OFFCURVE",
"808 -28 OFFCURVE",
"1080 -28 QCURVE SMOOTH",
"1343 -28 OFFCURVE",
"1742 211 OFFCURVE",
"1839 424 QCURVE",
"2056 424 LINE",
"2056 624 LINE"
);
}
);
width = 2092;
}
);
leftKerningGroup = uni0043;
note = uni01E4;
rightKerningGroup = uni0047;
unicode = 01E4;
},
{
glyphname = uni0193;
layers = (
{
layerId = "25D77734-040B-4C95-BAE5-6EFF5F3D7B2E";
paths = (
{
closed = 1;
nodes = (
"1904 1408 LINE",
"1902 1418 OFFCURVE",
"1900 1428 QCURVE",
"1900 1624 LINE SMOOTH",
"1900 1744 OFFCURVE",
"2028 1832 OFFCURVE",
"2124 1832 QCURVE SMOOTH",
"2145 1832 OFFCURVE",
"2185 1827 OFFCURVE",
"2200 1824 QCURVE",
"2200 2024 LINE",
"2173 2033 OFFCURVE",
"2100 2036 OFFCURVE",
"2064 2036 QCURVE SMOOTH",
"1789 2036 OFFCURVE",
"1700 1815 QCURVE",
"1584 1937 OFFCURVE",
"1258 2076 OFFCURVE",
"1064 2076 QCURVE SMOOTH",
"802 2076 OFFCURVE",
"397 1820 OFFCURVE",
"168 1348 OFFCURVE",
"168 1024 QCURVE SMOOTH",
"168 700 OFFCURVE",
"397 228 OFFCURVE",
"808 -28 OFFCURVE",
"1080 -28 QCURVE SMOOTH",
"1324 -28 OFFCURVE",
"1701 177 OFFCURVE",
"1916 551 OFFCURVE",
"1916 804 QCURVE SMOOTH",
"1916 1024 LINE",
"1136 1024 LINE",
"1136 804 LINE",
"1676 804 LINE",
"1672 620 OFFCURVE",
"1520 351 OFFCURVE",
"1253 204 OFFCURVE",
"1080 204 QCURVE SMOOTH",
"890 204 OFFCURVE",
"586 392 OFFCURVE",
"408 758 OFFCURVE",
"408 1024 QCURVE SMOOTH",
"408 1290 OFFCURVE",
"584 1656 OFFCURVE",
"882 1844 OFFCURVE",
"1064 1844 QCURVE SMOOTH",
"1286 1844 OFFCURVE",
"1583 1610 OFFCURVE",
"1648 1408 QCURVE"
);
}
);
width = 2176;
}
);
leftKerningGroup = uni0043;
note = uni0193;
rightKerningGroup = uni0047;
unicode = 0193;
},
{
glyphname = uniE002;
layers = (
{
layerId = "25D77734-040B-4C95-BAE5-6EFF5F3D7B2E";
paths = (
{
closed = 1;
nodes = (
"1283 -28 OFFCURVE",
"1571 116 OFFCURVE",
"1688 250 QCURVE",
"1698 250 LINE",
"1728 0 LINE",
"1936 0 LINE",
"1936 1024 LINE",
"1136 1024 LINE",
"1136 804 LINE",
"1696 804 LINE",
"1690 628 OFFCURVE",
"1531 358 OFFCURVE",
"1258 204 OFFCURVE",
"1080 204 QCURVE SMOOTH",
"890 204 OFFCURVE",
"586 392 OFFCURVE",
"408 758 OFFCURVE",
"408 1024 QCURVE SMOOTH",
"408 1290 OFFCURVE",
"588 1656 OFFCURVE",
"890 1844 OFFCURVE",
"1072 1844 QCURVE SMOOTH",
"1293 1844 OFFCURVE",
"1607 1611 OFFCURVE",
"1668 1408 QCURVE",
"1924 1408 LINE",
"1886 1606 OFFCURVE",
"1646 1907 OFFCURVE",
"1288 2076 OFFCURVE",
"1072 2076 QCURVE SMOOTH",
"810 2076 OFFCURVE",
"402 1820 OFFCURVE",
"168 1348 OFFCURVE",
"168 1024 QCURVE SMOOTH",
"168 700 OFFCURVE",
"397 228 OFFCURVE",
"808 -28 OFFCURVE",
"1080 -28 QCURVE SMOOTH"
);
}
);
width = 2112;
}
);
leftKerningGroup = uni0043;
note = uniE002;
rightKerningGroup = uniE002;
unicode = E002;
},
{
glyphname = uniE003;
layers = (
{
layerId = "25D77734-040B-4C95-BAE5-6EFF5F3D7B2E";
paths = (
{
closed = 1;
nodes = (
"1936 624 LINE",
"1936 1024 LINE",
"1136 1024 LINE",
"1136 804 LINE",
"1696 804 LINE",
"1692 709 OFFCURVE",
"1667 624 QCURVE",
"1136 624 LINE",
"1136 424 LINE",
"1563 424 LINE",
"1482 321 OFFCURVE",
"1234 204 OFFCURVE",
"1080 204 QCURVE SMOOTH",
"890 204 OFFCURVE",
"586 392 OFFCURVE",
"408 758 OFFCURVE",
"408 1024 QCURVE SMOOTH",
"408 1290 OFFCURVE",
"588 1656 OFFCURVE",
"890 1844 OFFCURVE",
"1072 1844 QCURVE SMOOTH",
"1293 1844 OFFCURVE",
"1607 1611 OFFCURVE",
"1668 1408 QCURVE",
"1924 1408 LINE",
"1886 1606 OFFCURVE",
"1646 1907 OFFCURVE",
"1288 2076 OFFCURVE",
"1072 2076 QCURVE SMOOTH",
"810 2076 OFFCURVE",
"402 1820 OFFCURVE",
"168 1348 OFFCURVE",
"168 1024 QCURVE SMOOTH",
"168 700 OFFCURVE",
"397 228 OFFCURVE",
"808 -28 OFFCURVE",
"1080 -28 QCURVE SMOOTH",
"1283 -28 OFFCURVE",
"1571 116 OFFCURVE",
"1688 250 QCURVE",
"1698 250 LINE",
"1728 0 LINE",
"1936 0 LINE",
"1936 424 LINE",
"2076 424 LINE",
"2076 624 LINE"
);
}
);
width = 2112;
}
);
note = uniE003;
unicode = E003;
},
{
glyphname = uniE004;
layers = (
{
layerId = "25D77734-040B-4C95-BAE5-6EFF5F3D7B2E";
paths = (
{
closed = 1;
nodes = (
"1924 1624 LINE SMOOTH",
"1924 1744 OFFCURVE",
"2052 1832 OFFCURVE",
"2148 1832 QCURVE SMOOTH",
"2169 1832 OFFCURVE",
"2209 1827 OFFCURVE",
"2224 1824 QCURVE",
"2224 2024 LINE",
"2197 2033 OFFCURVE",
"2124 2036 OFFCURVE",
"2088 2036 QCURVE SMOOTH",
"1809 2036 OFFCURVE",
"1721 1809 QCURVE",
"1603 1934 OFFCURVE",
"1269 2076 OFFCURVE",
"1072 2076 QCURVE SMOOTH",
"810 2076 OFFCURVE",
"402 1820 OFFCURVE",
"168 1348 OFFCURVE",
"168 1024 QCURVE SMOOTH",
"168 700 OFFCURVE",
"397 228 OFFCURVE",
"808 -28 OFFCURVE",
"1080 -28 QCURVE SMOOTH",
"1283 -28 OFFCURVE",
"1571 116 OFFCURVE",
"1688 250 QCURVE",
"1698 250 LINE",
"1728 0 LINE",
"1936 0 LINE",
"1936 1024 LINE",
"1136 1024 LINE",
"1136 804 LINE",
"1696 804 LINE",
"1690 628 OFFCURVE",
"1531 358 OFFCURVE",
"1258 204 OFFCURVE",
"1080 204 QCURVE SMOOTH",
"890 204 OFFCURVE",
"586 392 OFFCURVE",
"408 758 OFFCURVE",
"408 1024 QCURVE SMOOTH",
"408 1290 OFFCURVE",
"588 1656 OFFCURVE",
"890 1844 OFFCURVE",
"1072 1844 QCURVE SMOOTH",
"1293 1844 OFFCURVE",
"1607 1611 OFFCURVE",
"1668 1408 QCURVE",
"1924 1408 LINE"
);
}
);
width = 2176;
}
);
note = uniE004;
unicode = E004;
},
{
glyphname = uni0048;
layers = (
{
layerId = "25D77734-040B-4C95-BAE5-6EFF5F3D7B2E";
paths = (
{
closed = 1;
nodes = (
"496 0 LINE",
"496 916 LINE",
"1588 916 LINE",
"1588 0 LINE",
"1836 0 LINE",
"1836 2048 LINE",
"1588 2048 LINE",
"1588 1136 LINE",
"496 1136 LINE",
"496 2048 LINE",
"248 2048 LINE",
"248 0 LINE"
);
}
);
width = 2084;
}
);
leftKerningGroup = uni0042;
note = uni0048;
rightKerningGroup = uni018E;
unicode = 0048;
},
{
glyphname = uni0126;
layers = (
{
layerId = "25D77734-040B-4C95-BAE5-6EFF5F3D7B2E";
paths = (
{
closed = 1;
nodes = (
"1888 1616 LINE",
"1888 2048 LINE",
"1640 2048 LINE",
"1640 1616 LINE",
"548 1616 LINE",
"548 2048 LINE",
"300 2048 LINE",
"300 1616 LINE",
"136 1616 LINE",
"136 1408 LINE",
"300 1408 LINE",
"300 0 LINE",
"548 0 LINE",
"548 916 LINE",
"1640 916 LINE",
"1640 0 LINE",
"1888 0 LINE",
"1888 1408 LINE",
"2052 1408 LINE",
"2052 1616 LINE"
);
},
{
closed = 1;
nodes = (
"1640 1136 LINE",
"548 1136 LINE",
"548 1408 LINE",
"1640 1408 LINE"
);
}
);
width = 2188;
}
);
leftKerningGroup = uni0042;
note = uni0126;
rightKerningGroup = uni018E;
unicode = 0126;
},
{
glyphname = uni04C7;
layers = (
{
layerId = "25D77734-040B-4C95-BAE5-6EFF5F3D7B2E";
paths = (
{
closed = 1;
nodes = (
"496 0 LINE",
"496 916 LINE",
"1588 916 LINE",
"1588 -160 LINE SMOOTH",
"1588 -280 OFFCURVE",
"1464 -368 OFFCURVE",
"1368 -368 QCURVE SMOOTH",
"1347 -368 OFFCURVE",
"1307 -363 OFFCURVE",
"1292 -360 QCURVE",
"1292 -564 LINE",
"1319 -573 OFFCURVE",
"1392 -576 OFFCURVE",
"1428 -576 QCURVE SMOOTH",
"1596 -576 OFFCURVE",
"1836 -362 OFFCURVE",
"1836 -164 QCURVE SMOOTH",
"1836 2048 LINE",
"1588 2048 LINE",
"1588 1136 LINE",
"496 1136 LINE",
"496 2048 LINE",
"248 2048 LINE",
"248 0 LINE"
);
}
);
width = 2084;
}
);
leftKerningGroup = uni0042;
note = uni04C7;
rightKerningGroup = uni018E;
unicode = 04C7;
},
{
glyphname = uni04A4;
layers = (
{
layerId = "25D77734-040B-4C95-BAE5-6EFF5F3D7B2E";
paths = (
{
closed = 1;
nodes = (
"1588 2048 LINE",
"1588 1136 LINE",
"496 1136 LINE",
"496 2048 LINE",
"248 2048 LINE",
"248 0 LINE",
"496 0 LINE",
"496 916 LINE",
"1588 916 LINE",
"1588 0 LINE",
"1836 0 LINE",
"1836 1828 LINE",
"2640 1828 LINE",
"2640 2048 LINE"
);
}
);
width = 2776;
}
);
leftKerningGroup = uni0042;
note = uni04A4;
rightKerningGroup = uni04A4;
unicode = 04A4;
},
{
glyphname = uni01F6;
layers = (
{
layerId = "25D77734-040B-4C95-BAE5-6EFF5F3D7B2E";
paths = (
{
closed = 1;
nodes = (
"2454 -28 OFFCURVE",
"2752 122 OFFCURVE",
"2920 422 OFFCURVE",
"2920 648 QCURVE SMOOTH",
"2920 1536 LINE",
"2672 1536 LINE",
"2672 648 LINE SMOOTH",
"2672 417 OFFCURVE",
"2461 200 OFFCURVE",
"2260 200 QCURVE SMOOTH",
"2059 200 OFFCURVE",
"1836 417 OFFCURVE",
"1836 648 QCURVE SMOOTH",
"1836 2048 LINE",
"1588 2048 LINE",
"1588 1136 LINE",
"496 1136 LINE",
"496 2048 LINE",
"248 2048 LINE",
"248 0 LINE",
"496 0 LINE",
"496 916 LINE",
"1588 916 LINE",
"1588 648 LINE SMOOTH",
"1588 315 OFFCURVE",
"1960 -28 OFFCURVE",
"2260 -28 QCURVE SMOOTH"
);
}
);
width = 3136;
}
);
leftKerningGroup = uni0042;
note = uni01F6;
rightKerningGroup = uni01F6;
unicode = 01F6;
},
{
glyphname = uni0049;
layers = (
{
layerId = "25D77734-040B-4C95-BAE5-6EFF5F3D7B2E";
paths = (
{
closed = 1;
nodes = (
"248 2048 LINE",
"248 0 LINE",
"496 0 LINE",
"496 2048 LINE"
);
}
);
width = 744;
}
);
leftKerningGroup = uni0042;
note = uni0049;
rightKerningGroup = uni018E;
unicode = 0049;
},
{
glyphname = uniE00C;
layers = (
{
layerId = "25D77734-040B-4C95-BAE5-6EFF5F3D7B2E";
paths = (
{
closed = 1;
nodes = (
"500 1828 LINE",
"500 220 LINE",
"136 220 LINE",
"136 0 LINE",
"1112 0 LINE",
"1112 220 LINE",
"748 220 LINE",
"748 1828 LINE",
"1112 1828 LINE",
"1112 2048 LINE",
"136 2048 LINE",
"136 1828 LINE"
);
}
);
width = 1248;
}
);
leftKerningGroup = uni0042;
note = uniE00C;
rightKerningGroup = uni018E;
unicode = E00C;
},
{
glyphname = uni004A;
layers = (
{
layerId = "25D77734-040B-4C95-BAE5-6EFF5F3D7B2E";
paths = (
{
closed = 1;
nodes = (
"1032 584 LINE SMOOTH",
"1032 393 OFFCURVE",
"857 192 OFFCURVE",
"696 192 QCURVE SMOOTH",
"550 192 OFFCURVE",
"360 350 OFFCURVE",
"360 480 QCURVE",
"116 480 LINE",
"116 323 OFFCURVE",
"266 95 OFFCURVE",
"528 -28 OFFCURVE",
"696 -28 QCURVE SMOOTH",
"963 -28 OFFCURVE",
"1280 289 OFFCURVE",
"1280 584 QCURVE SMOOTH",
"1280 2048 LINE",
"1032 2048 LINE"
);
}
);
width = 1528;
}
);
leftKerningGroup = uni004A;
note = uni004A;
rightKerningGroup = uni004A;
unicode = 004A;
},
{
glyphname = uni004B;
layers = (
{
layerId = "25D77734-040B-4C95-BAE5-6EFF5F3D7B2E";
paths = (
{
closed = 1;
nodes = (
"496 0 LINE",
"496 664 LINE",
"752 952 LINE",
"1464 0 LINE",
"1764 0 LINE",
"904 1124 LINE",
"1764 2048 LINE",
"1440 2048 LINE",
"520 1032 LINE",
"496 1032 LINE",
"496 2048 LINE",
"248 2048 LINE",
"248 0 LINE"
);
}
);
width = 1836;
}
);
leftKerningGroup = uni0042;
note = uni004B;
rightKerningGroup = uni004B;
unicode = 004B;
},
{
glyphname = uni04A0;
layers = (
{
layerId = "25D77734-040B-4C95-BAE5-6EFF5F3D7B2E";
paths = (
{
closed = 1;
nodes = (
"2028 0 LINE",
"1172 1148 LINE",
"2000 2048 LINE",
"1704 2048 LINE",
"884 1160 LINE",
"776 1160 LINE",
"776 2048 LINE",
"24 2048 LINE",
"24 1828 LINE",
"528 1828 LINE",
"528 0 LINE",
"776 0 LINE",
"776 940 LINE",
"1028 940 LINE",
"1732 0 LINE"
);
}
);
width = 2100;
}
);
leftKerningGroup = uni0042;
note = uni04A0;
rightKerningGroup = uni004B;
unicode = 04A0;
},
{
glyphname = uni0198;
layers = (
{
layerId = "25D77734-040B-4C95-BAE5-6EFF5F3D7B2E";
paths = (
{
closed = 1;
nodes = (
"496 0 LINE",
"496 664 LINE",
"752 952 LINE",
"1464 0 LINE",
"1764 0 LINE",
"904 1124 LINE",
"1488 1752 LINE SMOOTH",
"1565 1835 OFFCURVE",
"1702 1854 OFFCURVE",
"1768 1812 QCURVE",
"1868 1996 LINE",
"1745 2083 OFFCURVE",
"1452 2060 OFFCURVE",
"1332 1928 QCURVE SMOOTH",
"520 1032 LINE",
"496 1032 LINE",
"496 2048 LINE",
"248 2048 LINE",
"248 0 LINE"
);
}
);
width = 1892;
}
);
leftKerningGroup = uni0042;
note = uni0198;
rightKerningGroup = uni004B;
unicode = 0198;
},
{
glyphname = uni004C;
layers = (
{
layerId = "25D77734-040B-4C95-BAE5-6EFF5F3D7B2E";
paths = (
{
closed = 1;
nodes = (
"1448 0 LINE",
"1448 220 LINE",
"496 220 LINE",
"496 2048 LINE",
"248 2048 LINE",
"248 0 LINE"
);
}
);
width = 1584;
}
);
leftKerningGroup = uni0042;
note = uni004C;
rightKerningGroup = uni004C;
unicode = 004C;
},
{
glyphname = uni0141;
layers = (
{
layerId = "25D77734-040B-4C95-BAE5-6EFF5F3D7B2E";
paths = (
{
closed = 1;
nodes = (
"496 1161 LINE",
"496 2048 LINE",
"248 2048 LINE",
"248 1083 LINE",
"60 1024 LINE",
"60 844 LINE",
"248 903 LINE",
"248 0 LINE",
"1448 0 LINE",
"1448 220 LINE",
"496 220 LINE",
"496 981 LINE",
"872 1100 LINE",
"872 1280 LINE"
);
}
);
width = 1584;
}
);
leftKerningGroup = uni0042;
note = uni0141;
rightKerningGroup = uni004C;
unicode = 0141;
},
{
glyphname = uni004D;
layers = (
{
layerId = "25D77734-040B-4C95-BAE5-6EFF5F3D7B2E";
paths = (
{
closed = 1;
nodes = (
"248 0 LINE",
"480 0 LINE",
"480 1556 LINE",
"500 1556 LINE",
"1140 0 LINE",
"1364 0 LINE",
"2004 1556 LINE",
"2024 1556 LINE",
"2024 0 LINE",
"2256 0 LINE",
"2256 2048 LINE",
"1960 2048 LINE",
"1264 348 LINE",
"1240 348 LINE",
"544 2048 LINE",
"248 2048 LINE"
);
}
);
width = 2504;
}
);
leftKerningGroup = uni0042;
note = uni004D;
rightKerningGroup = uni018E;
unicode = 004D;
},
{
glyphname = uni004E;
layers = (
{
layerId = "25D77734-040B-4C95-BAE5-6EFF5F3D7B2E";
paths = (
{
closed = 1;
nodes = (
"1628 2048 LINE",
"1628 436 LINE",
"1608 436 LINE",
"488 2048 LINE",
"248 2048 LINE",
"248 0 LINE",
"496 0 LINE",
"496 1608 LINE",
"516 1608 LINE",
"1632 0 LINE",
"1872 0 LINE",
"1872 2048 LINE"
);
}
);
width = 2120;
}
);
leftKerningGroup = uni0042;
note = uni004E;
rightKerningGroup = uni018E;
unicode = 004E;
},
{
glyphname = uni019D;
layers = (
{
layerId = "25D77734-040B-4C95-BAE5-6EFF5F3D7B2E";
paths = (
{
closed = 1;
nodes = (
"1640 2048 LINE",
"1640 436 LINE",
"1620 436 LINE",
"500 2048 LINE",
"260 2048 LINE",
"260 -160 LINE SMOOTH",
"260 -280 OFFCURVE",
"136 -368 OFFCURVE",
"40 -368 QCURVE SMOOTH",
"19 -368 OFFCURVE",
"-21 -363 OFFCURVE",
"-36 -360 QCURVE",
"-36 -564 LINE",
"-9 -573 OFFCURVE",
"64 -576 OFFCURVE",
"100 -576 QCURVE SMOOTH",
"268 -576 OFFCURVE",
"508 -362 OFFCURVE",
"508 -164 QCURVE SMOOTH",
"508 1608 LINE",
"528 1608 LINE",
"1644 0 LINE",
"1884 0 LINE",
"1884 2048 LINE"
);
}
);
width = 2132;
}
);
leftKerningGroup = uni0191;
note = uni019D;
rightKerningGroup = uni018E;
unicode = 019D;
},
{
glyphname = uni014A;
layers = (
{
layerId = "25D77734-040B-4C95-BAE5-6EFF5F3D7B2E";
paths = (
{
closed = 1;
nodes = (
"1632 -160 LINE SMOOTH",
"1632 -280 OFFCURVE",
"1500 -368 OFFCURVE",
"1404 -368 QCURVE SMOOTH",
"1383 -368 OFFCURVE",
"1343 -363 OFFCURVE",
"1328 -360 QCURVE",
"1328 -564 LINE",
"1355 -573 OFFCURVE",
"1428 -576 OFFCURVE",
"1464 -576 QCURVE SMOOTH",
"1632 -576 OFFCURVE",
"1872 -362 OFFCURVE",
"1872 -164 QCURVE SMOOTH",
"1872 2048 LINE",
"1628 2048 LINE",
"1628 436 LINE",
"1608 436 LINE",
"488 2048 LINE",
"248 2048 LINE",
"248 0 LINE",
"496 0 LINE",
"496 1608 LINE",
"516 1608 LINE",
"1632 0 LINE"
);
}
);
width = 2120;
}
);
leftKerningGroup = uni0042;
note = uni014A;
rightKerningGroup = uni018E;
unicode = 014A;
},
{
glyphname = uni004F;
layers = (
{
layerId = "25D77734-040B-4C95-BAE5-6EFF5F3D7B2E";
paths = (
{
closed = 1;
nodes = (
"1976 1348 OFFCURVE",
"1742 1820 OFFCURVE",
"1334 2076 OFFCURVE",
"1072 2076 QCURVE SMOOTH",
"810 2076 OFFCURVE",
"402 1820 OFFCURVE",
"168 1348 OFFCURVE",
"168 1024 QCURVE SMOOTH",
"168 700 OFFCURVE",
"402 228 OFFCURVE",
"810 -28 OFFCURVE",
"1072 -28 QCURVE SMOOTH",
"1334 -28 OFFCURVE",
"1742 228 OFFCURVE",
"1976 700 OFFCURVE",
"1976 1024 QCURVE SMOOTH"
);
},
{
closed = 1;
nodes = (
"1736 758 OFFCURVE",
"1559 392 OFFCURVE",
"1258 204 OFFCURVE",
"1072 204 QCURVE SMOOTH",
"886 204 OFFCURVE",
"585 392 OFFCURVE",
"408 758 OFFCURVE",
"408 1024 QCURVE SMOOTH",
"408 1290 OFFCURVE",
"585 1656 OFFCURVE",
"886 1844 OFFCURVE",
"1072 1844 QCURVE SMOOTH",
"1258 1844 OFFCURVE",
"1559 1656 OFFCURVE",
"1736 1290 OFFCURVE",
"1736 1024 QCURVE SMOOTH"
);
}
);
width = 2144;
}
);
leftKerningGroup = uni0043;
note = uni004F;
rightKerningGroup = uni0044;
unicode = 004F;
},
{
glyphname = uni00D8;
layers = (
{
layerId = "25D77734-040B-4C95-BAE5-6EFF5F3D7B2E";
paths = (
{
closed = 1;
nodes = (
"572 123 LINE",
"788 -28 OFFCURVE",
"1072 -28 QCURVE SMOOTH",
"1334 -28 OFFCURVE",
"1742 228 OFFCURVE",
"1976 700 OFFCURVE",
"1976 1024 QCURVE SMOOTH",
"1976 1273 OFFCURVE",
"1834 1669 OFFCURVE",
"1709 1806 QCURVE",
"1856 2024 LINE",
"1704 2128 LINE",
"1569 1928 LINE",
"1354 2076 OFFCURVE",
"1072 2076 QCURVE SMOOTH",
"810 2076 OFFCURVE",
"402 1820 OFFCURVE",
"168 1348 OFFCURVE",
"168 1024 QCURVE SMOOTH",
"168 777 OFFCURVE",
"308 382 OFFCURVE",
"432 245 QCURVE",
"280 20 LINE",
"432 -84 LINE"
);
},
{
closed = 1;
nodes = (
"1736 758 OFFCURVE",
"1559 392 OFFCURVE",
"1258 204 OFFCURVE",
"1072 204 QCURVE SMOOTH",
"863 204 OFFCURVE",
"704 319 QCURVE",
"1570 1601 LINE",
"1648 1498 OFFCURVE",
"1736 1208 OFFCURVE",
"1736 1024 QCURVE SMOOTH"
);
},
{
closed = 1;
nodes = (
"495 554 OFFCURVE",
"408 841 OFFCURVE",
"408 1024 QCURVE SMOOTH",
"408 1290 OFFCURVE",
"585 1656 OFFCURVE",
"886 1844 OFFCURVE",
"1072 1844 QCURVE SMOOTH",
"1279 1844 OFFCURVE",
"1436 1732 QCURVE",
"571 451 LINE"
);
}
);
width = 2144;
}
);
leftKerningGroup = uni0043;
note = uni00D8;
rightKerningGroup = uni0044;
unicode = 00D8;
},
{
glyphname = uni01A0;
layers = (
{
layerId = "25D77734-040B-4C95-BAE5-6EFF5F3D7B2E";
paths = (
{
closed = 1;
nodes = (
"1904 2045 OFFCURVE",
"1796 1858 OFFCURVE",
"1681 1835 QCURVE",
"1563 1952 OFFCURVE",
"1253 2076 OFFCURVE",
"1072 2076 QCURVE SMOOTH",
"810 2076 OFFCURVE",
"402 1820 OFFCURVE",
"168 1348 OFFCURVE",
"168 1024 QCURVE SMOOTH",
"168 700 OFFCURVE",
"402 228 OFFCURVE",
"810 -28 OFFCURVE",
"1072 -28 QCURVE SMOOTH",
"1334 -28 OFFCURVE",
"1742 228 OFFCURVE",
"1976 700 OFFCURVE",
"1976 1024 QCURVE SMOOTH",
"1976 1214 OFFCURVE",
"1893 1535 OFFCURVE",
"1816 1662 QCURVE",
"1978 1714 OFFCURVE",
"2140 1986 OFFCURVE",
"2140 2196 QCURVE",
"1904 2196 LINE"
);
},
{
closed = 1;
nodes = (
"1736 758 OFFCURVE",
"1559 392 OFFCURVE",
"1258 204 OFFCURVE",
"1072 204 QCURVE SMOOTH",
"886 204 OFFCURVE",
"585 392 OFFCURVE",
"408 758 OFFCURVE",
"408 1024 QCURVE SMOOTH",
"408 1290 OFFCURVE",
"585 1656 OFFCURVE",
"886 1844 OFFCURVE",
"1072 1844 QCURVE SMOOTH",
"1258 1844 OFFCURVE",
"1559 1656 OFFCURVE",
"1736 1290 OFFCURVE",
"1736 1024 QCURVE SMOOTH"
);
}
);
width = 2180;
}
);
leftKerningGroup = uni0043;
note = uni01A0;
rightKerningGroup = uni0044;
unicode = 01A0;
},
{
glyphname = uni0152;
layers = (
{
layerId = "25D77734-040B-4C95-BAE5-6EFF5F3D7B2E";
paths = (
{
closed = 1;
nodes = (
"2500 0 LINE",
"2500 220 LINE",
"1496 220 LINE",
"1496 916 LINE",
"2420 916 LINE",
"2420 1136 LINE",
"1496 1136 LINE",
"1496 1828 LINE",
"2484 1828 LINE",
"2484 2048 LINE",
"1072 2048 LINE SMOOTH",
"802 2048 OFFCURVE",
"395 1793 OFFCURVE",
"168 1332 OFFCURVE",
"168 1024 QCURVE SMOOTH",
"168 718 OFFCURVE",
"395 257 OFFCURVE",
"802 0 OFFCURVE",
"1072 0 QCURVE SMOOTH"
);
},
{
closed = 1;
nodes = (
"1072 220 LINE SMOOTH",
"874 220 OFFCURVE",
"575 422 OFFCURVE",
"408 784 OFFCURVE",
"408 1024 QCURVE SMOOTH",
"408 1266 OFFCURVE",
"575 1628 OFFCURVE",
"874 1828 OFFCURVE",
"1072 1828 QCURVE SMOOTH",
"1248 1828 LINE",
"1248 220 LINE"
);
}
);
width = 2684;
}
);
leftKerningGroup = uni0043;
note = uni0152;
rightKerningGroup = uni00C6;
unicode = 0152;
},
{
glyphname = uni0050;
layers = (
{
layerId = "25D77734-040B-4C95-BAE5-6EFF5F3D7B2E";
paths = (
{
closed = 1;
nodes = (
"496 0 LINE",
"496 748 LINE",
"944 748 LINE SMOOTH",
"1183 748 OFFCURVE",
"1489 923 OFFCURVE",
"1636 1219 OFFCURVE",
"1636 1400 QCURVE SMOOTH",
"1636 1581 OFFCURVE",
"1488 1875 OFFCURVE",
"1181 2048 OFFCURVE",
"940 2048 QCURVE SMOOTH",
"248 2048 LINE",
"248 0 LINE"
);
},
{
closed = 1;
nodes = (
"496 1828 LINE",
"932 1828 LINE SMOOTH",
"1182 1828 OFFCURVE",
"1392 1585 OFFCURVE",
"1392 1400 QCURVE SMOOTH",
"1392 1216 OFFCURVE",
"1183 968 OFFCURVE",
"936 968 QCURVE SMOOTH",
"496 968 LINE"
);
}
);
width = 1788;
}
);
leftKerningGroup = uni0042;
note = uni0050;
rightKerningGroup = uni0050;
unicode = 0050;
},
{
glyphname = uni048E;
layers = (
{
layerId = "25D77734-040B-4C95-BAE5-6EFF5F3D7B2E";
paths = (
{
closed = 1;
nodes = (
"496 0 LINE",
"496 748 LINE",
"944 748 LINE SMOOTH",
"1097 748 OFFCURVE",
"1220 787 QCURVE",
"1368 560 LINE",
"1552 680 LINE",
"1415 889 LINE",
"1528 979 OFFCURVE",
"1636 1244 OFFCURVE",
"1636 1400 QCURVE SMOOTH",
"1636 1581 OFFCURVE",
"1488 1875 OFFCURVE",
"1181 2048 OFFCURVE",
"940 2048 QCURVE SMOOTH",
"248 2048 LINE",
"248 0 LINE"
);
},
{
closed = 1;
nodes = (
"952 1200 LINE",
"1092 985 LINE",
"1022 968 OFFCURVE",
"936 968 QCURVE SMOOTH",
"496 968 LINE",
"496 1828 LINE",
"932 1828 LINE SMOOTH",
"1182 1828 OFFCURVE",
"1392 1585 OFFCURVE",
"1392 1400 QCURVE SMOOTH",
"1392 1307 OFFCURVE",
"1341 1147 OFFCURVE",
"1285 1089 QCURVE",
"1136 1316 LINE"
);
}
);
width = 1788;
}
);
leftKerningGroup = uni0042;
note = uni048E;
rightKerningGroup = uni0050;
unicode = 048E;
},
{
glyphname = uni01A4;
layers = (
{
layerId = "25D77734-040B-4C95-BAE5-6EFF5F3D7B2E";
paths = (
{
closed = 1;
nodes = (
"368 1580 LINE SMOOTH",
"368 1644 OFFCURVE",
"391 1757 OFFCURVE",
"468 1828 OFFCURVE",
"548 1828 QCURVE SMOOTH",
"676 1828 LINE",
"676 0 LINE",
"924 0 LINE",
"924 748 LINE",
"1372 748 LINE SMOOTH",
"1611 748 OFFCURVE",
"1917 923 OFFCURVE",
"2064 1219 OFFCURVE",
"2064 1400 QCURVE SMOOTH",
"2064 1581 OFFCURVE",
"1916 1875 OFFCURVE",
"1609 2048 OFFCURVE",
"1368 2048 QCURVE SMOOTH",
"544 2048 LINE SMOOTH",
"346 2048 OFFCURVE",
"136 1808 OFFCURVE",
"136 1640 QCURVE SMOOTH",
"136 1504 LINE",
"368 1504 LINE"
);
},
{
closed = 1;
nodes = (
"924 1828 LINE",
"1360 1828 LINE SMOOTH",
"1610 1828 OFFCURVE",
"1820 1585 OFFCURVE",
"1820 1400 QCURVE SMOOTH",
"1820 1216 OFFCURVE",
"1611 968 OFFCURVE",
"1364 968 QCURVE SMOOTH",
"924 968 LINE"
);
}
);
width = 2216;
}
);
leftKerningGroup = uni0042;
note = uni01A4;
rightKerningGroup = uni0050;
unicode = 01A4;
},
{
glyphname = uni0051;
layers = (
{
layerId = "25D77734-040B-4C95-BAE5-6EFF5F3D7B2E";
paths = (
{
closed = 1;
nodes = (
"1976 1348 OFFCURVE",
"1742 1820 OFFCURVE",
"1334 2076 OFFCURVE",
"1072 2076 QCURVE SMOOTH",
"810 2076 OFFCURVE",
"402 1820 OFFCURVE",
"168 1348 OFFCURVE",
"168 1024 QCURVE SMOOTH",
"168 700 OFFCURVE",
"402 228 OFFCURVE",
"810 -28 OFFCURVE",
"1072 -28 QCURVE SMOOTH",
"1271 -28 OFFCURVE",
"1441 48 QCURVE",
"1620 -192 LINE",
"1892 -192 LINE",
"1625 163 LINE",
"1788 297 OFFCURVE",
"1976 736 OFFCURVE",
"1976 1024 QCURVE SMOOTH"
);
},
{
closed = 1;
nodes = (
"1296 242 LINE",
"1191 204 OFFCURVE",
"1072 204 QCURVE SMOOTH",
"886 204 OFFCURVE",
"585 392 OFFCURVE",
"408 758 OFFCURVE",
"408 1024 QCURVE SMOOTH",
"408 1290 OFFCURVE",
"585 1656 OFFCURVE",
"886 1844 OFFCURVE",
"1072 1844 QCURVE SMOOTH",
"1258 1844 OFFCURVE",
"1559 1656 OFFCURVE",
"1736 1290 OFFCURVE",
"1736 1024 QCURVE SMOOTH",
"1736 792 OFFCURVE",
"1599 455 OFFCURVE",
"1482 353 QCURVE",
"1264 640 LINE",
"992 640 LINE"
);
}
);
width = 2144;
}
);
leftKerningGroup = uni0043;
note = uni0051;
rightKerningGroup = uni0044;
unicode = 0051;
},
{
glyphname = uni0052;
layers = (
{
layerId = "25D77734-040B-4C95-BAE5-6EFF5F3D7B2E";
paths = (
{
closed = 1;
nodes = (
"496 0 LINE",
"496 800 LINE",
"944 800 LINE SMOOTH",
"971 800 OFFCURVE",
"996 801 QCURVE",
"1428 0 LINE",
"1716 0 LINE",
"1253 846 LINE",
"1449 913 OFFCURVE",
"1636 1216 OFFCURVE",
"1636 1420 QCURVE SMOOTH",
"1636 1601 OFFCURVE",
"1488 1885 OFFCURVE",
"1180 2048 OFFCURVE",
"940 2048 QCURVE SMOOTH",
"248 2048 LINE",
"248 0 LINE"
);
},
{
closed = 1;
nodes = (
"496 1828 LINE",
"932 1828 LINE SMOOTH",
"1181 1828 OFFCURVE",
"1392 1605 OFFCURVE",
"1392 1420 QCURVE SMOOTH",
"1392 1236 OFFCURVE",
"1182 1024 OFFCURVE",
"936 1024 QCURVE SMOOTH",
"496 1024 LINE"
);
}
);
width = 1800;
}
);
leftKerningGroup = uni0042;
note = uni0052;
rightKerningGroup = uniE002;
unicode = 0052;
},
{
glyphname = uni211F;
layers = (
{
layerId = "25D77734-040B-4C95-BAE5-6EFF5F3D7B2E";
paths = (
{
closed = 1;
nodes = (
"792 2496 LINE",
"736 2348 LINE",
"1172 2220 LINE",
"1119 2034 LINE",
"1035 2048 OFFCURVE",
"940 2048 QCURVE SMOOTH",
"248 2048 LINE",
"248 0 LINE",
"496 0 LINE",
"496 800 LINE",
"768 800 LINE",
"412 -452 LINE",
"568 -484 LINE",
"931 800 LINE",
"944 800 LINE SMOOTH",
"971 800 OFFCURVE",
"996 801 QCURVE",
"1428 0 LINE",
"1716 0 LINE",
"1253 846 LINE",
"1449 913 OFFCURVE",
"1636 1216 OFFCURVE",
"1636 1420 QCURVE SMOOTH",
"1636 1619 OFFCURVE",
"1457 1923 OFFCURVE",
"1269 1994 QCURVE",
"1360 2316 LINE"
);
},
{
closed = 1;
nodes = (
"496 1828 LINE",
"932 1828 LINE SMOOTH",
"1000 1828 OFFCURVE",
"1058 1819 QCURVE",
"832 1024 LINE",
"496 1024 LINE"
);
},
{
closed = 1;
nodes = (
"1206 1773 LINE",
"1305 1723 OFFCURVE",
"1392 1541 OFFCURVE",
"1392 1420 QCURVE SMOOTH",
"1392 1247 OFFCURVE",
"1208 1039 OFFCURVE",
"995 1026 QCURVE"
);
}
);
width = 1800;
}
);
leftKerningGroup = uni0042;
note = uni211F;
rightKerningGroup = uniE002;
unicode = 211F;
},
{
glyphname = uni211E;
layers = (
{
layerId = "25D77734-040B-4C95-BAE5-6EFF5F3D7B2E";
paths = (
{
closed = 1;
nodes = (
"248 0 LINE",
"496 0 LINE",
"496 796 LINE",
"955 796 LINE",
"1208 447 LINE",
"880 0 LINE",
"1168 0 LINE",
"1350 251 LINE",
"1532 0 LINE",
"1820 0 LINE",
"1492 447 LINE",
"1820 900 LINE",
"1540 900 LINE",
"1350 641 LINE",
"1208 835 LINE",
"1406 903 OFFCURVE",
"1620 1197 OFFCURVE",
"1620 1420 QCURVE SMOOTH",
"1620 1590 OFFCURVE",
"1479 1876 OFFCURVE",
"1176 2048 OFFCURVE",
"932 2048 QCURVE SMOOTH",
"248 2048 LINE"
);
},
{
closed = 1;
nodes = (
"496 1828 LINE",
"932 1828 LINE SMOOTH",
"1114 1828 OFFCURVE",
"1306 1704 OFFCURVE",
"1376 1516 OFFCURVE",
"1376 1420 QCURVE SMOOTH",
"1376 1306 OFFCURVE",
"1290 1127 OFFCURVE",
"1084 1024 OFFCURVE",
"904 1024 QCURVE SMOOTH",
"496 1024 LINE"
);
}
);
width = 1924;
}
);
leftKerningGroup = uni0042;
note = uni211E;
rightKerningGroup = uniE002;
unicode = 211E;
},
{
glyphname = uni024C;
layers = (
{
layerId = "25D77734-040B-4C95-BAE5-6EFF5F3D7B2E";
paths = (
{
closed = 1;
nodes = (
"520 0 LINE",
"520 800 LINE",
"968 800 LINE SMOOTH",
"995 800 OFFCURVE",
"1020 801 QCURVE",
"1452 0 LINE",
"1740 0 LINE",
"1277 846 LINE",
"1473 913 OFFCURVE",
"1660 1216 OFFCURVE",
"1660 1420 QCURVE SMOOTH",
"1660 1601 OFFCURVE",
"1512 1885 OFFCURVE",
"1204 2048 OFFCURVE",
"964 2048 QCURVE SMOOTH",
"272 2048 LINE",
"272 1024 LINE",
"32 1024 LINE",
"32 800 LINE",
"272 800 LINE",
"272 0 LINE"
);
},
{
closed = 1;
nodes = (
"520 1828 LINE",
"956 1828 LINE SMOOTH",
"1205 1828 OFFCURVE",
"1416 1605 OFFCURVE",
"1416 1420 QCURVE SMOOTH",
"1416 1236 OFFCURVE",
"1206 1024 OFFCURVE",
"960 1024 QCURVE SMOOTH",
"520 1024 LINE"
);
}
);
width = 1824;
}
);
leftKerningGroup = uni0042;
note = uni024C;
rightKerningGroup = uniE002;
unicode = 024C;
},
{
glyphname = uni0053;
layers = (
{
layerId = "25D77734-040B-4C95-BAE5-6EFF5F3D7B2E";
paths = (
{
closed = 1;
nodes = (
"1608 1536 LINE",
"1603 1691 OFFCURVE",
"1422 1935 OFFCURVE",
"1114 2076 OFFCURVE",
"916 2076 QCURVE SMOOTH",
"720 2076 OFFCURVE",
"403 1933 OFFCURVE",
"216 1676 OFFCURVE",
"216 1504 QCURVE SMOOTH",
"216 1297 OFFCURVE",
"496 1041 OFFCURVE",
"736 972 QCURVE SMOOTH",
"988 900 LINE SMOOTH",
"1096 870 OFFCURVE",
"1282 790 OFFCURVE",
"1396 662 OFFCURVE",
"1396 560 QCURVE SMOOTH",
"1396 448 OFFCURVE",
"1264 281 OFFCURVE",
"1038 188 OFFCURVE",
"896 188 QCURVE SMOOTH",
"774 188 OFFCURVE",
"563 261 OFFCURVE",
"426 412 OFFCURVE",
"416 528 QCURVE",
"160 528 LINE",
"178 276 OFFCURVE",
"566 -36 OFFCURVE",
"896 -36 QCURVE SMOOTH",
"1132 -36 OFFCURVE",
"1463 122 OFFCURVE",
"1636 390 OFFCURVE",
"1636 556 QCURVE SMOOTH",
"1636 700 OFFCURVE",
"1518 898 OFFCURVE",
"1337 1025 OFFCURVE",
"1140 1099 OFFCURVE",
"1060 1120 QCURVE SMOOTH",
"852 1176 LINE SMOOTH",
"776 1196 OFFCURVE",
"591 1271 OFFCURVE",
"456 1406 OFFCURVE",
"456 1516 QCURVE SMOOTH",
"456 1663 OFFCURVE",
"704 1856 OFFCURVE",
"908 1856 QCURVE SMOOTH",
"1094 1856 OFFCURVE",
"1350 1688 OFFCURVE",
"1368 1536 QCURVE"
);
}
);
width = 1796;
}
);
note = uni0053;
rightKerningGroup = uni0053;
unicode = 0053;
},
{
glyphname = uni1E9E;
layers = (
{
layerId = "25D77734-040B-4C95-BAE5-6EFF5F3D7B2E";
paths = (
{
closed = 1;
nodes = (
"496 0 LINE",
"496 1360 LINE SMOOTH",
"496 1488 OFFCURVE",
"562 1715 OFFCURVE",
"732 1856 OFFCURVE",
"888 1856 QCURVE SMOOTH",
"1014 1856 OFFCURVE",
"1186 1773 OFFCURVE",
"1252 1728 QCURVE",
"844 1172 LINE",
"844 956 LINE",
"1044 956 LINE SMOOTH",
"1076 956 OFFCURVE",
"1218 942 OFFCURVE",
"1373 876 OFFCURVE",
"1484 721 OFFCURVE",
"1484 580 QCURVE SMOOTH",
"1484 400 OFFCURVE",
"1271 192 OFFCURVE",
"1076 192 QCURVE SMOOTH",
"977 192 OFFCURVE",
"825 236 OFFCURVE",
"768 260 QCURVE",
"688 40 LINE",
"787 4 OFFCURVE",
"979 -28 OFFCURVE",
"1072 -28 QCURVE SMOOTH",
"1272 -28 OFFCURVE",
"1583 111 OFFCURVE",
"1760 380 OFFCURVE",
"1760 576 QCURVE SMOOTH",
"1760 840 OFFCURVE",
"1426 1150 OFFCURVE",
"1120 1168 QCURVE",
"1576 1768 LINE",
"1438 1894 OFFCURVE",
"1101 2076 OFFCURVE",
"876 2076 QCURVE SMOOTH",
"248 2076 OFFCURVE",
"248 1360 QCURVE SMOOTH",
"248 0 LINE"
);
}
);
width = 1920;
}
);
leftKerningGroup = uni0042;
note = uni1E9E;
rightKerningGroup = uni0053;
unicode = 1E9E;
},
{
glyphname = uni0054;
layers = (
{
layerId = "25D77734-040B-4C95-BAE5-6EFF5F3D7B2E";
paths = (
{
closed = 1;
nodes = (
"780 1828 LINE",
"780 0 LINE",
"1028 0 LINE",
"1028 1828 LINE",
"1672 1828 LINE",
"1672 2048 LINE",
"136 2048 LINE",
"136 1828 LINE"
);
}
);
width = 1808;
}
);
leftKerningGroup = uni0054;
note = uni0054;
rightKerningGroup = uni04A4;
unicode = 0054;
},
{
glyphname = uni01AC;
layers = (
{
layerId = "25D77734-040B-4C95-BAE5-6EFF5F3D7B2E";
paths = (
{
closed = 1;
nodes = (
"544 2048 LINE SMOOTH",
"355 2048 OFFCURVE",
"136 1824 OFFCURVE",
"136 1644 QCURVE SMOOTH",
"136 1524 LINE",
"360 1524 LINE",
"360 1600 LINE SMOOTH",
"360 1687 OFFCURVE",
"439 1828 OFFCURVE",
"544 1828 QCURVE SMOOTH",
"892 1828 LINE",
"892 0 LINE",
"1140 0 LINE",
"1140 1828 LINE",
"1784 1828 LINE",
"1784 2048 LINE"
);
}
);
width = 1920;
}
);
leftKerningGroup = uni0054;
note = uni01AC;
rightKerningGroup = uni04A4;
unicode = 01AC;
},
{
glyphname = uni01AE;
layers = (
{
layerId = "25D77734-040B-4C95-BAE5-6EFF5F3D7B2E";
paths = (
{
closed = 1;
nodes = (
"780 1828 LINE",
"780 -168 LINE SMOOTH",
"780 -300 OFFCURVE",
"901 -482 OFFCURVE",
"1096 -576 OFFCURVE",
"1208 -576 QCURVE SMOOTH",
"1344 -576 LINE",
"1344 -356 LINE",
"1268 -356 LINE SMOOTH",
"1172 -356 OFFCURVE",
"1028 -284 OFFCURVE",
"1028 -164 QCURVE SMOOTH",
"1028 1828 LINE",
"1672 1828 LINE",
"1672 2048 LINE",
"136 2048 LINE",
"136 1828 LINE"
);
}
);
width = 1808;
}
);
leftKerningGroup = uni0054;
note = uni01AE;
rightKerningGroup = uni04A4;
unicode = 01AE;
},
{
glyphname = uni023E;
layers = (
{
layerId = "25D77734-040B-4C95-BAE5-6EFF5F3D7B2E";
paths = (
{
closed = 1;
nodes = (
"588 -260 LINE",
"780 281 LINE",
"780 0 LINE",
"1028 0 LINE",
"1028 979 LINE",
"1330 1828 LINE",
"1672 1828 LINE",
"1672 2048 LINE",
"1408 2048 LINE",
"1500 2308 LINE",
"1272 2308 LINE",
"1180 2048 LINE",
"136 2048 LINE",
"136 1828 LINE",
"780 1828 LINE",
"780 923 LINE",
"360 -260 LINE"
);
},
{
closed = 1;
nodes = (
"1028 1828 LINE",
"1102 1828 LINE",
"1028 1621 LINE"
);
}
);
width = 1808;
}
);
leftKerningGroup = uni0054;
note = uni023E;
rightKerningGroup = uni04A4;
unicode = 023E;
},
{
glyphname = uni0055;
layers = (
{
layerId = "25D77734-040B-4C95-BAE5-6EFF5F3D7B2E";
paths = (
{
closed = 1;
nodes = (
"1592 692 LINE SMOOTH",
"1592 532 OFFCURVE",
"1440 311 OFFCURVE",
"1190 196 OFFCURVE",
"1044 196 QCURVE SMOOTH",
"898 196 OFFCURVE",
"648 311 OFFCURVE",
"496 532 OFFCURVE",
"496 692 QCURVE SMOOTH",
"496 2048 LINE",
"248 2048 LINE",
"248 692 LINE SMOOTH",
"248 462 OFFCURVE",
"466 136 OFFCURVE",
"828 -36 OFFCURVE",
"1044 -36 QCURVE SMOOTH",
"1260 -36 OFFCURVE",
"1622 136 OFFCURVE",
"1840 462 OFFCURVE",
"1840 692 QCURVE SMOOTH",
"1840 2048 LINE",
"1592 2048 LINE"
);
}
);
width = 2088;
}
);
note = uni0055;
rightKerningGroup = uni004A;
unicode = 0055;
},
{
glyphname = uni01AF;
layers = (
{
layerId = "25D77734-040B-4C95-BAE5-6EFF5F3D7B2E";
paths = (
{
closed = 1;
nodes = (
"2068 2008 OFFCURVE",
"1972 1810 OFFCURVE",
"1840 1781 QCURVE",
"1840 2048 LINE",
"1592 2048 LINE",
"1592 692 LINE SMOOTH",
"1592 532 OFFCURVE",
"1440 311 OFFCURVE",
"1190 196 OFFCURVE",
"1044 196 QCURVE SMOOTH",
"898 196 OFFCURVE",
"648 311 OFFCURVE",
"496 532 OFFCURVE",
"496 692 QCURVE SMOOTH",
"496 2048 LINE",
"248 2048 LINE",
"248 692 LINE SMOOTH",
"248 462 OFFCURVE",
"466 136 OFFCURVE",
"828 -36 OFFCURVE",
"1044 -36 QCURVE SMOOTH",
"1260 -36 OFFCURVE",
"1622 136 OFFCURVE",
"1840 462 OFFCURVE",
"1840 692 QCURVE SMOOTH",
"1840 1579 LINE",
"2087 1609 OFFCURVE",
"2300 1910 OFFCURVE",
"2300 2172 QCURVE",
"2068 2172 LINE"
);
}
);
width = 2436;
}
);
note = uni01AF;
rightKerningGroup = uni04A4;
unicode = 01AF;
},
{
glyphname = uni0244;
layers = (
{
layerId = "25D77734-040B-4C95-BAE5-6EFF5F3D7B2E";
paths = (
{
closed = 1;
nodes = (
"1840 1188 LINE",
"1840 2048 LINE",
"1592 2048 LINE",
"1592 1188 LINE",
"496 1188 LINE",
"496 2048 LINE",
"248 2048 LINE",
"248 1188 LINE",
"-8 1188 LINE",
"-8 1024 LINE",
"248 1024 LINE",
"248 692 LINE SMOOTH",
"248 462 OFFCURVE",
"466 136 OFFCURVE",
"828 -36 OFFCURVE",
"1044 -36 QCURVE SMOOTH",
"1260 -36 OFFCURVE",
"1622 136 OFFCURVE",
"1840 462 OFFCURVE",
"1840 692 QCURVE SMOOTH",
"1840 1024 LINE",
"2096 1024 LINE",
"2096 1188 LINE"
);
},
{
closed = 1;
nodes = (
"1592 692 LINE SMOOTH",
"1592 532 OFFCURVE",
"1440 311 OFFCURVE",
"1190 196 OFFCURVE",
"1044 196 QCURVE SMOOTH",
"898 196 OFFCURVE",
"648 311 OFFCURVE",
"496 532 OFFCURVE",
"496 692 QCURVE SMOOTH",
"496 1024 LINE",
"1592 1024 LINE"
);
}
);
width = 2088;
}
);
note = uni0244;
rightKerningGroup = uni004A;
unicode = 0244;
},
{
glyphname = uni0056;
layers = (
{
layerId = "25D77734-040B-4C95-BAE5-6EFF5F3D7B2E";
paths = (
{
closed = 1;
nodes = (
"72 2048 LINE",
"824 0 LINE",
"1080 0 LINE",
"1832 2048 LINE",
"1572 2048 LINE",
"964 324 LINE",
"940 324 LINE",
"332 2048 LINE"
);
}
);
width = 1904;
}
);
leftKerningGroup = uni0056;
note = uni0056;
rightKerningGroup = uni0056;
unicode = 0056;
},
{
glyphname = uni0057;
layers = (
{
layerId = "25D77734-040B-4C95-BAE5-6EFF5F3D7B2E";
paths = (
{
closed = 1;
nodes = (
"876 0 LINE",
"1328 1632 LINE",
"1344 1632 LINE",
"1796 0 LINE",
"2052 0 LINE",
"2612 2048 LINE",
"2360 2048 LINE",
"1932 380 LINE",
"1912 380 LINE",
"1476 2048 LINE",
"1196 2048 LINE",
"760 380 LINE",
"740 380 LINE",
"312 2048 LINE",
"60 2048 LINE",
"620 0 LINE"
);
}
);
width = 2672;
}
);
leftKerningGroup = uni0057;
note = uni0057;
rightKerningGroup = uni0057;
unicode = 0057;
},
{
glyphname = uni0058;
layers = (
{
layerId = "25D77734-040B-4C95-BAE5-6EFF5F3D7B2E";
paths = (
{
closed = 1;
nodes = (
"76 2048 LINE",
"736 1024 LINE",
"76 0 LINE",
"368 0 LINE",
"896 836 LINE",
"912 836 LINE",
"1440 0 LINE",
"1732 0 LINE",
"1088 1024 LINE",
"1732 2048 LINE",
"1440 2048 LINE",
"912 1196 LINE",
"896 1196 LINE",
"368 2048 LINE"
);
}
);
width = 1808;
}
);
leftKerningGroup = uni0058;
note = uni0058;
rightKerningGroup = uni0058;
unicode = 0058;
},
{
glyphname = uni0059;
layers = (
{
layerId = "25D77734-040B-4C95-BAE5-6EFF5F3D7B2E";
paths = (
{
closed = 1;
nodes = (
"812 844 LINE",
"812 0 LINE",
"1060 0 LINE",
"1060 844 LINE",
"1800 2048 LINE",
"1516 2048 LINE",
"948 1092 LINE",
"924 1092 LINE",
"356 2048 LINE",
"72 2048 LINE"
);
}
);
width = 1872;
}
);
leftKerningGroup = uni0059;
note = uni0059;
rightKerningGroup = uni0059;
unicode = 0059;
},
{
glyphname = uni01B3;
layers = (
{
layerId = "25D77734-040B-4C95-BAE5-6EFF5F3D7B2E";
paths = (
{
closed = 1;
nodes = (
"1612 1740 LINE SMOOTH",
"1663 1830 OFFCURVE",
"1796 1862 OFFCURVE",
"1868 1832 QCURVE",
"1932 2032 LINE",
"1785 2101 OFFCURVE",
"1499 2009 OFFCURVE",
"1400 1844 QCURVE SMOOTH",
"1356 1772 LINE",
"952 1092 LINE",
"928 1092 LINE",
"360 2048 LINE",
"76 2048 LINE",
"816 844 LINE",
"816 0 LINE",
"1064 0 LINE",
"1064 844 LINE",
"1572 1672 LINE"
);
}
);
width = 1988;
}
);
leftKerningGroup = uni0059;
note = uni01B3;
rightKerningGroup = uni0059;
unicode = 01B3;
},
{
glyphname = uni024E;
layers = (
{
layerId = "25D77734-040B-4C95-BAE5-6EFF5F3D7B2E";
paths = (
{
closed = 1;
nodes = (
"1542 1628 LINE",
"1800 2048 LINE",
"1516 2048 LINE",
"1266 1628 LINE",
"606 1628 LINE",
"356 2048 LINE",
"72 2048 LINE",
"330 1628 LINE",
"8 1628 LINE",
"8 1464 LINE",
"431 1464 LINE",
"812 844 LINE",
"812 0 LINE",
"1060 0 LINE",
"1060 844 LINE",
"1441 1464 LINE",
"1872 1464 LINE",
"1872 1628 LINE"
);
},
{
closed = 1;
nodes = (
"1169 1464 LINE",
"948 1092 LINE",
"924 1092 LINE",
"703 1464 LINE"
);
}
);
width = 1880;
}
);
leftKerningGroup = uni0059;
note = uni024E;
rightKerningGroup = uni0059;
unicode = 024E;
},
{
glyphname = uni005A;
layers = (
{
layerId = "25D77734-040B-4C95-BAE5-6EFF5F3D7B2E";
paths = (
{
closed = 1;
nodes = (
"1592 0 LINE",
"1592 220 LINE",
"476 220 LINE",
"1580 1868 LINE",
"1580 2048 LINE",
"168 2048 LINE",
"168 1828 LINE",
"1284 1828 LINE",
"180 180 LINE",
"180 0 LINE"
);
}
);
width = 1760;
}
);
leftKerningGroup = uni005A;
note = uni005A;
rightKerningGroup = uni005A;
unicode = 005A;
},
{
glyphname = uni0224;
layers = (
{
layerId = "25D77734-040B-4C95-BAE5-6EFF5F3D7B2E";
paths = (
{
closed = 1;
nodes = (
"1305 0 OFFCURVE",
"1384 -141 OFFCURVE",
"1384 -228 QCURVE SMOOTH",
"1384 -304 LINE",
"1608 -304 LINE",
"1608 -184 LINE SMOOTH",
"1608 -4 OFFCURVE",
"1389 220 OFFCURVE",
"1200 220 QCURVE SMOOTH",
"476 220 LINE",
"1580 1868 LINE",
"1580 2048 LINE",
"168 2048 LINE",
"168 1828 LINE",
"1284 1828 LINE",
"180 180 LINE",
"180 0 LINE",
"1200 0 LINE SMOOTH"
);
}
);
width = 1760;
}
);
leftKerningGroup = uni005A;
note = uni0224;
rightKerningGroup = uni005A;
unicode = 0224;
},
{
glyphname = uni2C7F;
layers = (
{
layerId = "25D77734-040B-4C95-BAE5-6EFF5F3D7B2E";
paths = (
{
closed = 1;
nodes = (
"1457 -600 OFFCURVE",
"1583 -579 OFFCURVE",
"1616 -564 QCURVE",
"1616 -344 LINE",
"1577 -353 OFFCURVE",
"1489 -368 OFFCURVE",
"1432 -368 QCURVE SMOOTH",
"1344 -368 OFFCURVE",
"1192 -268 OFFCURVE",
"1036 -116 OFFCURVE",
"854 48 OFFCURVE",
"622 180 OFFCURVE",
"468 208 QCURVE",
"1580 1868 LINE",
"1580 2048 LINE",
"168 2048 LINE",
"168 1828 LINE",
"1284 1828 LINE",
"180 180 LINE",
"180 0 LINE",
"288 0 LINE SMOOTH",
"440 0 OFFCURVE",
"676 -121 OFFCURVE",
"874 -300 OFFCURVE",
"1060 -479 OFFCURVE",
"1263 -600 OFFCURVE",
"1388 -600 QCURVE SMOOTH"
);
}
);
width = 1760;
}
);
leftKerningGroup = uni005A;
note = uni2C7F;
rightKerningGroup = uni005A;
unicode = 2C7F;
},
{
glyphname = uni0061;
layers = (
{
layerId = "25D77734-040B-4C95-BAE5-6EFF5F3D7B2E";
paths = (
{
closed = 1;
nodes = (
"802 -36 OFFCURVE",
"988 44 OFFCURVE",
"1100 158 OFFCURVE",
"1124 208 QCURVE",
"1136 208 LINE",
"1136 0 LINE",
"1372 0 LINE",
"1372 1012 LINE SMOOTH",
"1372 1195 OFFCURVE",
"1252 1413 OFFCURVE",
"1071 1521 OFFCURVE",
"878 1556 OFFCURVE",
"804 1556 QCURVE SMOOTH",
"688 1556 OFFCURVE",
"449 1493 OFFCURVE",
"248 1336 OFFCURVE",
"188 1196 QCURVE",
"412 1116 LINE",
"451 1200 OFFCURVE",
"643 1348 OFFCURVE",
"812 1348 QCURVE SMOOTH",
"975 1348 OFFCURVE",
"1136 1184 OFFCURVE",
"1136 1036 QCURVE SMOOTH",
"1136 1028 LINE SMOOTH",
"1136 971 OFFCURVE",
"1055 925 OFFCURVE",
"880 906 OFFCURVE",
"740 888 QCURVE SMOOTH",
"633 874 OFFCURVE",
"422 827 OFFCURVE",
"248 733 OFFCURVE",
"144 568 OFFCURVE",
"144 436 QCURVE SMOOTH",
"144 286 OFFCURVE",
"284 75 OFFCURVE",
"522 -36 OFFCURVE",
"668 -36 QCURVE SMOOTH"
);
},
{
closed = 1;
nodes = (
"563 176 OFFCURVE",
"380 301 OFFCURVE",
"380 424 QCURVE SMOOTH",
"380 514 OFFCURVE",
"477 619 OFFCURVE",
"636 672 OFFCURVE",
"728 684 QCURVE SMOOTH",
"766 689 OFFCURVE",
"889 704 OFFCURVE",
"1020 725 OFFCURVE",
"1121 754 OFFCURVE",
"1136 772 QCURVE",
"1136 556 LINE SMOOTH",
"1136 460 OFFCURVE",
"1037 286 OFFCURVE",
"844 176 OFFCURVE",
"704 176 QCURVE SMOOTH"
);
}
);
width = 1588;
}
);
leftKerningGroup = uni0061;
note = uni0061;
rightKerningGroup = uni0061;
unicode = 0061;
},
{
glyphname = uni00E6;
layers = (
{
layerId = "25D77734-040B-4C95-BAE5-6EFF5F3D7B2E";
paths = (
{
closed = 1;
nodes = (
"2058 -32 OFFCURVE",
"2382 182 OFFCURVE",
"2436 356 QCURVE",
"2208 420 LINE",
"2163 300 OFFCURVE",
"1963 180 OFFCURVE",
"1824 180 QCURVE SMOOTH",
"1618 180 OFFCURVE",
"1353 442 OFFCURVE",
"1345 688 QCURVE",
"2460 688 LINE",
"2460 788 LINE SMOOTH",
"2460 1003 OFFCURVE",
"2346 1297 OFFCURVE",
"2154 1476 OFFCURVE",
"1920 1556 OFFCURVE",
"1800 1556 QCURVE SMOOTH",
"1636 1556 OFFCURVE",
"1388 1427 OFFCURVE",
"1306 1311 QCURVE",
"1248 1418 OFFCURVE",
"1067 1522 OFFCURVE",
"877 1556 OFFCURVE",
"804 1556 QCURVE SMOOTH",
"688 1556 OFFCURVE",
"449 1493 OFFCURVE",
"248 1336 OFFCURVE",
"188 1196 QCURVE",
"412 1116 LINE",
"451 1200 OFFCURVE",
"644 1348 OFFCURVE",
"812 1348 QCURVE SMOOTH",
"974 1348 OFFCURVE",
"1136 1183 OFFCURVE",
"1136 1036 QCURVE SMOOTH",
"1136 1028 LINE SMOOTH",
"1136 972 OFFCURVE",
"1055 926 OFFCURVE",
"880 906 OFFCURVE",
"740 888 QCURVE SMOOTH",
"634 875 OFFCURVE",
"422 828 OFFCURVE",
"249 733 OFFCURVE",
"144 568 OFFCURVE",
"144 436 QCURVE SMOOTH",
"144 286 OFFCURVE",
"284 75 OFFCURVE",
"522 -36 OFFCURVE",
"668 -36 QCURVE SMOOTH",
"802 -36 OFFCURVE",
"1037 50 OFFCURVE",
"1202 194 OFFCURVE",
"1232 280 QCURVE",
"1240 280 LINE",
"1312 137 OFFCURVE",
"1616 -32 OFFCURVE",
"1824 -32 QCURVE SMOOTH"
);
},
{
closed = 1;
nodes = (
"563 176 OFFCURVE",
"380 301 OFFCURVE",
"380 424 QCURVE SMOOTH",
"380 514 OFFCURVE",
"477 619 OFFCURVE",
"636 672 OFFCURVE",
"728 684 QCURVE SMOOTH",
"766 689 OFFCURVE",
"889 704 OFFCURVE",
"1020 725 OFFCURVE",
"1121 754 OFFCURVE",
"1136 772 QCURVE",
"1136 556 LINE SMOOTH",
"1136 460 OFFCURVE",
"1037 286 OFFCURVE",
"844 176 OFFCURVE",
"704 176 QCURVE SMOOTH"
);
},
{
closed = 1;
nodes = (
"1353 1011 OFFCURVE",
"1467 1217 OFFCURVE",
"1665 1344 OFFCURVE",
"1800 1344 QCURVE SMOOTH",
"1992 1344 OFFCURVE",
"2220 1087 OFFCURVE",
"2220 892 QCURVE",
"1345 892 LINE"
);
}
);
width = 2604;
}
);
leftKerningGroup = uni0061;
note = uni00E6;
rightKerningGroup = uni0250;
unicode = 00E6;
},
{
glyphname = uniE02C;
layers = (
{
layerId = "25D77734-040B-4C95-BAE5-6EFF5F3D7B2E";
paths = (
{
closed = 1;
nodes = (
"944 -32 OFFCURVE",
"1122 67 OFFCURVE",
"1218 194 OFFCURVE",
"1244 236 QCURVE",
"1272 236 LINE",
"1272 0 LINE",
"1500 0 LINE",
"1500 1536 LINE",
"1264 1536 LINE",
"1264 1292 LINE",
"1244 1292 LINE",
"1218 1332 OFFCURVE",
"1125 1457 OFFCURVE",
"950 1556 OFFCURVE",
"800 1556 QCURVE SMOOTH",
"606 1556 OFFCURVE",
"310 1362 OFFCURVE",
"144 1006 OFFCURVE",
"144 764 QCURVE SMOOTH",
"144 520 OFFCURVE",
"310 163 OFFCURVE",
"604 -32 OFFCURVE",
"796 -32 QCURVE SMOOTH"
);
},
{
closed = 1;
nodes = (
"680 180 OFFCURVE",
"481 337 OFFCURVE",
"380 604 OFFCURVE",
"380 768 QCURVE SMOOTH",
"380 930 OFFCURVE",
"479 1191 OFFCURVE",
"678 1344 OFFCURVE",
"828 1344 QCURVE SMOOTH",
"1044 1344 OFFCURVE",
"1268 1026 OFFCURVE",
"1268 768 QCURVE SMOOTH",
"1268 507 OFFCURVE",
"1041 180 OFFCURVE",
"828 180 QCURVE SMOOTH"
);
}
);
width = 1748;
}
);
leftKerningGroup = uniE02C;
note = uniE02C;
rightKerningGroup = uni01F6;
unicode = E02C;
},
{
glyphname = uni0062;
layers = (
{
layerId = "25D77734-040B-4C95-BAE5-6EFF5F3D7B2E";
paths = (
{
closed = 1;
nodes = (
"476 0 LINE",
"476 236 LINE",
"504 236 LINE",
"530 194 OFFCURVE",
"626 67 OFFCURVE",
"804 -32 OFFCURVE",
"952 -32 QCURVE SMOOTH",
"1144 -32 OFFCURVE",
"1438 163 OFFCURVE",
"1604 520 OFFCURVE",
"1604 764 QCURVE SMOOTH",
"1604 1006 OFFCURVE",
"1438 1362 OFFCURVE",
"1142 1556 OFFCURVE",
"948 1556 QCURVE SMOOTH",
"798 1556 OFFCURVE",
"623 1457 OFFCURVE",
"530 1332 OFFCURVE",
"504 1292 QCURVE",
"484 1292 LINE",
"484 2048 LINE",
"248 2048 LINE",
"248 0 LINE"
);
},
{
closed = 1;
nodes = (
"480 1026 OFFCURVE",
"704 1344 OFFCURVE",
"920 1344 QCURVE SMOOTH",
"1070 1344 OFFCURVE",
"1269 1191 OFFCURVE",
"1368 930 OFFCURVE",
"1368 768 QCURVE SMOOTH",
"1368 604 OFFCURVE",
"1267 337 OFFCURVE",
"1068 180 OFFCURVE",
"920 180 QCURVE SMOOTH",
"707 180 OFFCURVE",
"480 507 OFFCURVE",
"480 768 QCURVE SMOOTH"
);
}
);
width = 1748;
}
);
leftKerningGroup = uni0042;
note = uni0062;
rightKerningGroup = uni0062;
unicode = 0062;
},
{
glyphname = uni0183;
layers = (
{
layerId = "25D77734-040B-4C95-BAE5-6EFF5F3D7B2E";
paths = (
{
closed = 1;
nodes = (
"248 2048 LINE",
"248 0 LINE",
"476 0 LINE",
"476 236 LINE",
"504 236 LINE",
"530 194 OFFCURVE",
"626 67 OFFCURVE",
"804 -32 OFFCURVE",
"952 -32 QCURVE SMOOTH",
"1144 -32 OFFCURVE",
"1438 163 OFFCURVE",
"1604 520 OFFCURVE",
"1604 764 QCURVE SMOOTH",
"1604 1006 OFFCURVE",
"1438 1362 OFFCURVE",
"1142 1556 OFFCURVE",
"948 1556 QCURVE SMOOTH",
"798 1556 OFFCURVE",
"623 1457 OFFCURVE",
"530 1332 OFFCURVE",
"504 1292 QCURVE",
"484 1292 LINE",
"484 1828 LINE",
"1400 1828 LINE",
"1400 2048 LINE"
);
},
{
closed = 1;
nodes = (
"480 1026 OFFCURVE",
"704 1344 OFFCURVE",
"920 1344 QCURVE SMOOTH",
"1070 1344 OFFCURVE",
"1269 1191 OFFCURVE",
"1368 930 OFFCURVE",
"1368 768 QCURVE SMOOTH",
"1368 604 OFFCURVE",
"1267 337 OFFCURVE",
"1068 180 OFFCURVE",
"920 180 QCURVE SMOOTH",
"707 180 OFFCURVE",
"480 507 OFFCURVE",
"480 768 QCURVE SMOOTH"
);
}
);
width = 1748;
}
);
leftKerningGroup = uni0042;
note = uni0183;
rightKerningGroup = uni0062;
unicode = 0183;
},
{
glyphname = uni0253;
layers = (
{
layerId = "25D77734-040B-4C95-BAE5-6EFF5F3D7B2E";
paths = (
{
closed = 1;
nodes = (
"444 0 LINE",
"444 236 LINE",
"472 236 LINE",
"498 194 OFFCURVE",
"594 67 OFFCURVE",
"772 -32 OFFCURVE",
"920 -32 QCURVE SMOOTH",
"1112 -32 OFFCURVE",
"1406 163 OFFCURVE",
"1572 520 OFFCURVE",
"1572 764 QCURVE SMOOTH",
"1572 1006 OFFCURVE",
"1406 1362 OFFCURVE",
"1110 1556 OFFCURVE",
"916 1556 QCURVE SMOOTH",
"766 1556 OFFCURVE",
"591 1457 OFFCURVE",
"498 1332 OFFCURVE",
"472 1292 QCURVE",
"452 1292 LINE",
"452 1664 LINE SMOOTH",
"452 1784 OFFCURVE",
"580 1872 OFFCURVE",
"676 1872 QCURVE SMOOTH",
"697 1872 OFFCURVE",
"737 1867 OFFCURVE",
"752 1864 QCURVE",
"752 2064 LINE",
"725 2073 OFFCURVE",
"652 2076 OFFCURVE",
"616 2076 QCURVE SMOOTH",
"448 2076 OFFCURVE",
"216 1862 OFFCURVE",
"216 1664 QCURVE SMOOTH",
"216 0 LINE"
);
},
{
closed = 1;
nodes = (
"675 180 OFFCURVE",
"448 507 OFFCURVE",
"448 768 QCURVE SMOOTH",
"448 1026 OFFCURVE",
"672 1344 OFFCURVE",
"888 1344 QCURVE SMOOTH",
"1038 1344 OFFCURVE",
"1237 1191 OFFCURVE",
"1336 930 OFFCURVE",
"1336 768 QCURVE SMOOTH",
"1336 604 OFFCURVE",
"1235 337 OFFCURVE",
"1036 180 OFFCURVE",
"888 180 QCURVE SMOOTH"
);
}
);
width = 1716;
}
);
leftKerningGroup = uni0042;
note = uni0253;
rightKerningGroup = uni0062;
unicode = 0253;
},
{
glyphname = uni0063;
layers = (
{
layerId = "25D77734-040B-4C95-BAE5-6EFF5F3D7B2E";
paths = (
{
closed = 1;
nodes = (
"1010 -32 OFFCURVE",
"1267 95 OFFCURVE",
"1424 312 OFFCURVE",
"1444 448 QCURVE",
"1208 448 LINE",
"1175 322 OFFCURVE",
"978 180 OFFCURVE",
"840 180 QCURVE SMOOTH",
"630 180 OFFCURVE",
"380 501 OFFCURVE",
"380 768 QCURVE SMOOTH",
"380 1029 OFFCURVE",
"633 1344 OFFCURVE",
"840 1344 QCURVE SMOOTH",
"996 1344 OFFCURVE",
"1181 1181 OFFCURVE",
"1208 1076 QCURVE",
"1444 1076 LINE",
"1424 1220 OFFCURVE",
"1258 1436 OFFCURVE",
"998 1556 OFFCURVE",
"836 1556 QCURVE SMOOTH",
"628 1556 OFFCURVE",
"317 1353 OFFCURVE",
"144 994 OFFCURVE",
"144 760 QCURVE SMOOTH",
"144 530 OFFCURVE",
"312 172 OFFCURVE",
"624 -32 OFFCURVE",
"840 -32 QCURVE SMOOTH"
);
}
);
width = 1572;
}
);
leftKerningGroup = uniE02C;
note = uni0063;
rightKerningGroup = uni0063;
unicode = 0063;
},
{
glyphname = uni023C;
layers = (
{
layerId = "25D77734-040B-4C95-BAE5-6EFF5F3D7B2E";
paths = (
{
closed = 1;
nodes = (
"1236 2048 LINE",
"1029 1531 LINE",
"937 1556 OFFCURVE",
"836 1556 QCURVE SMOOTH",
"628 1556 OFFCURVE",
"317 1353 OFFCURVE",
"144 994 OFFCURVE",
"144 760 QCURVE SMOOTH",
"144 537 OFFCURVE",
"303 185 OFFCURVE",
"449 84 QCURVE",
"184 -576 LINE",
"376 -576 LINE",
"608 4 LINE",
"716 -32 OFFCURVE",
"840 -32 QCURVE SMOOTH",
"1010 -32 OFFCURVE",
"1267 95 OFFCURVE",
"1424 312 OFFCURVE",
"1444 448 QCURVE",
"1208 448 LINE",
"1175 322 OFFCURVE",
"978 180 OFFCURVE",
"840 180 QCURVE SMOOTH",
"759 180 OFFCURVE",
"688 206 QCURVE",
"1105 1249 LINE",
"1182 1178 OFFCURVE",
"1208 1076 QCURVE",
"1444 1076 LINE",
"1426 1202 OFFCURVE",
"1294 1400 OFFCURVE",
"1190 1463 QCURVE",
"1424 2048 LINE"
);
},
{
closed = 1;
nodes = (
"537 304 LINE",
"380 465 OFFCURVE",
"380 768 QCURVE SMOOTH",
"380 1029 OFFCURVE",
"633 1344 OFFCURVE",
"840 1344 QCURVE SMOOTH",
"897 1344 OFFCURVE",
"949 1331 QCURVE"
);
}
);
width = 1572;
}
);
leftKerningGroup = uniE02C;
note = uni023C;
rightKerningGroup = uni0063;
unicode = 023C;
},
{
glyphname = uni0188;
layers = (
{
layerId = "25D77734-040B-4C95-BAE5-6EFF5F3D7B2E";
paths = (
{
closed = 1;
nodes = (
"1444 1276 LINE SMOOTH",
"1444 1396 OFFCURVE",
"1572 1484 OFFCURVE",
"1668 1484 QCURVE SMOOTH",
"1689 1484 OFFCURVE",
"1729 1479 OFFCURVE",
"1744 1476 QCURVE",
"1744 1676 LINE",
"1717 1685 OFFCURVE",
"1644 1688 OFFCURVE",
"1608 1688 QCURVE SMOOTH",
"1477 1688 OFFCURVE",
"1275 1558 OFFCURVE",
"1233 1435 QCURVE",
"1068 1556 OFFCURVE",
"836 1556 QCURVE SMOOTH",
"628 1556 OFFCURVE",
"317 1353 OFFCURVE",
"144 994 OFFCURVE",
"144 760 QCURVE SMOOTH",
"144 530 OFFCURVE",
"312 172 OFFCURVE",
"624 -32 OFFCURVE",
"840 -32 QCURVE SMOOTH",
"1010 -32 OFFCURVE",
"1267 95 OFFCURVE",
"1424 312 OFFCURVE",
"1444 448 QCURVE",
"1208 448 LINE",
"1175 322 OFFCURVE",
"978 180 OFFCURVE",
"840 180 QCURVE SMOOTH",
"630 180 OFFCURVE",
"380 501 OFFCURVE",
"380 768 QCURVE SMOOTH",
"380 1029 OFFCURVE",
"633 1344 OFFCURVE",
"840 1344 QCURVE SMOOTH",
"996 1344 OFFCURVE",
"1181 1181 OFFCURVE",
"1208 1076 QCURVE",
"1444 1076 LINE"
);
}
);
width = 1720;
}
);
leftKerningGroup = uniE02C;
note = uni0188;
rightKerningGroup = uni0063;
unicode = 0188;
},
{
glyphname = uni0255;
layers = (
{
layerId = "25D77734-040B-4C95-BAE5-6EFF5F3D7B2E";
paths = (
{
closed = 1;
nodes = (
"998 -32 OFFCURVE",
"1256 77 OFFCURVE",
"1408 278 OFFCURVE",
"1408 416 QCURVE SMOOTH",
"1408 566 OFFCURVE",
"1213 760 OFFCURVE",
"1012 760 QCURVE SMOOTH",
"841 760 OFFCURVE",
"539 621 OFFCURVE",
"413 523 QCURVE",
"380 634 OFFCURVE",
"380 768 QCURVE SMOOTH",
"380 1029 OFFCURVE",
"633 1344 OFFCURVE",
"840 1344 QCURVE SMOOTH",
"996 1344 OFFCURVE",
"1181 1181 OFFCURVE",
"1208 1076 QCURVE",
"1444 1076 LINE",
"1424 1220 OFFCURVE",
"1258 1436 OFFCURVE",
"998 1556 OFFCURVE",
"836 1556 QCURVE SMOOTH",
"628 1556 OFFCURVE",
"317 1354 OFFCURVE",
"144 998 OFFCURVE",
"144 768 QCURVE SMOOTH",
"144 537 OFFCURVE",
"226 357 QCURVE",
"146 277 OFFCURVE",
"22 135 OFFCURVE",
"-20 92 QCURVE",
"144 -52 LINE",
"175 -21 OFFCURVE",
"286 95 OFFCURVE",
"357 163 QCURVE",
"446 70 OFFCURVE",
"690 -32 OFFCURVE",
"840 -32 QCURVE SMOOTH"
);
},
{
closed = 1;
nodes = (
"643 411 OFFCURVE",
"895 552 OFFCURVE",
"1008 552 QCURVE SMOOTH",
"1059 552 OFFCURVE",
"1168 483 OFFCURVE",
"1168 408 QCURVE SMOOTH",
"1168 309 OFFCURVE",
"978 180 OFFCURVE",
"840 180 QCURVE SMOOTH",
"649 180 OFFCURVE",
"526 315 QCURVE"
);
}
);
width = 1572;
}
);
leftKerningGroup = uniE02C;
note = uni0255;
rightKerningGroup = uni0063;
unicode = 0255;
},
{
glyphname = uni0064;
layers = (
{
layerId = "25D77734-040B-4C95-BAE5-6EFF5F3D7B2E";
paths = (
{
closed = 1;
nodes = (
"944 -32 OFFCURVE",
"1122 67 OFFCURVE",
"1218 194 OFFCURVE",
"1244 236 QCURVE",
"1272 236 LINE",
"1272 0 LINE",
"1500 0 LINE",
"1500 2048 LINE",
"1264 2048 LINE",
"1264 1292 LINE",
"1244 1292 LINE",
"1218 1332 OFFCURVE",
"1125 1457 OFFCURVE",
"950 1556 OFFCURVE",
"800 1556 QCURVE SMOOTH",
"606 1556 OFFCURVE",
"310 1362 OFFCURVE",
"144 1006 OFFCURVE",
"144 764 QCURVE SMOOTH",
"144 520 OFFCURVE",
"310 163 OFFCURVE",
"604 -32 OFFCURVE",
"796 -32 QCURVE SMOOTH"
);
},
{
closed = 1;
nodes = (
"680 180 OFFCURVE",
"481 337 OFFCURVE",
"380 604 OFFCURVE",
"380 768 QCURVE SMOOTH",
"380 930 OFFCURVE",
"479 1191 OFFCURVE",
"678 1344 OFFCURVE",
"828 1344 QCURVE SMOOTH",
"1044 1344 OFFCURVE",
"1268 1026 OFFCURVE",
"1268 768 QCURVE SMOOTH",
"1268 507 OFFCURVE",
"1041 180 OFFCURVE",
"828 180 QCURVE SMOOTH"
);
}
);
width = 1748;
}
);
leftKerningGroup = uniE02C;
note = uni0064;
rightKerningGroup = uni018E;
unicode = 0064;
},
{
glyphname = uni0256;
layers = (
{
layerId = "25D77734-040B-4C95-BAE5-6EFF5F3D7B2E";
paths = (
{
closed = 1;
nodes = (
"1700 -576 OFFCURVE",
"1773 -573 OFFCURVE",
"1800 -564 QCURVE",
"1800 -364 LINE",
"1785 -367 OFFCURVE",
"1745 -372 OFFCURVE",
"1724 -372 QCURVE SMOOTH",
"1628 -372 OFFCURVE",
"1500 -284 OFFCURVE",
"1500 -164 QCURVE SMOOTH",
"1500 2048 LINE",
"1264 2048 LINE",
"1264 1292 LINE",
"1244 1292 LINE",
"1218 1332 OFFCURVE",
"1125 1457 OFFCURVE",
"950 1556 OFFCURVE",
"800 1556 QCURVE SMOOTH",
"606 1556 OFFCURVE",
"310 1362 OFFCURVE",
"144 1006 OFFCURVE",
"144 764 QCURVE SMOOTH",
"144 520 OFFCURVE",
"310 163 OFFCURVE",
"604 -32 OFFCURVE",
"796 -32 QCURVE SMOOTH",
"944 -32 OFFCURVE",
"1122 67 OFFCURVE",
"1218 194 OFFCURVE",
"1244 236 QCURVE",
"1264 236 LINE",
"1264 -164 LINE SMOOTH",
"1264 -362 OFFCURVE",
"1496 -576 OFFCURVE",
"1664 -576 QCURVE SMOOTH"
);
},
{
closed = 1;
nodes = (
"680 180 OFFCURVE",
"481 337 OFFCURVE",
"380 604 OFFCURVE",
"380 768 QCURVE SMOOTH",
"380 930 OFFCURVE",
"479 1191 OFFCURVE",
"678 1344 OFFCURVE",
"828 1344 QCURVE SMOOTH",
"1044 1344 OFFCURVE",
"1268 1026 OFFCURVE",
"1268 768 QCURVE SMOOTH",
"1268 507 OFFCURVE",
"1041 180 OFFCURVE",
"828 180 QCURVE SMOOTH"
);
}
);
width = 1716;
}
);
leftKerningGroup = uniE02C;
note = uni0256;
rightKerningGroup = uni0256;
unicode = 0256;
},
{
glyphname = uni0257;
layers = (
{
layerId = "25D77734-040B-4C95-BAE5-6EFF5F3D7B2E";
paths = (
{
closed = 1;
nodes = (
"944 -32 OFFCURVE",
"1122 67 OFFCURVE",
"1218 194 OFFCURVE",
"1244 236 QCURVE",
"1272 236 LINE",
"1272 0 LINE",
"1500 0 LINE",
"1500 1672 LINE SMOOTH",
"1500 1792 OFFCURVE",
"1632 1868 OFFCURVE",
"1728 1868 QCURVE SMOOTH",
"1743 1868 OFFCURVE",
"1789 1866 OFFCURVE",
"1804 1860 QCURVE",
"1804 2064 LINE",
"1777 2073 OFFCURVE",
"1701 2080 OFFCURVE",
"1668 2080 QCURVE SMOOTH",
"1497 2080 OFFCURVE",
"1264 1870 OFFCURVE",
"1264 1672 QCURVE SMOOTH",
"1264 1292 LINE",
"1244 1292 LINE",
"1218 1332 OFFCURVE",
"1125 1457 OFFCURVE",
"950 1556 OFFCURVE",
"800 1556 QCURVE SMOOTH",
"606 1556 OFFCURVE",
"310 1362 OFFCURVE",
"144 1006 OFFCURVE",
"144 764 QCURVE SMOOTH",
"144 520 OFFCURVE",
"310 163 OFFCURVE",
"604 -32 OFFCURVE",
"796 -32 QCURVE SMOOTH"
);
},
{
closed = 1;
nodes = (
"680 180 OFFCURVE",
"481 337 OFFCURVE",
"380 604 OFFCURVE",
"380 768 QCURVE SMOOTH",
"380 930 OFFCURVE",
"479 1191 OFFCURVE",
"678 1344 OFFCURVE",
"828 1344 QCURVE SMOOTH",
"1044 1344 OFFCURVE",
"1268 1026 OFFCURVE",
"1268 768 QCURVE SMOOTH",
"1268 507 OFFCURVE",
"1041 180 OFFCURVE",
"828 180 QCURVE SMOOTH"
);
}
);
width = 1732;
}
);
leftKerningGroup = uniE02C;
note = uni0257;
unicode = 0257;
},
{
glyphname = uni0221;
layers = (
{
layerId = "25D77734-040B-4C95-BAE5-6EFF5F3D7B2E";
paths = (
{
closed = 1;
nodes = (
"944 -32 OFFCURVE",
"1122 67 OFFCURVE",
"1218 194 OFFCURVE",
"1244 236 QCURVE",
"1264 236 LINE",
"1264 -48 LINE",
"952 -368 LINE",
"1104 -524 LINE",
"1298 -328 LINE",
"1338 -431 OFFCURVE",
"1527 -576 OFFCURVE",
"1688 -576 QCURVE SMOOTH",
"1874 -576 OFFCURVE",
"2092 -374 OFFCURVE",
"2092 -212 QCURVE SMOOTH",
"2092 -47 OFFCURVE",
"1873 152 OFFCURVE",
"1708 152 QCURVE SMOOTH",
"1605 152 OFFCURVE",
"1500 110 QCURVE",
"1500 336 LINE",
"1500 2048 LINE",
"1264 2048 LINE",
"1264 1292 LINE",
"1244 1292 LINE",
"1218 1332 OFFCURVE",
"1125 1457 OFFCURVE",
"950 1556 OFFCURVE",
"800 1556 QCURVE SMOOTH",
"606 1556 OFFCURVE",
"310 1362 OFFCURVE",
"144 1006 OFFCURVE",
"144 764 QCURVE SMOOTH",
"144 520 OFFCURVE",
"310 163 OFFCURVE",
"604 -32 OFFCURVE",
"796 -32 QCURVE SMOOTH"
);
},
{
closed = 1;
nodes = (
"680 180 OFFCURVE",
"481 337 OFFCURVE",
"380 604 OFFCURVE",
"380 768 QCURVE SMOOTH",
"380 930 OFFCURVE",
"479 1191 OFFCURVE",
"678 1344 OFFCURVE",
"828 1344 QCURVE SMOOTH",
"1044 1344 OFFCURVE",
"1268 1026 OFFCURVE",
"1268 768 QCURVE SMOOTH",
"1268 507 OFFCURVE",
"1041 180 OFFCURVE",
"828 180 QCURVE SMOOTH"
);
},
{
closed = 1;
nodes = (
"1542 -88 OFFCURVE",
"1648 -45 OFFCURVE",
"1712 -56 QCURVE SMOOTH",
"1775 -65 OFFCURVE",
"1848 -149 OFFCURVE",
"1848 -212 QCURVE SMOOTH",
"1848 -281 OFFCURVE",
"1760 -372 OFFCURVE",
"1688 -372 QCURVE SMOOTH",
"1613 -372 OFFCURVE",
"1500 -266 OFFCURVE",
"1500 -164 QCURVE SMOOTH",
"1500 -125 LINE"
);
}
);
width = 2024;
}
);
leftKerningGroup = uniE02C;
note = uni0221;
unicode = 0221;
},
{
glyphname = uni02A4;
layers = (
{
layerId = "25D77734-040B-4C95-BAE5-6EFF5F3D7B2E";
paths = (
{
closed = 1;
nodes = (
"1500 1316 LINE",
"2216 1316 LINE",
"1696 600 LINE",
"1696 384 LINE",
"1896 384 LINE SMOOTH",
"2046 384 OFFCURVE",
"2251 267 OFFCURVE",
"2356 84 OFFCURVE",
"2356 -16 QCURVE SMOOTH",
"2356 -118 OFFCURVE",
"2250 -297 OFFCURVE",
"2058 -408 OFFCURVE",
"1928 -408 QCURVE SMOOTH",
"1760 -408 OFFCURVE",
"1529 -242 OFFCURVE",
"1508 -128 QCURVE",
"1280 -128 LINE",
"1306 -300 OFFCURVE",
"1494 -507 OFFCURVE",
"1770 -600 OFFCURVE",
"1928 -600 QCURVE SMOOTH",
"2126 -600 OFFCURVE",
"2423 -456 OFFCURVE",
"2588 -192 OFFCURVE",
"2588 -12 QCURVE SMOOTH",
"2588 237 OFFCURVE",
"2271 574 OFFCURVE",
"1968 592 QCURVE",
"2540 1368 LINE",
"2536 1536 LINE",
"1500 1536 LINE",
"1500 2048 LINE",
"1264 2048 LINE",
"1264 1292 LINE",
"1248 1292 LINE",
"1222 1332 OFFCURVE",
"1127 1457 OFFCURVE",
"950 1556 OFFCURVE",
"800 1556 QCURVE SMOOTH",
"606 1556 OFFCURVE",
"310 1362 OFFCURVE",
"144 1006 OFFCURVE",
"144 764 QCURVE SMOOTH",
"144 520 OFFCURVE",
"310 163 OFFCURVE",
"604 -32 OFFCURVE",
"796 -32 QCURVE SMOOTH",
"944 -32 OFFCURVE",
"1124 67 OFFCURVE",
"1222 194 OFFCURVE",
"1248 236 QCURVE",
"1272 236 LINE",
"1272 0 LINE",
"1500 0 LINE"
);
},
{
closed = 1;
nodes = (
"380 930 OFFCURVE",
"479 1191 OFFCURVE",
"678 1344 OFFCURVE",
"828 1344 QCURVE SMOOTH",
"1044 1344 OFFCURVE",
"1268 1026 OFFCURVE",
"1268 768 QCURVE SMOOTH",
"1268 507 OFFCURVE",
"1041 180 OFFCURVE",
"828 180 QCURVE SMOOTH",
"680 180 OFFCURVE",
"481 337 OFFCURVE",
"380 604 OFFCURVE",
"380 768 QCURVE SMOOTH"
);
}
);
width = 2692;
}
);
leftKerningGroup = uniE02C;
note = uni02A4;
unicode = 02A4;
},
{
glyphname = uni0065;
layers = (
{
layerId = "25D77734-040B-4C95-BAE5-6EFF5F3D7B2E";
paths = (
{
closed = 1;
nodes = (
"1094 -32 OFFCURVE",
"1418 182 OFFCURVE",
"1472 356 QCURVE",
"1244 420 LINE",
"1199 300 OFFCURVE",
"999 180 OFFCURVE",
"860 180 QCURVE SMOOTH",
"652 180 OFFCURVE",
"389 442 OFFCURVE",
"381 688 QCURVE",
"1496 688 LINE",
"1496 788 LINE SMOOTH",
"1496 1003 OFFCURVE",
"1382 1297 OFFCURVE",
"1190 1476 OFFCURVE",
"956 1556 OFFCURVE",
"836 1556 QCURVE SMOOTH",
"628 1556 OFFCURVE",
"317 1353 OFFCURVE",
"144 992 OFFCURVE",
"144 756 QCURVE SMOOTH",
"144 520 OFFCURVE",
"317 165 OFFCURVE",
"638 -32 OFFCURVE",
"860 -32 QCURVE SMOOTH"
);
},
{
closed = 1;
nodes = (
"389 1011 OFFCURVE",
"503 1218 OFFCURVE",
"701 1344 OFFCURVE",
"836 1344 QCURVE SMOOTH",
"1028 1344 OFFCURVE",
"1256 1087 OFFCURVE",
"1256 892 QCURVE",
"381 892 LINE"
);
}
);
width = 1640;
}
);
leftKerningGroup = uniE02C;
note = uni0065;
rightKerningGroup = uni0250;
unicode = 0065;
},
{
glyphname = uni0247;
layers = (
{
layerId = "25D77734-040B-4C95-BAE5-6EFF5F3D7B2E";
paths = (
{
closed = 1;
nodes = (
"1236 2048 LINE",
"1029 1531 LINE",
"937 1556 OFFCURVE",
"836 1556 QCURVE SMOOTH",
"628 1556 OFFCURVE",
"317 1353 OFFCURVE",
"144 992 OFFCURVE",
"144 756 QCURVE SMOOTH",
"144 531 OFFCURVE",
"303 185 OFFCURVE",
"449 85 QCURVE",
"184 -576 LINE",
"376 -576 LINE",
"609 7 LINE",
"725 -32 OFFCURVE",
"860 -32 QCURVE SMOOTH",
"1094 -32 OFFCURVE",
"1418 182 OFFCURVE",
"1472 356 QCURVE",
"1244 420 LINE",
"1199 300 OFFCURVE",
"999 180 OFFCURVE",
"860 180 QCURVE SMOOTH",
"767 180 OFFCURVE",
"688 206 QCURVE",
"881 688 LINE",
"1496 688 LINE",
"1496 788 LINE SMOOTH",
"1496 1054 OFFCURVE",
"1321 1380 OFFCURVE",
"1190 1461 QCURVE",
"1424 2048 LINE"
);
},
{
closed = 1;
nodes = (
"381 892 LINE",
"389 1011 OFFCURVE",
"503 1218 OFFCURVE",
"701 1344 OFFCURVE",
"836 1344 QCURVE SMOOTH",
"895 1344 OFFCURVE",
"948 1331 QCURVE",
"773 892 LINE"
);
},
{
closed = 1;
nodes = (
"534 298 LINE",
"465 362 OFFCURVE",
"385 558 OFFCURVE",
"381 688 QCURVE",
"691 688 LINE"
);
},
{
closed = 1;
nodes = (
"1256 1123 OFFCURVE",
"1256 892 QCURVE",
"962 892 LINE",
"1106 1251 LINE"
);
}
);
width = 1640;
}
);
leftKerningGroup = uniE02C;
note = uni0247;
rightKerningGroup = uni0250;
unicode = 0247;
},
{
glyphname = uni0066;
lastChange = "2019-07-09 20:14:54 +0000";
layers = (
{
layerId = "25D77734-040B-4C95-BAE5-6EFF5F3D7B2E";
paths = (
{
closed = 1;
nodes = (
"556 1536 LINE",
"556 1692 LINE SMOOTH",
"556 1806 OFFCURVE",
"659 1924 OFFCURVE",
"776 1924 QCURVE SMOOTH",
"827 1924 OFFCURVE",
"890 1906 OFFCURVE",
"908 1900 QCURVE",
"976 2104 LINE",
"949 2116 OFFCURVE",
"839 2144 OFFCURVE",
"752 2144 QCURVE SMOOTH",
"642 2144 OFFCURVE",
"444 2056 OFFCURVE",
"320 1880 OFFCURVE",
"320 1748 QCURVE SMOOTH",
"320 1536 LINE",
"72 1536 LINE",
"72 1336 LINE",
"320 1336 LINE",
"320 0 LINE",
"556 0 LINE",
"556 1336 LINE",
"900 1336 LINE",
"900 1536 LINE"
);
}
);
width = 1016;
},
{
associatedMasterId = "25D77734-040B-4C95-BAE5-6EFF5F3D7B2E";
layerId = "23223B21-904B-4623-AD80-D449E08CE36A";
name = "Jul 9 19, 16:11";
paths = (
{
closed = 1;
nodes = (
"556 1536 LINE",
"556 1692 LINE SMOOTH",
"556 1806 OFFCURVE",
"659 1924 OFFCURVE",
"776 1924 QCURVE SMOOTH",
"827 1924 OFFCURVE",
"890 1906 OFFCURVE",
"908 1900 QCURVE",
"976 2104 LINE",
"949 2116 OFFCURVE",
"839 2144 OFFCURVE",
"752 2144 QCURVE SMOOTH",
"642 2144 OFFCURVE",
"444 2056 OFFCURVE",
"320 1880 OFFCURVE",
"320 1748 QCURVE SMOOTH",
"320 1536 LINE",
"72 1536 LINE",
"72 1336 LINE",
"320 1336 LINE",
"320 0 LINE",
"556 0 LINE",
"556 1336 LINE",
"900 1336 LINE",
"900 1536 LINE"
);
}
);
width = 1016;
}
);
leftKerningGroup = uni0066;
note = uni0066;
rightKerningGroup = uni0066;
unicode = 0066;
},
{
glyphname = uni1E9C;
layers = (
{
layerId = "25D77734-040B-4C95-BAE5-6EFF5F3D7B2E";
paths = (
{
closed = 1;
nodes = (
"252 1112 LINE",
"252 0 LINE",
"488 0 LINE",
"488 1202 LINE",
"748 1300 LINE",
"748 1536 LINE",
"488 1438 LINE",
"488 1692 LINE SMOOTH",
"488 1806 OFFCURVE",
"591 1924 OFFCURVE",
"708 1924 QCURVE SMOOTH",
"759 1924 OFFCURVE",
"822 1906 OFFCURVE",
"840 1900 QCURVE",
"908 2104 LINE",
"881 2116 OFFCURVE",
"771 2144 OFFCURVE",
"684 2144 QCURVE SMOOTH",
"574 2144 OFFCURVE",
"376 2056 OFFCURVE",
"252 1880 OFFCURVE",
"252 1748 QCURVE SMOOTH",
"252 1348 LINE",
"72 1280 LINE",
"72 1044 LINE"
);
}
);
width = 948;
}
);
leftKerningGroup = uni0066;
note = uni1E9C;
rightKerningGroup = uni0066;
unicode = 1E9C;
},
{
glyphname = uni0067;
lastChange = "2019-07-09 22:27:11 +0000";
layers = (
{
layerId = "25D77734-040B-4C95-BAE5-6EFF5F3D7B2E";
paths = (
{
closed = 1;
nodes = (
"1020 -608 OFFCURVE",
"1321 -491 OFFCURVE",
"1500 -242 OFFCURVE",
"1500 -44 QCURVE SMOOTH",
"1500 1536 LINE",
"1272 1536 LINE",
"1272 1292 LINE",
"1248 1292 LINE",
"1222 1332 OFFCURVE",
"1127 1457 OFFCURVE",
"950 1556 OFFCURVE",
"800 1556 QCURVE SMOOTH",
"606 1556 OFFCURVE",
"310 1363 OFFCURVE",
"144 1012 OFFCURVE",
"144 776 QCURVE SMOOTH",
"144 536 OFFCURVE",
"315 200 OFFCURVE",
"610 24 OFFCURVE",
"796 24 QCURVE SMOOTH",
"946 24 OFFCURVE",
"1123 119 OFFCURVE",
"1218 242 OFFCURVE",
"1244 284 QCURVE",
"1264 284 LINE",
"1264 -28 LINE SMOOTH",
"1264 -220 OFFCURVE",
"1014 -400 OFFCURVE",
"836 -400 QCURVE SMOOTH",
"471 -400 OFFCURVE",
"347 -400 QCURVE",
"347 -608 LINE",
"480 -608 OFFCURVE",
"836 -608 QCURVE SMOOTH"
);
},
{
closed = 1;
nodes = (
"606 236 OFFCURVE",
"380 540 OFFCURVE",
"380 780 QCURVE SMOOTH",
"380 936 OFFCURVE",
"479 1192 OFFCURVE",
"678 1344 OFFCURVE",
"828 1344 QCURVE SMOOTH",
"1044 1344 OFFCURVE",
"1268 1029 OFFCURVE",
"1268 780 QCURVE SMOOTH",
"1268 525 OFFCURVE",
"1041 236 OFFCURVE",
"828 236 QCURVE SMOOTH"
);
}
);
width = 1716;
},
{
associatedMasterId = "25D77734-040B-4C95-BAE5-6EFF5F3D7B2E";
layerId = "8E5187C8-EFE9-4EFA-9238-16C80D47C106";
name = "Jul 9 19, 18:24";
paths = (
{
closed = 1;
nodes = (
"1020 -608 OFFCURVE",
"1321 -491 OFFCURVE",
"1500 -242 OFFCURVE",
"1500 -44 QCURVE SMOOTH",
"1500 1536 LINE",
"1272 1536 LINE",
"1272 1292 LINE",
"1248 1292 LINE",
"1222 1332 OFFCURVE",
"1127 1457 OFFCURVE",
"950 1556 OFFCURVE",
"800 1556 QCURVE SMOOTH",
"606 1556 OFFCURVE",
"310 1363 OFFCURVE",
"144 1012 OFFCURVE",
"144 776 QCURVE SMOOTH",
"144 536 OFFCURVE",
"315 200 OFFCURVE",
"610 24 OFFCURVE",
"796 24 QCURVE SMOOTH",
"946 24 OFFCURVE",
"1123 119 OFFCURVE",
"1218 242 OFFCURVE",
"1244 284 QCURVE",
"1264 284 LINE",
"1264 -28 LINE SMOOTH",
"1264 -220 OFFCURVE",
"1022 -400 OFFCURVE",
"836 -400 QCURVE SMOOTH",
"697 -400 OFFCURVE",
"526 -319 OFFCURVE",
"428 -210 OFFCURVE",
"396 -168 QCURVE",
"208 -300 LINE",
"280 -421 OFFCURVE",
"579 -608 OFFCURVE",
"836 -608 QCURVE SMOOTH"
);
},
{
closed = 1;
nodes = (
"606 236 OFFCURVE",
"380 540 OFFCURVE",
"380 780 QCURVE SMOOTH",
"380 936 OFFCURVE",
"479 1192 OFFCURVE",
"678 1344 OFFCURVE",
"828 1344 QCURVE SMOOTH",
"1044 1344 OFFCURVE",
"1268 1029 OFFCURVE",
"1268 780 QCURVE SMOOTH",
"1268 525 OFFCURVE",
"1041 236 OFFCURVE",
"828 236 QCURVE SMOOTH"
);
}
);
visible = 1;
width = 1716;
}
);
leftKerningGroup = uniE02C;
note = uni0067;
rightKerningGroup = uni0067;
unicode = 0067;
},
{
glyphname = uni0260;
layers = (
{
layerId = "25D77734-040B-4C95-BAE5-6EFF5F3D7B2E";
paths = (
{
closed = 1;
nodes = (
"1020 -608 OFFCURVE",
"1321 -491 OFFCURVE",
"1500 -242 OFFCURVE",
"1500 -44 QCURVE SMOOTH",
"1500 1664 LINE SMOOTH",
"1500 1784 OFFCURVE",
"1628 1872 OFFCURVE",
"1724 1872 QCURVE SMOOTH",
"1745 1872 OFFCURVE",
"1785 1867 OFFCURVE",
"1800 1864 QCURVE",
"1800 2064 LINE",
"1773 2073 OFFCURVE",
"1700 2076 OFFCURVE",
"1664 2076 QCURVE SMOOTH",
"1496 2076 OFFCURVE",
"1272 1862 OFFCURVE",
"1272 1664 QCURVE SMOOTH",
"1272 1292 LINE",
"1248 1292 LINE",
"1222 1332 OFFCURVE",
"1127 1457 OFFCURVE",
"950 1556 OFFCURVE",
"800 1556 QCURVE SMOOTH",
"606 1556 OFFCURVE",
"310 1363 OFFCURVE",
"144 1012 OFFCURVE",
"144 776 QCURVE SMOOTH",
"144 536 OFFCURVE",
"315 200 OFFCURVE",
"610 24 OFFCURVE",
"796 24 QCURVE SMOOTH",
"946 24 OFFCURVE",
"1123 119 OFFCURVE",
"1218 242 OFFCURVE",
"1244 284 QCURVE",
"1264 284 LINE",
"1264 -28 LINE SMOOTH",
"1264 -220 OFFCURVE",
"1022 -400 OFFCURVE",
"836 -400 QCURVE SMOOTH",
"697 -400 OFFCURVE",
"526 -319 OFFCURVE",
"428 -210 OFFCURVE",
"396 -168 QCURVE",
"208 -300 LINE",
"280 -421 OFFCURVE",
"579 -608 OFFCURVE",
"836 -608 QCURVE SMOOTH"
);
},
{
closed = 1;
nodes = (
"606 236 OFFCURVE",
"380 540 OFFCURVE",
"380 780 QCURVE SMOOTH",
"380 936 OFFCURVE",
"479 1192 OFFCURVE",
"678 1344 OFFCURVE",
"828 1344 QCURVE SMOOTH",
"1044 1344 OFFCURVE",
"1268 1029 OFFCURVE",
"1268 780 QCURVE SMOOTH",
"1268 525 OFFCURVE",
"1041 236 OFFCURVE",
"828 236 QCURVE SMOOTH"
);
}
);
width = 1728;
}
);
leftKerningGroup = uniE02C;
note = uni0260;
rightKerningGroup = uni0067;
unicode = 0260;
},
{
glyphname = uni0068;
layers = (
{
layerId = "25D77734-040B-4C95-BAE5-6EFF5F3D7B2E";
paths = (
{
closed = 1;
nodes = (
"452 1125 OFFCURVE",
"681 1344 OFFCURVE",
"856 1344 QCURVE SMOOTH",
"1023 1344 OFFCURVE",
"1212 1143 OFFCURVE",
"1212 960 QCURVE SMOOTH",
"1212 0 LINE",
"1448 0 LINE",
"1448 976 LINE SMOOTH",
"1448 1272 OFFCURVE",
"1160 1556 OFFCURVE",
"924 1556 QCURVE SMOOTH",
"743 1556 OFFCURVE",
"526 1415 OFFCURVE",
"472 1296 QCURVE",
"452 1296 LINE",
"452 2048 LINE",
"216 2048 LINE",
"216 0 LINE",
"452 0 LINE",
"452 924 LINE SMOOTH"
);
}
);
width = 1664;
}
);
leftKerningGroup = uni0042;
note = uni0068;
rightKerningGroup = uni0061;
unicode = 0068;
},
{
glyphname = uni0452;
layers = (
{
layerId = "25D77734-040B-4C95-BAE5-6EFF5F3D7B2E";
paths = (
{
closed = 1;
nodes = (
"452 1125 OFFCURVE",
"681 1344 OFFCURVE",
"856 1344 QCURVE SMOOTH",
"1023 1344 OFFCURVE",
"1212 1143 OFFCURVE",
"1212 960 QCURVE SMOOTH",
"1212 -164 LINE SMOOTH",
"1212 -284 OFFCURVE",
"1084 -372 OFFCURVE",
"988 -372 QCURVE SMOOTH",
"967 -372 OFFCURVE",
"927 -367 OFFCURVE",
"912 -364 QCURVE",
"912 -564 LINE",
"939 -573 OFFCURVE",
"1012 -576 OFFCURVE",
"1048 -576 QCURVE SMOOTH",
"1216 -576 OFFCURVE",
"1448 -362 OFFCURVE",
"1448 -164 QCURVE SMOOTH",
"1448 976 LINE SMOOTH",
"1448 1272 OFFCURVE",
"1160 1556 OFFCURVE",
"924 1556 QCURVE SMOOTH",
"743 1556 OFFCURVE",
"526 1415 OFFCURVE",
"472 1296 QCURVE",
"452 1296 LINE",
"452 1700 LINE",
"776 1700 LINE",
"776 1884 LINE",
"452 1884 LINE",
"452 2048 LINE",
"216 2048 LINE",
"216 1884 LINE",
"-104 1884 LINE",
"-104 1700 LINE",
"216 1700 LINE",
"216 0 LINE",
"452 0 LINE",
"452 924 LINE SMOOTH"
);
}
);
width = 1664;
}
);
leftKerningGroup = uni0042;
note = uni0452;
rightKerningGroup = uni0061;
unicode = 0452;
},
{
glyphname = uni0266;
layers = (
{
layerId = "25D77734-040B-4C95-BAE5-6EFF5F3D7B2E";
paths = (
{
closed = 1;
nodes = (
"452 1125 OFFCURVE",
"675 1344 OFFCURVE",
"844 1344 QCURVE SMOOTH",
"1008 1344 OFFCURVE",
"1196 1141 OFFCURVE",
"1196 960 QCURVE SMOOTH",
"1196 0 LINE",
"1432 0 LINE",
"1432 976 LINE SMOOTH",
"1432 1270 OFFCURVE",
"1145 1556 OFFCURVE",
"912 1556 QCURVE SMOOTH",
"738 1556 OFFCURVE",
"518 1413 OFFCURVE",
"464 1296 QCURVE",
"444 1296 LINE",
"444 1664 LINE SMOOTH",
"444 1784 OFFCURVE",
"580 1872 OFFCURVE",
"676 1872 QCURVE SMOOTH",
"697 1872 OFFCURVE",
"737 1867 OFFCURVE",
"752 1864 QCURVE",
"752 2064 LINE",
"725 2073 OFFCURVE",
"652 2076 OFFCURVE",
"616 2076 QCURVE SMOOTH",
"448 2076 OFFCURVE",
"216 1862 OFFCURVE",
"216 1664 QCURVE SMOOTH",
"216 0 LINE",
"452 0 LINE",
"452 924 LINE SMOOTH"
);
}
);
width = 1648;
}
);
leftKerningGroup = uni0042;
note = uni0266;
rightKerningGroup = uni0061;
unicode = 0266;
},
{
glyphname = uni0267;
layers = (
{
layerId = "25D77734-040B-4C95-BAE5-6EFF5F3D7B2E";
paths = (
{
closed = 1;
nodes = (
"452 1125 OFFCURVE",
"675 1344 OFFCURVE",
"844 1344 QCURVE SMOOTH",
"1008 1344 OFFCURVE",
"1196 1141 OFFCURVE",
"1196 960 QCURVE SMOOTH",
"1196 -164 LINE SMOOTH",
"1196 -284 OFFCURVE",
"1068 -372 OFFCURVE",
"972 -372 QCURVE SMOOTH",
"951 -372 OFFCURVE",
"911 -367 OFFCURVE",
"896 -364 QCURVE",
"896 -564 LINE",
"923 -573 OFFCURVE",
"996 -576 OFFCURVE",
"1032 -576 QCURVE SMOOTH",
"1200 -576 OFFCURVE",
"1432 -362 OFFCURVE",
"1432 -164 QCURVE SMOOTH",
"1432 976 LINE SMOOTH",
"1432 1270 OFFCURVE",
"1145 1556 OFFCURVE",
"912 1556 QCURVE SMOOTH",
"738 1556 OFFCURVE",
"518 1413 OFFCURVE",
"464 1296 QCURVE",
"444 1296 LINE",
"444 1664 LINE SMOOTH",
"444 1784 OFFCURVE",
"580 1872 OFFCURVE",
"676 1872 QCURVE SMOOTH",
"697 1872 OFFCURVE",
"737 1867 OFFCURVE",
"752 1864 QCURVE",
"752 2064 LINE",
"725 2073 OFFCURVE",
"652 2076 OFFCURVE",
"616 2076 QCURVE SMOOTH",
"448 2076 OFFCURVE",
"216 1862 OFFCURVE",
"216 1664 QCURVE SMOOTH",
"216 0 LINE",
"452 0 LINE",
"452 924 LINE SMOOTH"
);
}
);
width = 1648;
}
);
leftKerningGroup = uni0042;
note = uni0267;
rightKerningGroup = uni0061;
unicode = 0267;
},
{
glyphname = uni0195;
layers = (
{
layerId = "25D77734-040B-4C95-BAE5-6EFF5F3D7B2E";
paths = (
{
closed = 1;
nodes = (
"452 0 LINE",
"452 924 LINE SMOOTH",
"452 1125 OFFCURVE",
"681 1344 OFFCURVE",
"856 1344 QCURVE SMOOTH",
"1023 1344 OFFCURVE",
"1212 1143 OFFCURVE",
"1212 960 QCURVE SMOOTH",
"1212 608 LINE SMOOTH",
"1212 387 OFFCURVE",
"1349 105 OFFCURVE",
"1582 -28 OFFCURVE",
"1724 -28 QCURVE SMOOTH",
"1928 -28 OFFCURVE",
"2256 250 OFFCURVE",
"2448 848 OFFCURVE",
"2448 1328 QCURVE SMOOTH",
"2448 1536 LINE",
"2212 1536 LINE",
"2212 1328 LINE SMOOTH",
"2212 904 OFFCURVE",
"2080 400 OFFCURVE",
"1865 180 OFFCURVE",
"1740 180 QCURVE SMOOTH",
"1681 180 OFFCURVE",
"1544 244 OFFCURVE",
"1448 428 OFFCURVE",
"1448 608 QCURVE SMOOTH",
"1448 976 LINE SMOOTH",
"1448 1272 OFFCURVE",
"1160 1556 OFFCURVE",
"924 1556 QCURVE SMOOTH",
"743 1556 OFFCURVE",
"526 1415 OFFCURVE",
"472 1296 QCURVE",
"452 1296 LINE",
"452 2048 LINE",
"216 2048 LINE",
"216 0 LINE"
);
}
);
width = 2664;
}
);
leftKerningGroup = uni0042;
note = uni0195;
rightKerningGroup = uni01F6;
unicode = 0195;
},
{
glyphname = uni0265;
layers = (
{
layerId = "25D77734-040B-4C95-BAE5-6EFF5F3D7B2E";
paths = (
{
closed = 1;
nodes = (
"1212 411 OFFCURVE",
"982 192 OFFCURVE",
"808 192 QCURVE SMOOTH",
"640 192 OFFCURVE",
"452 393 OFFCURVE",
"452 576 QCURVE SMOOTH",
"452 1536 LINE",
"216 1536 LINE",
"216 560 LINE SMOOTH",
"216 263 OFFCURVE",
"503 -20 OFFCURVE",
"740 -20 QCURVE SMOOTH",
"920 -20 OFFCURVE",
"1138 120 OFFCURVE",
"1192 240 QCURVE",
"1212 240 LINE",
"1212 -576 LINE",
"1448 -576 LINE",
"1448 1536 LINE",
"1212 1536 LINE",
"1212 612 LINE SMOOTH"
);
}
);
width = 1664;
}
);
leftKerningGroup = uni0265;
note = uni0265;
rightKerningGroup = uni0067;
unicode = 0265;
},
{
glyphname = uni02AE;
layers = (
{
layerId = "25D77734-040B-4C95-BAE5-6EFF5F3D7B2E";
paths = (
{
closed = 1;
nodes = (
"135 1347 OFFCURVE",
"175 1352 OFFCURVE",
"196 1352 QCURVE SMOOTH",
"292 1352 OFFCURVE",
"420 1264 OFFCURVE",
"420 1144 QCURVE SMOOTH",
"420 560 LINE SMOOTH",
"420 263 OFFCURVE",
"707 -20 OFFCURVE",
"944 -20 QCURVE SMOOTH",
"1124 -20 OFFCURVE",
"1342 120 OFFCURVE",
"1396 240 QCURVE",
"1416 240 LINE",
"1416 -576 LINE",
"1652 -576 LINE",
"1652 1536 LINE",
"1416 1536 LINE",
"1416 612 LINE SMOOTH",
"1416 411 OFFCURVE",
"1186 192 OFFCURVE",
"1012 192 QCURVE SMOOTH",
"844 192 OFFCURVE",
"656 393 OFFCURVE",
"656 576 QCURVE SMOOTH",
"656 1144 LINE SMOOTH",
"656 1342 OFFCURVE",
"424 1556 OFFCURVE",
"256 1556 QCURVE SMOOTH",
"220 1556 OFFCURVE",
"147 1553 OFFCURVE",
"120 1544 QCURVE",
"120 1344 LINE"
);
}
);
width = 1868;
}
);
leftKerningGroup = uni02AE;
note = uni02AE;
rightKerningGroup = uni0067;
unicode = 02AE;
},
{
glyphname = uni02AF;
layers = (
{
layerId = "25D77734-040B-4C95-BAE5-6EFF5F3D7B2E";
paths = (
{
closed = 1;
nodes = (
"135 1347 OFFCURVE",
"175 1352 OFFCURVE",
"196 1352 QCURVE SMOOTH",
"292 1352 OFFCURVE",
"420 1264 OFFCURVE",
"420 1144 QCURVE SMOOTH",
"420 560 LINE SMOOTH",
"420 263 OFFCURVE",
"707 -20 OFFCURVE",
"944 -20 QCURVE SMOOTH",
"1124 -20 OFFCURVE",
"1342 120 OFFCURVE",
"1396 240 QCURVE",
"1416 240 LINE",
"1416 -164 LINE SMOOTH",
"1416 -362 OFFCURVE",
"1648 -576 OFFCURVE",
"1816 -576 QCURVE SMOOTH",
"1852 -576 OFFCURVE",
"1925 -573 OFFCURVE",
"1952 -564 QCURVE",
"1952 -364 LINE",
"1937 -367 OFFCURVE",
"1897 -372 OFFCURVE",
"1876 -372 QCURVE SMOOTH",
"1780 -372 OFFCURVE",
"1652 -284 OFFCURVE",
"1652 -164 QCURVE SMOOTH",
"1652 1536 LINE",
"1416 1536 LINE",
"1416 612 LINE SMOOTH",
"1416 411 OFFCURVE",
"1186 192 OFFCURVE",
"1012 192 QCURVE SMOOTH",
"844 192 OFFCURVE",
"656 393 OFFCURVE",
"656 576 QCURVE SMOOTH",
"656 1144 LINE SMOOTH",
"656 1342 OFFCURVE",
"424 1556 OFFCURVE",
"256 1556 QCURVE SMOOTH",
"220 1556 OFFCURVE",
"147 1553 OFFCURVE",
"120 1544 QCURVE",
"120 1344 LINE"
);
}
);
width = 1916;
}
);
leftKerningGroup = uni02AE;
note = uni02AF;
rightKerningGroup = uni0256;
unicode = 02AF;
},
{
glyphname = uni0131;
layers = (
{
layerId = "25D77734-040B-4C95-BAE5-6EFF5F3D7B2E";
paths = (
{
closed = 1;
nodes = (
"452 0 LINE",
"452 1536 LINE",
"216 1536 LINE",
"216 0 LINE"
);
}
);
width = 668;
}
);
leftKerningGroup = uni0069;
note = uni0131;
rightKerningGroup = uni01C8;
unicode = 0131;
},
{
glyphname = uni0237;
layers = (
{
layerId = "25D77734-040B-4C95-BAE5-6EFF5F3D7B2E";
paths = (
{
closed = 1;
nodes = (
"216 -112 LINE SMOOTH",
"216 -229 OFFCURVE",
"116 -356 OFFCURVE",
"8 -356 QCURVE SMOOTH",
"-36 -356 LINE",
"-36 -576 LINE",
"12 -576 LINE SMOOTH",
"234 -576 OFFCURVE",
"452 -325 OFFCURVE",
"452 -112 QCURVE SMOOTH",
"452 1536 LINE",
"216 1536 LINE"
);
}
);
width = 668;
}
);
leftKerningGroup = uni0191;
note = uni0237;
rightKerningGroup = uni01C8;
unicode = 0237;
},
{
glyphname = uniE04F;
layers = (
{
layerId = "25D77734-040B-4C95-BAE5-6EFF5F3D7B2E";
paths = (
{
closed = 1;
nodes = (
"490 -576 OFFCURVE",
"667 -451 OFFCURVE",
"760 -250 OFFCURVE",
"760 -136 QCURVE SMOOTH",
"760 -64 LINE",
"1056 -64 LINE",
"1056 160 LINE",
"760 160 LINE",
"760 1536 LINE",
"524 1536 LINE",
"524 160 LINE",
"376 160 LINE SMOOTH",
"264 160 OFFCURVE",
"77 69 OFFCURVE",
"-36 -98 OFFCURVE",
"-36 -212 QCURVE SMOOTH",
"-36 -365 OFFCURVE",
"178 -576 OFFCURVE",
"364 -576 QCURVE SMOOTH"
);
},
{
closed = 1;
nodes = (
"524 -160 LINE SMOOTH",
"524 -223 OFFCURVE",
"447 -360 OFFCURVE",
"360 -360 QCURVE SMOOTH",
"297 -360 OFFCURVE",
"216 -276 OFFCURVE",
"216 -216 QCURVE SMOOTH",
"216 -153 OFFCURVE",
"304 -64 OFFCURVE",
"376 -64 QCURVE SMOOTH",
"524 -64 LINE"
);
}
);
width = 976;
}
);
note = uniE04F;
rightKerningGroup = uni01C8;
unicode = E04F;
},
{
glyphname = uni006B;
layers = (
{
layerId = "25D77734-040B-4C95-BAE5-6EFF5F3D7B2E";
paths = (
{
closed = 1;
nodes = (
"452 0 LINE",
"452 575 LINE",
"617 728 LINE",
"1192 0 LINE",
"1492 0 LINE",
"795 880 LINE",
"1444 1536 LINE",
"1152 1536 LINE",
"480 852 LINE",
"452 852 LINE",
"452 2048 LINE",
"216 2048 LINE",
"216 0 LINE"
);
}
);
width = 1532;
}
);
leftKerningGroup = uni0042;
note = uni006B;
rightKerningGroup = uni006B;
unicode = 006B;
},
{
glyphname = uni0199;
layers = (
{
layerId = "25D77734-040B-4C95-BAE5-6EFF5F3D7B2E";
paths = (
{
closed = 1;
nodes = (
"1460 0 LINE",
"792 880 LINE",
"1396 1536 LINE",
"1096 1536 LINE",
"472 844 LINE",
"452 844 LINE",
"452 1664 LINE SMOOTH",
"452 1784 OFFCURVE",
"580 1872 OFFCURVE",
"676 1872 QCURVE SMOOTH",
"697 1872 OFFCURVE",
"737 1867 OFFCURVE",
"752 1864 QCURVE",
"752 2064 LINE",
"725 2073 OFFCURVE",
"652 2076 OFFCURVE",
"616 2076 QCURVE SMOOTH",
"448 2076 OFFCURVE",
"216 1862 OFFCURVE",
"216 1664 QCURVE SMOOTH",
"216 0 LINE",
"452 0 LINE",
"452 508 LINE",
"636 708 LINE",
"1176 0 LINE"
);
}
);
width = 1500;
}
);
leftKerningGroup = uni0042;
note = uni0199;
rightKerningGroup = uni006B;
unicode = 0199;
},
{
glyphname = uni006C;
layers = (
{
layerId = "25D77734-040B-4C95-BAE5-6EFF5F3D7B2E";
paths = (
{
closed = 1;
nodes = (
"216 2048 LINE",
"216 0 LINE",
"452 0 LINE",
"452 2048 LINE"
);
}
);
width = 668;
}
);
leftKerningGroup = uni0042;
note = uni006C;
rightKerningGroup = uni018E;
unicode = 006C;
},
{
glyphname = uni0142;
layers = (
{
layerId = "25D77734-040B-4C95-BAE5-6EFF5F3D7B2E";
paths = (
{
closed = 1;
nodes = (
"452 1197 LINE",
"452 2048 LINE",
"216 2048 LINE",
"216 1107 LINE",
"-4 1024 LINE",
"-4 848 LINE",
"216 931 LINE",
"216 0 LINE",
"452 0 LINE",
"452 1021 LINE",
"672 1104 LINE",
"672 1280 LINE"
);
}
);
width = 668;
}
);
leftKerningGroup = uni0042;
note = uni0142;
rightKerningGroup = uni018E;
unicode = 0142;
},
{
glyphname = uni026D;
layers = (
{
layerId = "25D77734-040B-4C95-BAE5-6EFF5F3D7B2E";
paths = (
{
closed = 1;
nodes = (
"216 2048 LINE",
"216 -164 LINE SMOOTH",
"216 -362 OFFCURVE",
"448 -576 OFFCURVE",
"616 -576 QCURVE SMOOTH",
"652 -576 OFFCURVE",
"725 -573 OFFCURVE",
"752 -564 QCURVE",
"752 -364 LINE",
"737 -367 OFFCURVE",
"697 -372 OFFCURVE",
"676 -372 QCURVE SMOOTH",
"580 -372 OFFCURVE",
"452 -284 OFFCURVE",
"452 -164 QCURVE SMOOTH",
"452 2048 LINE"
);
}
);
width = 752;
}
);
leftKerningGroup = uni0042;
note = uni026D;
rightKerningGroup = uni0256;
unicode = 026D;
},
{
glyphname = uni026C;
layers = (
{
layerId = "25D77734-040B-4C95-BAE5-6EFF5F3D7B2E";
paths = (
{
closed = 1;
nodes = (
"1156 1044 LINE",
"860 1044 LINE",
"860 2048 LINE",
"624 2048 LINE",
"624 1530 LINE",
"552 1556 OFFCURVE",
"464 1556 QCURVE SMOOTH",
"278 1556 OFFCURVE",
"64 1345 OFFCURVE",
"64 1192 QCURVE SMOOTH",
"64 1078 OFFCURVE",
"176 913 OFFCURVE",
"362 824 OFFCURVE",
"472 824 QCURVE SMOOTH",
"624 824 LINE",
"624 0 LINE",
"860 0 LINE",
"860 824 LINE",
"1156 824 LINE"
);
},
{
closed = 1;
nodes = (
"624 1044 LINE",
"476 1044 LINE SMOOTH",
"404 1044 OFFCURVE",
"312 1132 OFFCURVE",
"312 1192 QCURVE SMOOTH",
"312 1255 OFFCURVE",
"397 1348 OFFCURVE",
"460 1348 QCURVE SMOOTH",
"544 1348 OFFCURVE",
"624 1250 OFFCURVE",
"624 1184 QCURVE SMOOTH"
);
}
);
width = 1180;
}
);
leftKerningGroup = uni02AE;
note = uni026C;
rightKerningGroup = uni04A2;
unicode = 026C;
},
{
glyphname = uni0234;
layers = (
{
layerId = "25D77734-040B-4C95-BAE5-6EFF5F3D7B2E";
paths = (
{
closed = 1;
nodes = (
"216 2048 LINE",
"216 -48 LINE",
"-96 -368 LINE",
"56 -524 LINE",
"248 -324 LINE",
"288 -428 OFFCURVE",
"477 -576 OFFCURVE",
"640 -576 QCURVE SMOOTH",
"826 -576 OFFCURVE",
"1044 -374 OFFCURVE",
"1044 -212 QCURVE SMOOTH",
"1044 -47 OFFCURVE",
"825 152 OFFCURVE",
"660 152 QCURVE SMOOTH",
"557 152 OFFCURVE",
"452 110 QCURVE",
"452 2048 LINE"
);
},
{
closed = 1;
nodes = (
"489 -95 OFFCURVE",
"575 -60 OFFCURVE",
"628 -60 QCURVE SMOOTH",
"706 -60 OFFCURVE",
"800 -140 OFFCURVE",
"800 -212 QCURVE SMOOTH",
"800 -281 OFFCURVE",
"712 -372 OFFCURVE",
"640 -372 QCURVE SMOOTH",
"565 -372 OFFCURVE",
"452 -273 OFFCURVE",
"452 -204 QCURVE SMOOTH",
"452 -123 LINE"
);
}
);
width = 964;
}
);
leftKerningGroup = uni0042;
note = uni0234;
rightKerningGroup = uni0256;
unicode = 0234;
},
{
glyphname = uniE050;
layers = (
{
layerId = "25D77734-040B-4C95-BAE5-6EFF5F3D7B2E";
paths = (
{
closed = 1;
nodes = (
"216 336 LINE SMOOTH",
"216 172 OFFCURVE",
"384 -12 OFFCURVE",
"552 -12 QCURVE SMOOTH",
"603 -12 OFFCURVE",
"697 3 OFFCURVE",
"728 12 QCURVE",
"680 216 LINE",
"663 211 OFFCURVE",
"622 202 OFFCURVE",
"580 200 QCURVE SMOOTH",
"502 198 OFFCURVE",
"452 288 OFFCURVE",
"452 400 QCURVE SMOOTH",
"452 2048 LINE",
"216 2048 LINE"
);
}
);
width = 728;
}
);
leftKerningGroup = uni0042;
note = uniE050;
rightKerningGroup = uni018E;
unicode = E050;
},
{
glyphname = uniE051;
layers = (
{
layerId = "25D77734-040B-4C95-BAE5-6EFF5F3D7B2E";
paths = (
{
closed = 1;
nodes = (
"452 1197 LINE",
"452 2048 LINE",
"216 2048 LINE",
"216 1107 LINE",
"-4 1024 LINE",
"-4 848 LINE",
"216 931 LINE",
"216 336 LINE SMOOTH",
"216 172 OFFCURVE",
"384 -12 OFFCURVE",
"552 -12 QCURVE SMOOTH",
"603 -12 OFFCURVE",
"697 3 OFFCURVE",
"728 12 QCURVE",
"680 216 LINE",
"663 211 OFFCURVE",
"622 202 OFFCURVE",
"580 200 QCURVE SMOOTH",
"502 198 OFFCURVE",
"452 288 OFFCURVE",
"452 400 QCURVE SMOOTH",
"452 1021 LINE",
"672 1104 LINE",
"672 1280 LINE"
);
}
);
width = 728;
}
);
leftKerningGroup = uni0042;
note = uniE051;
rightKerningGroup = uni018E;
unicode = E051;
},
{
glyphname = uniE054;
layers = (
{
layerId = "25D77734-040B-4C95-BAE5-6EFF5F3D7B2E";
paths = (
{
closed = 1;
nodes = (
"1156 1044 LINE",
"860 1044 LINE",
"860 2048 LINE",
"624 2048 LINE",
"624 1530 LINE",
"552 1556 OFFCURVE",
"464 1556 QCURVE SMOOTH",
"278 1556 OFFCURVE",
"64 1345 OFFCURVE",
"64 1192 QCURVE SMOOTH",
"64 1078 OFFCURVE",
"176 913 OFFCURVE",
"362 824 OFFCURVE",
"472 824 QCURVE SMOOTH",
"624 824 LINE",
"624 336 LINE SMOOTH",
"624 172 OFFCURVE",
"792 -12 OFFCURVE",
"960 -12 QCURVE SMOOTH",
"1011 -12 OFFCURVE",
"1105 3 OFFCURVE",
"1136 12 QCURVE",
"1088 216 LINE",
"1071 211 OFFCURVE",
"1030 202 OFFCURVE",
"988 200 QCURVE SMOOTH",
"910 198 OFFCURVE",
"860 288 OFFCURVE",
"860 400 QCURVE SMOOTH",
"860 824 LINE",
"1156 824 LINE"
);
},
{
closed = 1;
nodes = (
"624 1044 LINE",
"476 1044 LINE SMOOTH",
"404 1044 OFFCURVE",
"312 1132 OFFCURVE",
"312 1192 QCURVE SMOOTH",
"312 1255 OFFCURVE",
"397 1348 OFFCURVE",
"460 1348 QCURVE SMOOTH",
"544 1348 OFFCURVE",
"624 1250 OFFCURVE",
"624 1184 QCURVE SMOOTH"
);
}
);
width = 1180;
}
);
leftKerningGroup = uni02AE;
note = uniE054;
rightKerningGroup = uni04A2;
unicode = E054;
},
{
glyphname = uni006D;
layers = (
{
layerId = "25D77734-040B-4C95-BAE5-6EFF5F3D7B2E";
paths = (
{
closed = 1;
nodes = (
"452 0 LINE",
"452 960 LINE SMOOTH",
"452 1073 OFFCURVE",
"549 1246 OFFCURVE",
"708 1344 OFFCURVE",
"800 1344 QCURVE SMOOTH",
"934 1344 OFFCURVE",
"1104 1183 OFFCURVE",
"1104 1052 QCURVE SMOOTH",
"1104 0 LINE",
"1344 0 LINE",
"1344 1000 LINE SMOOTH",
"1344 1149 OFFCURVE",
"1522 1344 OFFCURVE",
"1684 1344 QCURVE SMOOTH",
"1810 1344 OFFCURVE",
"1996 1198 OFFCURVE",
"1996 1028 QCURVE SMOOTH",
"1996 0 LINE",
"2232 0 LINE",
"2232 1028 LINE SMOOTH",
"2232 1299 OFFCURVE",
"1970 1556 OFFCURVE",
"1764 1556 QCURVE SMOOTH",
"1599 1556 OFFCURVE",
"1363 1415 OFFCURVE",
"1304 1296 QCURVE",
"1288 1296 LINE",
"1231 1419 OFFCURVE",
"1028 1556 OFFCURVE",
"876 1556 QCURVE SMOOTH",
"726 1556 OFFCURVE",
"512 1419 OFFCURVE",
"464 1296 QCURVE",
"444 1296 LINE",
"444 1536 LINE",
"216 1536 LINE",
"216 0 LINE"
);
}
);
width = 2448;
}
);
leftKerningGroup = uni0250;
note = uni006D;
rightKerningGroup = uni0061;
unicode = 006D;
},
{
glyphname = uni0271;
layers = (
{
layerId = "25D77734-040B-4C95-BAE5-6EFF5F3D7B2E";
paths = (
{
closed = 1;
nodes = (
"452 0 LINE",
"452 960 LINE SMOOTH",
"452 1073 OFFCURVE",
"549 1246 OFFCURVE",
"708 1344 OFFCURVE",
"800 1344 QCURVE SMOOTH",
"934 1344 OFFCURVE",
"1104 1183 OFFCURVE",
"1104 1052 QCURVE SMOOTH",
"1104 0 LINE",
"1344 0 LINE",
"1344 1000 LINE SMOOTH",
"1344 1149 OFFCURVE",
"1522 1344 OFFCURVE",
"1684 1344 QCURVE SMOOTH",
"1810 1344 OFFCURVE",
"1996 1198 OFFCURVE",
"1996 1028 QCURVE SMOOTH",
"1996 -164 LINE SMOOTH",
"1996 -284 OFFCURVE",
"1868 -372 OFFCURVE",
"1772 -372 QCURVE SMOOTH",
"1751 -372 OFFCURVE",
"1711 -367 OFFCURVE",
"1696 -364 QCURVE",
"1696 -564 LINE",
"1723 -573 OFFCURVE",
"1796 -576 OFFCURVE",
"1832 -576 QCURVE SMOOTH",
"2000 -576 OFFCURVE",
"2232 -362 OFFCURVE",
"2232 -164 QCURVE SMOOTH",
"2232 1028 LINE SMOOTH",
"2232 1299 OFFCURVE",
"1970 1556 OFFCURVE",
"1764 1556 QCURVE SMOOTH",
"1599 1556 OFFCURVE",
"1363 1415 OFFCURVE",
"1304 1296 QCURVE",
"1288 1296 LINE",
"1231 1419 OFFCURVE",
"1028 1556 OFFCURVE",
"876 1556 QCURVE SMOOTH",
"726 1556 OFFCURVE",
"512 1419 OFFCURVE",
"464 1296 QCURVE",
"444 1296 LINE",
"444 1536 LINE",
"216 1536 LINE",
"216 0 LINE"
);
}
);
width = 2448;
}
);
leftKerningGroup = uni0250;
note = uni0271;
rightKerningGroup = uni0061;
unicode = 0271;
},
{
glyphname = uni0270;
layers = (
{
layerId = "25D77734-040B-4C95-BAE5-6EFF5F3D7B2E";
paths = (
{
closed = 1;
nodes = (
"2232 -576 LINE",
"2232 1536 LINE",
"1996 1536 LINE",
"1996 576 LINE SMOOTH",
"1996 464 OFFCURVE",
"1899 290 OFFCURVE",
"1740 192 OFFCURVE",
"1648 192 QCURVE SMOOTH",
"1514 192 OFFCURVE",
"1344 353 OFFCURVE",
"1344 484 QCURVE SMOOTH",
"1344 1536 LINE",
"1104 1536 LINE",
"1104 536 LINE SMOOTH",
"1104 388 OFFCURVE",
"926 192 OFFCURVE",
"764 192 QCURVE SMOOTH",
"638 192 OFFCURVE",
"452 338 OFFCURVE",
"452 508 QCURVE SMOOTH",
"452 1536 LINE",
"216 1536 LINE",
"216 508 LINE SMOOTH",
"216 237 OFFCURVE",
"479 -20 OFFCURVE",
"684 -20 QCURVE SMOOTH",
"849 -20 OFFCURVE",
"1085 121 OFFCURVE",
"1144 240 QCURVE",
"1160 240 LINE",
"1217 117 OFFCURVE",
"1421 -20 OFFCURVE",
"1572 -20 QCURVE SMOOTH",
"1722 -20 OFFCURVE",
"1936 117 OFFCURVE",
"1984 240 QCURVE",
"2004 240 LINE",
"2004 -576 LINE"
);
}
);
width = 2448;
}
);
leftKerningGroup = uni0265;
note = uni0270;
rightKerningGroup = uni0067;
unicode = 0270;
},
{
glyphname = uni006E;
layers = (
{
layerId = "25D77734-040B-4C95-BAE5-6EFF5F3D7B2E";
paths = (
{
closed = 1;
nodes = (
"452 1125 OFFCURVE",
"675 1344 OFFCURVE",
"844 1344 QCURVE SMOOTH",
"1008 1344 OFFCURVE",
"1196 1141 OFFCURVE",
"1196 960 QCURVE SMOOTH",
"1196 0 LINE",
"1432 0 LINE",
"1432 976 LINE SMOOTH",
"1432 1270 OFFCURVE",
"1145 1556 OFFCURVE",
"912 1556 QCURVE SMOOTH",
"738 1556 OFFCURVE",
"518 1413 OFFCURVE",
"464 1296 QCURVE",
"444 1296 LINE",
"444 1536 LINE",
"216 1536 LINE",
"216 0 LINE",
"452 0 LINE",
"452 924 LINE SMOOTH"
);
}
);
width = 1648;
}
);
leftKerningGroup = uni0250;
note = uni006E;
rightKerningGroup = uni0061;
unicode = 006E;
},
{
glyphname = uni0273;
layers = (
{
layerId = "25D77734-040B-4C95-BAE5-6EFF5F3D7B2E";
paths = (
{
closed = 1;
nodes = (
"452 1125 OFFCURVE",
"675 1344 OFFCURVE",
"844 1344 QCURVE SMOOTH",
"1008 1344 OFFCURVE",
"1196 1141 OFFCURVE",
"1196 960 QCURVE SMOOTH",
"1196 -164 LINE SMOOTH",
"1196 -362 OFFCURVE",
"1428 -576 OFFCURVE",
"1596 -576 QCURVE SMOOTH",
"1632 -576 OFFCURVE",
"1705 -573 OFFCURVE",
"1732 -564 QCURVE",
"1732 -364 LINE",
"1717 -367 OFFCURVE",
"1677 -372 OFFCURVE",
"1656 -372 QCURVE SMOOTH",
"1560 -372 OFFCURVE",
"1432 -284 OFFCURVE",
"1432 -164 QCURVE SMOOTH",
"1432 976 LINE SMOOTH",
"1432 1270 OFFCURVE",
"1145 1556 OFFCURVE",
"912 1556 QCURVE SMOOTH",
"738 1556 OFFCURVE",
"518 1413 OFFCURVE",
"464 1296 QCURVE",
"444 1296 LINE",
"444 1536 LINE",
"216 1536 LINE",
"216 0 LINE",
"452 0 LINE",
"452 924 LINE SMOOTH"
);
}
);
width = 1636;
}
);
leftKerningGroup = uni0250;
note = uni0273;
rightKerningGroup = uni0256;
unicode = 0273;
},
{
glyphname = uni014B;
layers = (
{
layerId = "25D77734-040B-4C95-BAE5-6EFF5F3D7B2E";
paths = (
{
closed = 1;
nodes = (
"452 1125 OFFCURVE",
"675 1344 OFFCURVE",
"844 1344 QCURVE SMOOTH",
"1008 1344 OFFCURVE",
"1196 1141 OFFCURVE",
"1196 960 QCURVE SMOOTH",
"1196 -164 LINE SMOOTH",
"1196 -284 OFFCURVE",
"1068 -372 OFFCURVE",
"972 -372 QCURVE SMOOTH",
"951 -372 OFFCURVE",
"911 -367 OFFCURVE",
"896 -364 QCURVE",
"896 -564 LINE",
"923 -573 OFFCURVE",
"996 -576 OFFCURVE",
"1032 -576 QCURVE SMOOTH",
"1200 -576 OFFCURVE",
"1432 -362 OFFCURVE",
"1432 -164 QCURVE SMOOTH",
"1432 976 LINE SMOOTH",
"1432 1270 OFFCURVE",
"1145 1556 OFFCURVE",
"912 1556 QCURVE SMOOTH",
"738 1556 OFFCURVE",
"518 1413 OFFCURVE",
"464 1296 QCURVE",
"444 1296 LINE",
"444 1536 LINE",
"216 1536 LINE",
"216 0 LINE",
"452 0 LINE",
"452 924 LINE SMOOTH"
);
}
);
width = 1648;
}
);
leftKerningGroup = uni0250;
note = uni014B;
unicode = 014B;
},
{
glyphname = uni0235;
layers = (
{
layerId = "25D77734-040B-4C95-BAE5-6EFF5F3D7B2E";
paths = (
{
closed = 1;
nodes = (
"452 1125 OFFCURVE",
"675 1344 OFFCURVE",
"844 1344 QCURVE SMOOTH",
"1008 1344 OFFCURVE",
"1196 1141 OFFCURVE",
"1196 960 QCURVE SMOOTH",
"1196 184 LINE",
"884 -136 LINE",
"1036 -292 LINE",
"1228 -92 LINE",
"1268 -196 OFFCURVE",
"1457 -344 OFFCURVE",
"1620 -344 QCURVE SMOOTH",
"1806 -344 OFFCURVE",
"2024 -142 OFFCURVE",
"2024 20 QCURVE SMOOTH",
"2024 185 OFFCURVE",
"1805 384 OFFCURVE",
"1640 384 QCURVE SMOOTH",
"1536 384 OFFCURVE",
"1432 343 QCURVE",
"1432 976 LINE SMOOTH",
"1432 1270 OFFCURVE",
"1145 1556 OFFCURVE",
"912 1556 QCURVE SMOOTH",
"738 1556 OFFCURVE",
"518 1413 OFFCURVE",
"464 1296 QCURVE",
"444 1296 LINE",
"444 1536 LINE",
"216 1536 LINE",
"216 0 LINE",
"452 0 LINE",
"452 924 LINE SMOOTH"
);
},
{
closed = 1;
nodes = (
"1432 109 LINE",
"1469 137 OFFCURVE",
"1555 172 OFFCURVE",
"1608 172 QCURVE SMOOTH",
"1686 172 OFFCURVE",
"1780 92 OFFCURVE",
"1780 20 QCURVE SMOOTH",
"1780 -49 OFFCURVE",
"1692 -140 OFFCURVE",
"1620 -140 QCURVE SMOOTH",
"1545 -140 OFFCURVE",
"1432 -41 OFFCURVE",
"1432 28 QCURVE SMOOTH"
);
}
);
width = 2152;
}
);
leftKerningGroup = uni0250;
note = uni0235;
rightKerningGroup = uni04A2;
unicode = 0235;
},
{
glyphname = uni0272;
layers = (
{
layerId = "25D77734-040B-4C95-BAE5-6EFF5F3D7B2E";
paths = (
{
closed = 1;
nodes = (
"500 1125 OFFCURVE",
"723 1344 OFFCURVE",
"892 1344 QCURVE SMOOTH",
"1056 1344 OFFCURVE",
"1244 1141 OFFCURVE",
"1244 960 QCURVE SMOOTH",
"1244 0 LINE",
"1480 0 LINE",
"1480 976 LINE SMOOTH",
"1480 1270 OFFCURVE",
"1193 1556 OFFCURVE",
"960 1556 QCURVE SMOOTH",
"786 1556 OFFCURVE",
"566 1413 OFFCURVE",
"512 1296 QCURVE",
"492 1296 LINE",
"492 1536 LINE",
"264 1536 LINE",
"264 -164 LINE SMOOTH",
"264 -284 OFFCURVE",
"136 -372 OFFCURVE",
"40 -372 QCURVE SMOOTH",
"19 -372 OFFCURVE",
"-21 -367 OFFCURVE",
"-36 -364 QCURVE",
"-36 -564 LINE",
"-9 -573 OFFCURVE",
"64 -576 OFFCURVE",
"100 -576 QCURVE SMOOTH",
"268 -576 OFFCURVE",
"500 -362 OFFCURVE",
"500 -164 QCURVE SMOOTH",
"500 924 LINE SMOOTH"
);
}
);
width = 1696;
}
);
leftKerningGroup = uni0191;
note = uni0272;
rightKerningGroup = uni0061;
unicode = 0272;
},
{
glyphname = uni006F;
layers = (
{
layerId = "25D77734-040B-4C95-BAE5-6EFF5F3D7B2E";
paths = (
{
closed = 1;
nodes = (
"1048 -32 OFFCURVE",
"1361 166 OFFCURVE",
"1536 522 OFFCURVE",
"1536 760 QCURVE SMOOTH",
"1536 1000 OFFCURVE",
"1361 1358 OFFCURVE",
"1048 1556 OFFCURVE",
"840 1556 QCURVE SMOOTH",
"632 1556 OFFCURVE",
"319 1358 OFFCURVE",
"144 1000 OFFCURVE",
"144 760 QCURVE SMOOTH",
"144 522 OFFCURVE",
"319 166 OFFCURVE",
"632 -32 OFFCURVE",
"840 -32 QCURVE SMOOTH"
);
},
{
closed = 1;
nodes = (
"682 180 OFFCURVE",
"478 342 OFFCURVE",
"380 606 OFFCURVE",
"380 760 QCURVE SMOOTH",
"380 914 OFFCURVE",
"478 1180 OFFCURVE",
"682 1344 OFFCURVE",
"840 1344 QCURVE SMOOTH",
"998 1344 OFFCURVE",
"1202 1180 OFFCURVE",
"1300 914 OFFCURVE",
"1300 760 QCURVE SMOOTH",
"1300 606 OFFCURVE",
"1202 342 OFFCURVE",
"998 180 OFFCURVE",
"840 180 QCURVE SMOOTH"
);
}
);
width = 1680;
}
);
leftKerningGroup = uniE02C;
note = uni006F;
rightKerningGroup = uni0062;
unicode = 006F;
},
{
glyphname = uni00F8;
layers = (
{
layerId = "25D77734-040B-4C95-BAE5-6EFF5F3D7B2E";
paths = (
{
closed = 1;
nodes = (
"480 64 LINE",
"638 -32 OFFCURVE",
"840 -32 QCURVE SMOOTH",
"1048 -32 OFFCURVE",
"1361 166 OFFCURVE",
"1536 522 OFFCURVE",
"1536 760 QCURVE SMOOTH",
"1536 941 OFFCURVE",
"1434 1236 OFFCURVE",
"1342 1341 QCURVE",
"1452 1504 LINE",
"1300 1608 LINE",
"1200 1460 LINE",
"1043 1556 OFFCURVE",
"840 1556 QCURVE SMOOTH",
"632 1556 OFFCURVE",
"319 1358 OFFCURVE",
"144 1000 OFFCURVE",
"144 760 QCURVE SMOOTH",
"144 580 OFFCURVE",
"246 287 OFFCURVE",
"338 183 QCURVE",
"228 20 LINE",
"380 -84 LINE"
);
},
{
closed = 1;
nodes = (
"704 180 OFFCURVE",
"603 246 QCURVE",
"1206 1140 LINE",
"1254 1062 OFFCURVE",
"1300 866 OFFCURVE",
"1300 760 QCURVE SMOOTH",
"1300 606 OFFCURVE",
"1202 342 OFFCURVE",
"998 180 OFFCURVE",
"840 180 QCURVE SMOOTH"
);
},
{
closed = 1;
nodes = (
"426 460 OFFCURVE",
"380 654 OFFCURVE",
"380 760 QCURVE SMOOTH",
"380 914 OFFCURVE",
"478 1180 OFFCURVE",
"682 1344 OFFCURVE",
"840 1344 QCURVE SMOOTH",
"976 1344 OFFCURVE",
"1077 1277 QCURVE",
"473 383 LINE"
);
}
);
width = 1680;
}
);
leftKerningGroup = uniE02C;
note = uni00F8;
rightKerningGroup = uni0062;
unicode = 00F8;
},
{
glyphname = uni01A1;
layers = (
{
layerId = "25D77734-040B-4C95-BAE5-6EFF5F3D7B2E";
paths = (
{
closed = 1;
nodes = (
"1464 1536 OFFCURVE",
"1420 1372 OFFCURVE",
"1341 1341 QCURVE",
"1250 1444 OFFCURVE",
"995 1556 OFFCURVE",
"840 1556 QCURVE SMOOTH",
"632 1556 OFFCURVE",
"319 1358 OFFCURVE",
"144 1000 OFFCURVE",
"144 760 QCURVE SMOOTH",
"144 522 OFFCURVE",
"319 166 OFFCURVE",
"632 -32 OFFCURVE",
"840 -32 QCURVE SMOOTH",
"1048 -32 OFFCURVE",
"1361 166 OFFCURVE",
"1536 522 OFFCURVE",
"1536 760 QCURVE SMOOTH",
"1536 1004 OFFCURVE",
"1443 1190 QCURVE",
"1574 1240 OFFCURVE",
"1684 1480 OFFCURVE",
"1684 1652 QCURVE",
"1464 1652 LINE"
);
},
{
closed = 1;
nodes = (
"682 180 OFFCURVE",
"478 342 OFFCURVE",
"380 606 OFFCURVE",
"380 760 QCURVE SMOOTH",
"380 914 OFFCURVE",
"478 1180 OFFCURVE",
"682 1344 OFFCURVE",
"840 1344 QCURVE SMOOTH",
"998 1344 OFFCURVE",
"1202 1180 OFFCURVE",
"1300 914 OFFCURVE",
"1300 760 QCURVE SMOOTH",
"1300 606 OFFCURVE",
"1202 342 OFFCURVE",
"998 180 OFFCURVE",
"840 180 QCURVE SMOOTH"
);
}
);
width = 1684;
}
);
leftKerningGroup = uniE02C;
note = uni01A1;
rightKerningGroup = uni01A1;
unicode = 01A1;
},
{
glyphname = uni0473;
layers = (
{
layerId = "25D77734-040B-4C95-BAE5-6EFF5F3D7B2E";
paths = (
{
closed = 1;
nodes = (
"1048 -32 OFFCURVE",
"1361 166 OFFCURVE",
"1536 522 OFFCURVE",
"1536 760 QCURVE SMOOTH",
"1536 1000 OFFCURVE",
"1361 1358 OFFCURVE",
"1048 1556 OFFCURVE",
"840 1556 QCURVE SMOOTH",
"632 1556 OFFCURVE",
"319 1358 OFFCURVE",
"144 1000 OFFCURVE",
"144 760 QCURVE SMOOTH",
"144 522 OFFCURVE",
"319 166 OFFCURVE",
"632 -32 OFFCURVE",
"840 -32 QCURVE SMOOTH"
);
},
{
closed = 1;
nodes = (
"700 180 OFFCURVE",
"509 309 OFFCURVE",
"400 525 OFFCURVE",
"386 656 QCURVE",
"1294 656 LINE",
"1280 525 OFFCURVE",
"1171 309 OFFCURVE",
"980 180 OFFCURVE",
"840 180 QCURVE SMOOTH"
);
},
{
closed = 1;
nodes = (
"403 1005 OFFCURVE",
"512 1218 OFFCURVE",
"702 1344 OFFCURVE",
"840 1344 QCURVE SMOOTH",
"978 1344 OFFCURVE",
"1168 1218 OFFCURVE",
"1277 1005 OFFCURVE",
"1293 876 QCURVE",
"387 876 LINE"
);
}
);
width = 1680;
}
);
leftKerningGroup = uniE02C;
note = uni0473;
rightKerningGroup = uni0062;
unicode = 0473;
},
{
glyphname = uni0070;
layers = (
{
layerId = "25D77734-040B-4C95-BAE5-6EFF5F3D7B2E";
paths = (
{
closed = 1;
nodes = (
"452 -576 LINE",
"452 236 LINE",
"472 236 LINE",
"498 194 OFFCURVE",
"594 67 OFFCURVE",
"772 -32 OFFCURVE",
"920 -32 QCURVE SMOOTH",
"1112 -32 OFFCURVE",
"1406 163 OFFCURVE",
"1572 520 OFFCURVE",
"1572 764 QCURVE SMOOTH",
"1572 1006 OFFCURVE",
"1406 1362 OFFCURVE",
"1110 1556 OFFCURVE",
"916 1556 QCURVE SMOOTH",
"766 1556 OFFCURVE",
"591 1457 OFFCURVE",
"498 1332 OFFCURVE",
"472 1292 QCURVE",
"444 1292 LINE",
"444 1536 LINE",
"216 1536 LINE",
"216 -576 LINE"
);
},
{
closed = 1;
nodes = (
"448 1026 OFFCURVE",
"672 1344 OFFCURVE",
"888 1344 QCURVE SMOOTH",
"1038 1344 OFFCURVE",
"1237 1191 OFFCURVE",
"1336 930 OFFCURVE",
"1336 768 QCURVE SMOOTH",
"1336 604 OFFCURVE",
"1235 337 OFFCURVE",
"1036 180 OFFCURVE",
"888 180 QCURVE SMOOTH",
"675 180 OFFCURVE",
"448 507 OFFCURVE",
"448 768 QCURVE SMOOTH"
);
}
);
width = 1716;
}
);
leftKerningGroup = uni0250;
note = uni0070;
rightKerningGroup = uni0062;
unicode = 0070;
},
{
glyphname = uni048F;
layers = (
{
layerId = "25D77734-040B-4C95-BAE5-6EFF5F3D7B2E";
paths = (
{
closed = 1;
nodes = (
"452 -576 LINE",
"452 236 LINE",
"472 236 LINE",
"498 194 OFFCURVE",
"594 67 OFFCURVE",
"772 -32 OFFCURVE",
"920 -32 QCURVE SMOOTH",
"1090 -32 OFFCURVE",
"1228 46 QCURVE",
"1388 -132 LINE",
"1548 20 LINE",
"1395 190 LINE",
"1479 293 OFFCURVE",
"1572 584 OFFCURVE",
"1572 764 QCURVE SMOOTH",
"1572 1006 OFFCURVE",
"1406 1362 OFFCURVE",
"1110 1556 OFFCURVE",
"916 1556 QCURVE SMOOTH",
"766 1556 OFFCURVE",
"591 1457 OFFCURVE",
"498 1332 OFFCURVE",
"472 1292 QCURVE",
"444 1292 LINE",
"444 1536 LINE",
"216 1536 LINE",
"216 -576 LINE"
);
},
{
closed = 1;
nodes = (
"924 384 LINE",
"1071 220 LINE",
"989 180 OFFCURVE",
"888 180 QCURVE SMOOTH",
"675 180 OFFCURVE",
"448 507 OFFCURVE",
"448 768 QCURVE SMOOTH",
"448 1026 OFFCURVE",
"672 1344 OFFCURVE",
"888 1344 QCURVE SMOOTH",
"1038 1344 OFFCURVE",
"1237 1191 OFFCURVE",
"1336 930 OFFCURVE",
"1336 768 QCURVE SMOOTH",
"1336 526 OFFCURVE",
"1235 368 QCURVE",
"1084 536 LINE"
);
}
);
width = 1716;
}
);
leftKerningGroup = uni0250;
note = uni048F;
rightKerningGroup = uni0062;
unicode = 048F;
},
{
glyphname = uni01A5;
layers = (
{
layerId = "25D77734-040B-4C95-BAE5-6EFF5F3D7B2E";
paths = (
{
closed = 1;
nodes = (
"444 1614 OFFCURVE",
"562 1696 OFFCURVE",
"668 1696 QCURVE SMOOTH",
"704 1696 OFFCURVE",
"744 1688 QCURVE",
"744 1888 LINE",
"706 1900 OFFCURVE",
"608 1900 QCURVE SMOOTH",
"425 1900 OFFCURVE",
"216 1711 OFFCURVE",
"216 1536 QCURVE SMOOTH",
"216 -576 LINE",
"452 -576 LINE",
"452 236 LINE",
"472 236 LINE",
"498 194 OFFCURVE",
"594 67 OFFCURVE",
"772 -32 OFFCURVE",
"920 -32 QCURVE SMOOTH",
"1112 -32 OFFCURVE",
"1406 163 OFFCURVE",
"1572 520 OFFCURVE",
"1572 764 QCURVE SMOOTH",
"1572 1006 OFFCURVE",
"1406 1362 OFFCURVE",
"1110 1556 OFFCURVE",
"916 1556 QCURVE SMOOTH",
"766 1556 OFFCURVE",
"591 1457 OFFCURVE",
"498 1332 OFFCURVE",
"472 1292 QCURVE",
"444 1292 LINE",
"444 1536 LINE SMOOTH"
);
},
{
closed = 1;
nodes = (
"448 1026 OFFCURVE",
"672 1344 OFFCURVE",
"888 1344 QCURVE SMOOTH",
"1038 1344 OFFCURVE",
"1237 1191 OFFCURVE",
"1336 930 OFFCURVE",
"1336 768 QCURVE SMOOTH",
"1336 604 OFFCURVE",
"1235 337 OFFCURVE",
"1036 180 OFFCURVE",
"888 180 QCURVE SMOOTH",
"675 180 OFFCURVE",
"448 507 OFFCURVE",
"448 768 QCURVE SMOOTH"
);
}
);
width = 1716;
}
);
leftKerningGroup = uni0250;
note = uni01A5;
rightKerningGroup = uni0062;
unicode = 01A5;
},
{
glyphname = uni02A0;
layers = (
{
layerId = "25D77734-040B-4C95-BAE5-6EFF5F3D7B2E";
paths = (
{
closed = 1;
nodes = (
"1500 1536 LINE SMOOTH",
"1500 1614 OFFCURVE",
"1618 1696 OFFCURVE",
"1724 1696 QCURVE SMOOTH",
"1760 1696 OFFCURVE",
"1800 1688 QCURVE",
"1800 1888 LINE",
"1762 1900 OFFCURVE",
"1664 1900 QCURVE SMOOTH",
"1481 1900 OFFCURVE",
"1272 1711 OFFCURVE",
"1272 1536 QCURVE SMOOTH",
"1272 1292 LINE",
"1244 1292 LINE",
"1218 1332 OFFCURVE",
"1125 1457 OFFCURVE",
"950 1556 OFFCURVE",
"800 1556 QCURVE SMOOTH",
"606 1556 OFFCURVE",
"310 1362 OFFCURVE",
"144 1006 OFFCURVE",
"144 764 QCURVE SMOOTH",
"144 520 OFFCURVE",
"310 163 OFFCURVE",
"604 -32 OFFCURVE",
"796 -32 QCURVE SMOOTH",
"944 -32 OFFCURVE",
"1122 67 OFFCURVE",
"1218 194 OFFCURVE",
"1244 236 QCURVE",
"1264 236 LINE",
"1264 -576 LINE",
"1500 -576 LINE"
);
},
{
closed = 1;
nodes = (
"1268 507 OFFCURVE",
"1041 180 OFFCURVE",
"828 180 QCURVE SMOOTH",
"680 180 OFFCURVE",
"481 337 OFFCURVE",
"380 604 OFFCURVE",
"380 768 QCURVE SMOOTH",
"380 930 OFFCURVE",
"479 1191 OFFCURVE",
"678 1344 OFFCURVE",
"828 1344 QCURVE SMOOTH",
"1044 1344 OFFCURVE",
"1268 1026 OFFCURVE",
"1268 768 QCURVE SMOOTH"
);
}
);
width = 1840;
}
);
leftKerningGroup = uni0250;
note = uni02A0;
rightKerningGroup = uni0062;
unicode = 02A0;
},
{
glyphname = uni024B;
layers = (
{
layerId = "25D77734-040B-4C95-BAE5-6EFF5F3D7B2E";
paths = (
{
closed = 1;
nodes = (
"1700 -576 OFFCURVE",
"1773 -573 OFFCURVE",
"1800 -564 QCURVE",
"1800 -364 LINE",
"1785 -367 OFFCURVE",
"1745 -372 OFFCURVE",
"1724 -372 QCURVE SMOOTH",
"1628 -372 OFFCURVE",
"1500 -284 OFFCURVE",
"1500 -164 QCURVE SMOOTH",
"1500 1536 LINE",
"1272 1536 LINE",
"1272 1292 LINE",
"1244 1292 LINE",
"1218 1332 OFFCURVE",
"1125 1457 OFFCURVE",
"950 1556 OFFCURVE",
"800 1556 QCURVE SMOOTH",
"606 1556 OFFCURVE",
"310 1362 OFFCURVE",
"144 1006 OFFCURVE",
"144 764 QCURVE SMOOTH",
"144 520 OFFCURVE",
"310 163 OFFCURVE",
"604 -32 OFFCURVE",
"796 -32 QCURVE SMOOTH",
"944 -32 OFFCURVE",
"1122 67 OFFCURVE",
"1218 194 OFFCURVE",
"1244 236 QCURVE",
"1264 236 LINE",
"1264 -164 LINE SMOOTH",
"1264 -362 OFFCURVE",
"1496 -576 OFFCURVE",
"1664 -576 QCURVE SMOOTH"
);
},
{
closed = 1;
nodes = (
"680 180 OFFCURVE",
"481 337 OFFCURVE",
"380 604 OFFCURVE",
"380 768 QCURVE SMOOTH",
"380 930 OFFCURVE",
"479 1191 OFFCURVE",
"678 1344 OFFCURVE",
"828 1344 QCURVE SMOOTH",
"1044 1344 OFFCURVE",
"1268 1026 OFFCURVE",
"1268 768 QCURVE SMOOTH",
"1268 507 OFFCURVE",
"1041 180 OFFCURVE",
"828 180 QCURVE SMOOTH"
);
}
);
width = 1800;
}
);
leftKerningGroup = uni0250;
note = uni024B;
rightKerningGroup = uni0256;
unicode = 024B;
},
{
glyphname = uni024A;
layers = (
{
layerId = "25D77734-040B-4C95-BAE5-6EFF5F3D7B2E";
paths = (
{
closed = 1;
nodes = (
"1668 2048 LINE",
"1668 1732 LINE",
"1644 1732 LINE",
"1569 1894 OFFCURVE",
"1246 2076 OFFCURVE",
"1036 2076 QCURVE SMOOTH",
"778 2076 OFFCURVE",
"387 1807 OFFCURVE",
"168 1336 OFFCURVE",
"168 1032 QCURVE SMOOTH",
"168 718 OFFCURVE",
"389 238 OFFCURVE",
"780 -32 OFFCURVE",
"1036 -32 QCURVE SMOOTH",
"1243 -32 OFFCURVE",
"1566 153 OFFCURVE",
"1644 324 QCURVE",
"1660 324 LINE",
"1660 -164 LINE SMOOTH",
"1660 -362 OFFCURVE",
"1892 -576 OFFCURVE",
"2060 -576 QCURVE SMOOTH",
"2096 -576 OFFCURVE",
"2169 -573 OFFCURVE",
"2196 -564 QCURVE",
"2196 -364 LINE",
"2181 -367 OFFCURVE",
"2141 -372 OFFCURVE",
"2120 -372 QCURVE SMOOTH",
"2024 -372 OFFCURVE",
"1896 -284 OFFCURVE",
"1896 -164 QCURVE SMOOTH",
"1896 2048 LINE"
);
},
{
closed = 1;
nodes = (
"854 204 OFFCURVE",
"572 404 OFFCURVE",
"412 774 OFFCURVE",
"412 1028 QCURVE SMOOTH",
"412 1266 OFFCURVE",
"568 1638 OFFCURVE",
"850 1852 OFFCURVE",
"1040 1852 QCURVE SMOOTH",
"1253 1852 OFFCURVE",
"1530 1628 OFFCURVE",
"1664 1254 OFFCURVE",
"1664 1028 QCURVE SMOOTH",
"1664 797 OFFCURVE",
"1538 424 OFFCURVE",
"1262 204 OFFCURVE",
"1036 204 QCURVE SMOOTH"
);
}
);
width = 2196;
}
);
note = uni024A;
rightKerningGroup = uni0256;
unicode = 024A;
},
{
glyphname = uni0072;
layers = (
{
layerId = "25D77734-040B-4C95-BAE5-6EFF5F3D7B2E";
paths = (
{
closed = 1;
nodes = (
"452 0 LINE",
"452 972 LINE SMOOTH",
"452 1128 OFFCURVE",
"672 1332 OFFCURVE",
"840 1332 QCURVE SMOOTH",
"887 1332 OFFCURVE",
"972 1319 OFFCURVE",
"984 1316 QCURVE",
"984 1556 LINE",
"964 1558 OFFCURVE",
"886 1560 OFFCURVE",
"860 1560 QCURVE SMOOTH",
"722 1560 OFFCURVE",
"502 1418 OFFCURVE",
"460 1304 QCURVE",
"444 1304 LINE",
"444 1536 LINE",
"216 1536 LINE",
"216 0 LINE"
);
}
);
width = 1048;
}
);
leftKerningGroup = uni0250;
note = uni0072;
rightKerningGroup = uni0072;
unicode = 0072;
},
{
glyphname = uniE05D;
layers = (
{
layerId = "25D77734-040B-4C95-BAE5-6EFF5F3D7B2E";
paths = (
{
closed = 1;
nodes = (
"652 -576 OFFCURVE",
"725 -573 OFFCURVE",
"752 -564 QCURVE",
"752 -364 LINE",
"737 -367 OFFCURVE",
"697 -372 OFFCURVE",
"676 -372 QCURVE SMOOTH",
"580 -372 OFFCURVE",
"452 -284 OFFCURVE",
"452 -164 QCURVE SMOOTH",
"452 972 LINE SMOOTH",
"452 1128 OFFCURVE",
"672 1332 OFFCURVE",
"840 1332 QCURVE SMOOTH",
"887 1332 OFFCURVE",
"972 1319 OFFCURVE",
"984 1316 QCURVE",
"984 1556 LINE",
"964 1558 OFFCURVE",
"886 1560 OFFCURVE",
"860 1560 QCURVE SMOOTH",
"722 1560 OFFCURVE",
"502 1418 OFFCURVE",
"460 1304 QCURVE",
"444 1304 LINE",
"444 1536 LINE",
"216 1536 LINE",
"216 -164 LINE SMOOTH",
"216 -362 OFFCURVE",
"448 -576 OFFCURVE",
"616 -576 QCURVE SMOOTH"
);
}
);
width = 1048;
}
);
leftKerningGroup = uni0250;
note = uniE05D;
rightKerningGroup = uni0072;
unicode = E05D;
},
{
glyphname = uni027B;
layers = (
{
layerId = "25D77734-040B-4C95-BAE5-6EFF5F3D7B2E";
paths = (
{
closed = 1;
nodes = (
"1029 -600 OFFCURVE",
"1105 -593 OFFCURVE",
"1132 -584 QCURVE",
"1132 -400 LINE",
"1117 -406 OFFCURVE",
"1071 -408 OFFCURVE",
"1056 -408 QCURVE SMOOTH",
"832 -408 OFFCURVE",
"832 -192 QCURVE SMOOTH",
"832 1536 LINE",
"596 1536 LINE",
"596 564 LINE SMOOTH",
"596 408 OFFCURVE",
"376 204 OFFCURVE",
"208 204 QCURVE SMOOTH",
"161 204 OFFCURVE",
"76 217 OFFCURVE",
"64 220 QCURVE",
"64 -20 LINE",
"84 -21 OFFCURVE",
"162 -24 OFFCURVE",
"188 -24 QCURVE SMOOTH",
"326 -24 OFFCURVE",
"546 118 OFFCURVE",
"588 232 QCURVE",
"604 232 LINE",
"604 -192 LINE SMOOTH",
"604 -390 OFFCURVE",
"828 -600 OFFCURVE",
"996 -600 QCURVE SMOOTH"
);
}
);
width = 1100;
}
);
note = uni027B;
rightKerningGroup = uni0256;
unicode = 027B;
},
{
glyphname = uni027F;
layers = (
{
layerId = "25D77734-040B-4C95-BAE5-6EFF5F3D7B2E";
paths = (
{
closed = 1;
nodes = (
"628 1148 LINE SMOOTH",
"628 1280 OFFCURVE",
"511 1462 OFFCURVE",
"320 1556 OFFCURVE",
"208 1556 QCURVE SMOOTH",
"178 1556 OFFCURVE",
"99 1545 OFFCURVE",
"72 1536 QCURVE",
"72 1328 LINE",
"90 1331 OFFCURVE",
"130 1336 OFFCURVE",
"148 1336 QCURVE SMOOTH",
"244 1336 OFFCURVE",
"392 1249 OFFCURVE",
"392 1132 QCURVE SMOOTH",
"392 -576 LINE",
"628 -576 LINE"
);
}
);
width = 844;
}
);
note = uni027F;
rightKerningGroup = uni0061;
unicode = 027F;
},
{
glyphname = uni027E;
layers = (
{
layerId = "25D77734-040B-4C95-BAE5-6EFF5F3D7B2E";
paths = (
{
closed = 1;
nodes = (
"452 1132 LINE SMOOTH",
"452 1249 OFFCURVE",
"600 1336 OFFCURVE",
"696 1336 QCURVE SMOOTH",
"714 1336 OFFCURVE",
"754 1331 OFFCURVE",
"772 1328 QCURVE",
"772 1536 LINE",
"745 1545 OFFCURVE",
"666 1556 OFFCURVE",
"636 1556 QCURVE SMOOTH",
"524 1556 OFFCURVE",
"333 1462 OFFCURVE",
"216 1280 OFFCURVE",
"216 1148 QCURVE SMOOTH",
"216 0 LINE",
"452 0 LINE"
);
}
);
width = 860;
}
);
leftKerningGroup = uni0250;
note = uni027E;
rightKerningGroup = uni0072;
unicode = 027E;
},
{
glyphname = uniE05E;
layers = (
{
layerId = "25D77734-040B-4C95-BAE5-6EFF5F3D7B2E";
paths = (
{
closed = 1;
nodes = (
"452 -576 LINE",
"452 972 LINE SMOOTH",
"452 1128 OFFCURVE",
"672 1332 OFFCURVE",
"840 1332 QCURVE SMOOTH",
"887 1332 OFFCURVE",
"972 1319 OFFCURVE",
"984 1316 QCURVE",
"984 1556 LINE",
"964 1558 OFFCURVE",
"886 1560 OFFCURVE",
"860 1560 QCURVE SMOOTH",
"722 1560 OFFCURVE",
"502 1418 OFFCURVE",
"460 1304 QCURVE",
"444 1304 LINE",
"444 1536 LINE",
"216 1536 LINE",
"216 -576 LINE"
);
}
);
width = 1048;
}
);
leftKerningGroup = uni0250;
note = uniE05E;
rightKerningGroup = uni0072;
unicode = E05E;
},
{
glyphname = uniE05F;
layers = (
{
layerId = "25D77734-040B-4C95-BAE5-6EFF5F3D7B2E";
paths = (
{
closed = 1;
nodes = (
"452 0 LINE",
"452 972 LINE SMOOTH",
"452 1127 OFFCURVE",
"672 1332 OFFCURVE",
"840 1332 QCURVE SMOOTH",
"884 1332 OFFCURVE",
"951 1317 OFFCURVE",
"976 1304 QCURVE",
"1056 1504 LINE",
"1020 1530 OFFCURVE",
"924 1560 OFFCURVE",
"860 1560 QCURVE SMOOTH",
"721 1560 OFFCURVE",
"501 1418 OFFCURVE",
"460 1304 QCURVE",
"444 1304 LINE",
"444 1536 LINE",
"216 1536 LINE",
"216 0 LINE"
);
}
);
width = 1080;
}
);
leftKerningGroup = uni0250;
note = uniE05F;
rightKerningGroup = uni0072;
unicode = E05F;
},
{
glyphname = uni027D;
layers = (
{
layerId = "25D77734-040B-4C95-BAE5-6EFF5F3D7B2E";
paths = (
{
closed = 1;
nodes = (
"652 -576 OFFCURVE",
"725 -573 OFFCURVE",
"752 -564 QCURVE",
"752 -364 LINE",
"737 -367 OFFCURVE",
"697 -372 OFFCURVE",
"676 -372 QCURVE SMOOTH",
"580 -372 OFFCURVE",
"452 -284 OFFCURVE",
"452 -164 QCURVE SMOOTH",
"452 972 LINE SMOOTH",
"452 1127 OFFCURVE",
"672 1332 OFFCURVE",
"840 1332 QCURVE SMOOTH",
"884 1332 OFFCURVE",
"951 1317 OFFCURVE",
"976 1304 QCURVE",
"1056 1504 LINE",
"1020 1530 OFFCURVE",
"924 1560 OFFCURVE",
"860 1560 QCURVE SMOOTH",
"721 1560 OFFCURVE",
"501 1418 OFFCURVE",
"460 1304 QCURVE",
"444 1304 LINE",
"444 1536 LINE",
"216 1536 LINE",
"216 -164 LINE SMOOTH",
"216 -362 OFFCURVE",
"448 -576 OFFCURVE",
"616 -576 QCURVE SMOOTH"
);
}
);
width = 1080;
}
);
leftKerningGroup = uni0250;
note = uni027D;
rightKerningGroup = uni0072;
unicode = 027D;
},
{
glyphname = uni027C;
layers = (
{
layerId = "25D77734-040B-4C95-BAE5-6EFF5F3D7B2E";
paths = (
{
closed = 1;
nodes = (
"452 -576 LINE",
"452 972 LINE SMOOTH",
"452 1127 OFFCURVE",
"672 1332 OFFCURVE",
"840 1332 QCURVE SMOOTH",
"884 1332 OFFCURVE",
"951 1317 OFFCURVE",
"976 1304 QCURVE",
"1056 1504 LINE",
"1020 1530 OFFCURVE",
"924 1560 OFFCURVE",
"860 1560 QCURVE SMOOTH",
"721 1560 OFFCURVE",
"501 1418 OFFCURVE",
"460 1304 QCURVE",
"444 1304 LINE",
"444 1536 LINE",
"216 1536 LINE",
"216 -576 LINE"
);
}
);
width = 1080;
}
);
leftKerningGroup = uni0250;
note = uni027C;
rightKerningGroup = uni0072;
unicode = 027C;
},
{
glyphname = uni0073;
layers = (
{
layerId = "25D77734-040B-4C95-BAE5-6EFF5F3D7B2E";
paths = (
{
closed = 1;
nodes = (
"1249 1356 OFFCURVE",
"988 1556 OFFCURVE",
"760 1556 QCURVE SMOOTH",
"598 1556 OFFCURVE",
"343 1442 OFFCURVE",
"196 1242 OFFCURVE",
"196 1112 QCURVE SMOOTH",
"196 953 OFFCURVE",
"393 742 OFFCURVE",
"604 692 QCURVE SMOOTH",
"860 632 LINE SMOOTH",
"1088 579 OFFCURVE",
"1088 416 QCURVE SMOOTH",
"1088 317 OFFCURVE",
"893 176 OFFCURVE",
"728 176 QCURVE SMOOTH",
"435 176 OFFCURVE",
"372 424 QCURVE",
"148 368 LINE",
"189 172 OFFCURVE",
"497 -32 OFFCURVE",
"732 -32 QCURVE SMOOTH",
"911 -32 OFFCURVE",
"1181 88 OFFCURVE",
"1332 296 OFFCURVE",
"1332 428 QCURVE SMOOTH",
"1332 744 OFFCURVE",
"924 844 QCURVE SMOOTH",
"696 900 LINE SMOOTH",
"560 934 OFFCURVE",
"432 1036 OFFCURVE",
"432 1124 QCURVE SMOOTH",
"432 1223 OFFCURVE",
"619 1352 OFFCURVE",
"760 1352 QCURVE SMOOTH",
"915 1352 OFFCURVE",
"1061 1212 OFFCURVE",
"1092 1132 QCURVE",
"1304 1192 LINE"
);
}
);
width = 1472;
}
);
leftKerningGroup = uni0073;
note = uni0073;
rightKerningGroup = uni0073;
unicode = 0073;
},
{
glyphname = uni0282;
layers = (
{
layerId = "25D77734-040B-4C95-BAE5-6EFF5F3D7B2E";
paths = (
{
closed = 1;
nodes = (
"148 -44 LINE SMOOTH",
"148 -242 OFFCURVE",
"381 -452 OFFCURVE",
"552 -452 QCURVE SMOOTH",
"585 -452 OFFCURVE",
"661 -445 OFFCURVE",
"688 -436 QCURVE",
"688 -232 LINE",
"673 -238 OFFCURVE",
"627 -240 OFFCURVE",
"612 -240 QCURVE SMOOTH",
"548 -240 OFFCURVE",
"429 -209 OFFCURVE",
"352 -124 OFFCURVE",
"352 -44 QCURVE SMOOTH",
"352 64 LINE",
"502 -32 OFFCURVE",
"732 -32 QCURVE SMOOTH",
"911 -32 OFFCURVE",
"1181 88 OFFCURVE",
"1332 296 OFFCURVE",
"1332 428 QCURVE SMOOTH",
"1332 744 OFFCURVE",
"924 844 QCURVE SMOOTH",
"696 900 LINE SMOOTH",
"560 934 OFFCURVE",
"432 1036 OFFCURVE",
"432 1124 QCURVE SMOOTH",
"432 1223 OFFCURVE",
"619 1352 OFFCURVE",
"760 1352 QCURVE SMOOTH",
"915 1352 OFFCURVE",
"1061 1212 OFFCURVE",
"1092 1132 QCURVE",
"1304 1192 LINE",
"1249 1356 OFFCURVE",
"988 1556 OFFCURVE",
"760 1556 QCURVE SMOOTH",
"598 1556 OFFCURVE",
"343 1442 OFFCURVE",
"196 1242 OFFCURVE",
"196 1112 QCURVE SMOOTH",
"196 953 OFFCURVE",
"393 742 OFFCURVE",
"604 692 QCURVE SMOOTH",
"860 632 LINE SMOOTH",
"1088 579 OFFCURVE",
"1088 416 QCURVE SMOOTH",
"1088 317 OFFCURVE",
"893 176 OFFCURVE",
"728 176 QCURVE SMOOTH",
"435 176 OFFCURVE",
"372 424 QCURVE",
"148 368 LINE"
);
}
);
width = 1472;
}
);
leftKerningGroup = uni0073;
note = uni0282;
rightKerningGroup = uni0073;
unicode = 0282;
},
{
glyphname = uni023F;
layers = (
{
layerId = "25D77734-040B-4C95-BAE5-6EFF5F3D7B2E";
paths = (
{
closed = 1;
nodes = (
"1249 1356 OFFCURVE",
"988 1556 OFFCURVE",
"760 1556 QCURVE SMOOTH",
"598 1556 OFFCURVE",
"343 1442 OFFCURVE",
"196 1242 OFFCURVE",
"196 1112 QCURVE SMOOTH",
"196 953 OFFCURVE",
"393 742 OFFCURVE",
"604 692 QCURVE SMOOTH",
"860 632 LINE SMOOTH",
"1088 579 OFFCURVE",
"1088 416 QCURVE SMOOTH",
"1088 317 OFFCURVE",
"893 176 OFFCURVE",
"728 176 QCURVE SMOOTH",
"435 176 OFFCURVE",
"372 424 QCURVE",
"148 368 LINE",
"171 259 OFFCURVE",
"231 177 QCURVE",
"480 -256 LINE SMOOTH",
"568 -408 OFFCURVE",
"752 -576 OFFCURVE",
"884 -576 QCURVE SMOOTH",
"965 -576 OFFCURVE",
"1119 -485 OFFCURVE",
"1164 -440 QCURVE",
"1072 -280 LINE",
"1039 -310 OFFCURVE",
"938 -376 OFFCURVE",
"884 -376 QCURVE SMOOTH",
"844 -376 OFFCURVE",
"772 -319 OFFCURVE",
"673 -166 OFFCURVE",
"592 -22 QCURVE",
"658 -32 OFFCURVE",
"732 -32 QCURVE SMOOTH",
"911 -32 OFFCURVE",
"1181 88 OFFCURVE",
"1332 296 OFFCURVE",
"1332 428 QCURVE SMOOTH",
"1332 744 OFFCURVE",
"924 844 QCURVE SMOOTH",
"696 900 LINE SMOOTH",
"560 934 OFFCURVE",
"432 1036 OFFCURVE",
"432 1124 QCURVE SMOOTH",
"432 1223 OFFCURVE",
"619 1352 OFFCURVE",
"760 1352 QCURVE SMOOTH",
"915 1352 OFFCURVE",
"1061 1212 OFFCURVE",
"1092 1132 QCURVE",
"1304 1192 LINE"
);
}
);
width = 1472;
}
);
leftKerningGroup = uni0073;
note = uni023F;
rightKerningGroup = uni0073;
unicode = 023F;
},
{
glyphname = uni00DF;
layers = (
{
layerId = "25D77734-040B-4C95-BAE5-6EFF5F3D7B2E";
paths = (
{
closed = 1;
nodes = (
"484 0 LINE",
"484 1524 LINE SMOOTH",
"484 1671 OFFCURVE",
"689 1856 OFFCURVE",
"844 1856 QCURVE SMOOTH",
"1009 1856 OFFCURVE",
"1200 1656 OFFCURVE",
"1200 1512 QCURVE SMOOTH",
"1200 1420 OFFCURVE",
"1120 1255 OFFCURVE",
"973 1152 OFFCURVE",
"872 1152 QCURVE SMOOTH",
"744 1152 LINE",
"744 928 LINE",
"924 928 LINE SMOOTH",
"1106 928 OFFCURVE",
"1320 722 OFFCURVE",
"1320 564 QCURVE SMOOTH",
"1320 413 OFFCURVE",
"1127 220 OFFCURVE",
"964 220 QCURVE SMOOTH",
"736 220 LINE",
"736 0 LINE",
"960 0 LINE SMOOTH",
"1140 0 OFFCURVE",
"1408 147 OFFCURVE",
"1556 402 OFFCURVE",
"1556 564 QCURVE SMOOTH",
"1556 778 OFFCURVE",
"1307 1045 OFFCURVE",
"1112 1064 QCURVE",
"1112 1084 LINE",
"1256 1134 OFFCURVE",
"1436 1373 OFFCURVE",
"1436 1548 QCURVE SMOOTH",
"1436 1712 OFFCURVE",
"1280 1948 OFFCURVE",
"1010 2076 OFFCURVE",
"840 2076 QCURVE SMOOTH",
"666 2076 OFFCURVE",
"399 1943 OFFCURVE",
"248 1695 OFFCURVE",
"248 1524 QCURVE SMOOTH",
"248 0 LINE"
);
}
);
width = 1716;
}
);
leftKerningGroup = uni0042;
note = uni00DF;
rightKerningGroup = uni0042;
unicode = 00DF;
},
{
glyphname = uniE06A;
layers = (
{
layerId = "25D77734-040B-4C95-BAE5-6EFF5F3D7B2E";
paths = (
{
closed = 1;
nodes = (
"484 1664 OFFCURVE",
"640 1856 OFFCURVE",
"788 1856 QCURVE SMOOTH",
"917 1856 OFFCURVE",
"1096 1714 OFFCURVE",
"1096 1564 QCURVE SMOOTH",
"1096 1476 OFFCURVE",
"1036 1369 OFFCURVE",
"956 1285 OFFCURVE",
"896 1182 OFFCURVE",
"896 1096 QCURVE SMOOTH",
"896 989 OFFCURVE",
"994 837 OFFCURVE",
"1138 721 OFFCURVE",
"1282 616 OFFCURVE",
"1380 496 OFFCURVE",
"1380 416 QCURVE SMOOTH",
"1380 312 OFFCURVE",
"1214 192 OFFCURVE",
"1068 192 QCURVE SMOOTH",
"946 192 OFFCURVE",
"797 263 OFFCURVE",
"752 292 QCURVE",
"656 84 LINE",
"716 42 OFFCURVE",
"943 -28 OFFCURVE",
"1084 -28 QCURVE SMOOTH",
"1321 -28 OFFCURVE",
"1616 192 OFFCURVE",
"1616 400 QCURVE SMOOTH",
"1616 524 OFFCURVE",
"1519 692 OFFCURVE",
"1376 813 OFFCURVE",
"1233 913 OFFCURVE",
"1136 1022 OFFCURVE",
"1136 1096 QCURVE SMOOTH",
"1136 1157 OFFCURVE",
"1194 1249 OFFCURVE",
"1270 1347 OFFCURVE",
"1328 1483 OFFCURVE",
"1328 1588 QCURVE SMOOTH",
"1328 1759 OFFCURVE",
"1166 1975 OFFCURVE",
"918 2076 OFFCURVE",
"788 2076 QCURVE SMOOTH",
"634 2076 OFFCURVE",
"389 1938 OFFCURVE",
"248 1664 OFFCURVE",
"248 1460 QCURVE SMOOTH",
"248 0 LINE",
"484 0 LINE",
"484 1460 LINE SMOOTH"
);
}
);
width = 1776;
}
);
leftKerningGroup = uni0042;
note = uniE06A;
rightKerningGroup = uni0042;
unicode = E06A;
},
{
glyphname = uni0074;
lastChange = "2019-07-09 22:31:10 +0000";
layers = (
{
layerId = "25D77734-040B-4C95-BAE5-6EFF5F3D7B2E";
paths = (
{
closed = 1;
nodes = (
"556 1536 LINE",
"556 1904 LINE",
"320 1904 LINE",
"320 1536 LINE",
"88 1536 LINE",
"88 1336 LINE",
"320 1336 LINE",
"320 266 LINE SMOOTH",
"320 132 OFFCURVE",
"456 0 OFFCURVE",
"596 0 QCURVE SMOOTH",
"651 0 OFFCURVE",
"821 0 OFFCURVE",
"864 0 QCURVE",
"864 228 LINE",
"829 228 OFFCURVE",
"659 228 OFFCURVE",
"620 228 QCURVE SMOOTH",
"573 228 OFFCURVE",
"556 284 OFFCURVE",
"556 330 QCURVE SMOOTH",
"556 1336 LINE",
"884 1336 LINE",
"884 1536 LINE"
);
}
);
width = 1024;
},
{
associatedMasterId = "25D77734-040B-4C95-BAE5-6EFF5F3D7B2E";
layerId = "F1E24446-A783-48BA-85B9-3FF2E40548CC";
name = "Jul 9 19, 18:29";
paths = (
{
closed = 1;
nodes = (
"556 1536 LINE",
"556 1904 LINE",
"320 1904 LINE",
"320 1536 LINE",
"88 1536 LINE",
"88 1336 LINE",
"320 1336 LINE",
"320 376 LINE SMOOTH",
"320 242 OFFCURVE",
"445 66 OFFCURVE",
"636 -20 OFFCURVE",
"736 -20 QCURVE SMOOTH",
"802 -20 OFFCURVE",
"888 -1 OFFCURVE",
"912 8 QCURVE",
"864 220 LINE",
"849 217 OFFCURVE",
"799 208 OFFCURVE",
"760 208 QCURVE SMOOTH",
"708 208 OFFCURVE",
"615 241 OFFCURVE",
"556 340 OFFCURVE",
"556 440 QCURVE SMOOTH",
"556 1336 LINE",
"884 1336 LINE",
"884 1536 LINE"
);
}
);
width = 1024;
}
);
leftKerningGroup = uni02AE;
note = uni0074;
rightKerningGroup = uni04A2;
unicode = 0074;
},
{
glyphname = uni01AB;
layers = (
{
layerId = "25D77734-040B-4C95-BAE5-6EFF5F3D7B2E";
paths = (
{
closed = 1;
nodes = (
"556 1536 LINE",
"556 1904 LINE",
"320 1904 LINE",
"320 1536 LINE",
"88 1536 LINE",
"88 1336 LINE",
"320 1336 LINE",
"320 376 LINE SMOOTH",
"320 254 OFFCURVE",
"425 86 OFFCURVE",
"592 -7 OFFCURVE",
"684 -17 QCURVE",
"684 -164 LINE SMOOTH",
"684 -284 OFFCURVE",
"556 -372 OFFCURVE",
"460 -372 QCURVE SMOOTH",
"439 -372 OFFCURVE",
"399 -367 OFFCURVE",
"384 -364 QCURVE",
"384 -564 LINE",
"411 -573 OFFCURVE",
"484 -576 OFFCURVE",
"520 -576 QCURVE SMOOTH",
"688 -576 OFFCURVE",
"920 -362 OFFCURVE",
"920 -164 QCURVE SMOOTH",
"920 232 LINE",
"824 213 LINE SMOOTH",
"794 208 OFFCURVE",
"760 208 QCURVE SMOOTH",
"708 208 OFFCURVE",
"615 241 OFFCURVE",
"556 340 OFFCURVE",
"556 440 QCURVE SMOOTH",
"556 1336 LINE",
"884 1336 LINE",
"884 1536 LINE"
);
}
);
width = 1032;
}
);
leftKerningGroup = uni02AE;
note = uni01AB;
rightKerningGroup = uni04A2;
unicode = 01AB;
},
{
glyphname = uni0288;
layers = (
{
layerId = "25D77734-040B-4C95-BAE5-6EFF5F3D7B2E";
paths = (
{
closed = 1;
nodes = (
"556 1536 LINE",
"556 1904 LINE",
"320 1904 LINE",
"320 1536 LINE",
"88 1536 LINE",
"88 1336 LINE",
"320 1336 LINE",
"320 -212 LINE SMOOTH",
"320 -346 OFFCURVE",
"445 -522 OFFCURVE",
"636 -608 OFFCURVE",
"736 -608 QCURVE SMOOTH",
"802 -608 OFFCURVE",
"888 -589 OFFCURVE",
"912 -580 QCURVE",
"864 -368 LINE",
"849 -371 OFFCURVE",
"799 -380 OFFCURVE",
"760 -380 QCURVE SMOOTH",
"708 -380 OFFCURVE",
"615 -347 OFFCURVE",
"556 -248 OFFCURVE",
"556 -148 QCURVE SMOOTH",
"556 1336 LINE",
"884 1336 LINE",
"884 1536 LINE"
);
}
);
width = 1040;
}
);
leftKerningGroup = uni02AE;
note = uni0288;
rightKerningGroup = uni0256;
unicode = 0288;
},
{
glyphname = uni0236;
layers = (
{
layerId = "25D77734-040B-4C95-BAE5-6EFF5F3D7B2E";
paths = (
{
closed = 1;
nodes = (
"400 1536 LINE",
"168 1536 LINE",
"168 1336 LINE",
"400 1336 LINE",
"400 493 LINE",
"334 433 OFFCURVE",
"181 276 OFFCURVE",
"88 176 QCURVE",
"240 20 LINE",
"352 139 OFFCURVE",
"432 219 QCURVE",
"472 115 OFFCURVE",
"661 -32 OFFCURVE",
"824 -32 QCURVE SMOOTH",
"1015 -32 OFFCURVE",
"1236 178 OFFCURVE",
"1236 344 QCURVE SMOOTH",
"1236 494 OFFCURVE",
"1038 696 OFFCURVE",
"844 696 QCURVE SMOOTH",
"732 696 OFFCURVE",
"636 655 QCURVE",
"636 1336 LINE",
"964 1336 LINE",
"964 1536 LINE",
"636 1536 LINE",
"636 1904 LINE",
"400 1904 LINE"
);
},
{
closed = 1;
nodes = (
"742 484 OFFCURVE",
"812 484 QCURVE SMOOTH",
"916 484 OFFCURVE",
"992 393 OFFCURVE",
"992 332 QCURVE SMOOTH",
"992 252 OFFCURVE",
"891 172 OFFCURVE",
"824 172 QCURVE SMOOTH",
"744 172 OFFCURVE",
"636 271 OFFCURVE",
"636 340 QCURVE SMOOTH",
"636 403 LINE"
);
}
);
width = 1364;
}
);
leftKerningGroup = uni02AE;
note = uni0236;
rightKerningGroup = uni04A2;
unicode = 0236;
},
{
glyphname = uni02A8;
layers = (
{
layerId = "25D77734-040B-4C95-BAE5-6EFF5F3D7B2E";
paths = (
{
closed = 1;
nodes = (
"556 1536 LINE",
"556 1904 LINE",
"320 1904 LINE",
"320 1536 LINE",
"88 1536 LINE",
"88 1336 LINE",
"320 1336 LINE",
"320 412 LINE SMOOTH",
"320 193 OFFCURVE",
"559 -21 OFFCURVE",
"728 -20 QCURVE SMOOTH",
"832 -19 OFFCURVE",
"1025 57 OFFCURVE",
"1111 119 QCURVE",
"1196 47 OFFCURVE",
"1416 -32 OFFCURVE",
"1548 -32 QCURVE SMOOTH",
"1706 -32 OFFCURVE",
"1964 82 OFFCURVE",
"2116 285 OFFCURVE",
"2116 420 QCURVE SMOOTH",
"2116 566 OFFCURVE",
"1927 764 OFFCURVE",
"1740 764 QCURVE SMOOTH",
"1563 764 OFFCURVE",
"1278 594 OFFCURVE",
"1145 458 QCURVE",
"1088 592 OFFCURVE",
"1088 768 QCURVE SMOOTH",
"1088 1029 OFFCURVE",
"1341 1344 OFFCURVE",
"1548 1344 QCURVE SMOOTH",
"1704 1344 OFFCURVE",
"1889 1181 OFFCURVE",
"1916 1076 QCURVE",
"2152 1076 LINE",
"2132 1220 OFFCURVE",
"1966 1436 OFFCURVE",
"1706 1556 OFFCURVE",
"1544 1556 QCURVE SMOOTH",
"1336 1556 OFFCURVE",
"1025 1353 OFFCURVE",
"852 994 OFFCURVE",
"852 760 QCURVE SMOOTH",
"852 490 OFFCURVE",
"966 293 QCURVE",
"904 248 OFFCURVE",
"782 196 OFFCURVE",
"728 196 QCURVE SMOOTH",
"664 196 OFFCURVE",
"556 289 OFFCURVE",
"556 412 QCURVE SMOOTH",
"556 1336 LINE",
"884 1336 LINE",
"884 1536 LINE"
);
},
{
closed = 1;
nodes = (
"1285 280 OFFCURVE",
"1292 288 QCURVE SMOOTH",
"1406 420 OFFCURVE",
"1609 552 OFFCURVE",
"1732 552 QCURVE SMOOTH",
"1821 552 OFFCURVE",
"1896 486 OFFCURVE",
"1896 424 QCURVE SMOOTH",
"1896 346 OFFCURVE",
"1797 237 OFFCURVE",
"1638 180 OFFCURVE",
"1548 180 QCURVE SMOOTH",
"1391 180 OFFCURVE",
"1279 273 QCURVE"
);
}
);
width = 2296;
}
);
leftKerningGroup = uni02AE;
note = uni02A8;
rightKerningGroup = uni0250;
unicode = 02A8;
},
{
glyphname = uni0167;
layers = (
{
layerId = "25D77734-040B-4C95-BAE5-6EFF5F3D7B2E";
paths = (
{
closed = 1;
nodes = (
"320 840 LINE",
"320 376 LINE SMOOTH",
"320 242 OFFCURVE",
"445 66 OFFCURVE",
"636 -20 OFFCURVE",
"736 -20 QCURVE SMOOTH",
"802 -20 OFFCURVE",
"888 -1 OFFCURVE",
"912 8 QCURVE",
"864 220 LINE",
"849 217 OFFCURVE",
"799 208 OFFCURVE",
"760 208 QCURVE SMOOTH",
"708 208 OFFCURVE",
"615 241 OFFCURVE",
"556 340 OFFCURVE",
"556 440 QCURVE SMOOTH",
"556 840 LINE",
"884 840 LINE",
"884 1024 LINE",
"556 1024 LINE",
"556 1336 LINE",
"884 1336 LINE",
"884 1536 LINE",
"556 1536 LINE",
"556 1904 LINE",
"320 1904 LINE",
"320 1536 LINE",
"88 1536 LINE",
"88 1336 LINE",
"320 1336 LINE",
"320 1024 LINE",
"88 1024 LINE",
"88 840 LINE"
);
}
);
width = 1024;
}
);
leftKerningGroup = uni02AE;
note = uni0167;
rightKerningGroup = uni04A2;
unicode = 0167;
},
{
glyphname = uni0075;
layers = (
{
layerId = "25D77734-040B-4C95-BAE5-6EFF5F3D7B2E";
paths = (
{
closed = 1;
nodes = (
"1184 484 OFFCURVE",
"1059 298 OFFCURVE",
"876 208 OFFCURVE",
"788 208 QCURVE SMOOTH",
"641 208 OFFCURVE",
"452 408 OFFCURVE",
"452 576 QCURVE SMOOTH",
"452 1536 LINE",
"216 1536 LINE",
"216 560 LINE SMOOTH",
"216 266 OFFCURVE",
"496 -20 OFFCURVE",
"712 -20 QCURVE SMOOTH",
"886 -20 OFFCURVE",
"1114 143 OFFCURVE",
"1168 260 QCURVE",
"1184 260 LINE",
"1184 0 LINE",
"1420 0 LINE",
"1420 1536 LINE",
"1184 1536 LINE",
"1184 628 LINE SMOOTH"
);
}
);
width = 1636;
}
);
leftKerningGroup = uni0265;
note = uni0075;
rightKerningGroup = uni01F6;
unicode = 0075;
},
{
glyphname = uni01B0;
layers = (
{
layerId = "25D77734-040B-4C95-BAE5-6EFF5F3D7B2E";
paths = (
{
closed = 1;
nodes = (
"1600 1511 OFFCURVE",
"1584 1387 OFFCURVE",
"1508 1320 OFFCURVE",
"1420 1311 QCURVE",
"1420 1536 LINE",
"1184 1536 LINE",
"1184 628 LINE SMOOTH",
"1184 484 OFFCURVE",
"1059 298 OFFCURVE",
"876 208 OFFCURVE",
"788 208 QCURVE SMOOTH",
"641 208 OFFCURVE",
"452 408 OFFCURVE",
"452 576 QCURVE SMOOTH",
"452 1536 LINE",
"216 1536 LINE",
"216 560 LINE SMOOTH",
"216 266 OFFCURVE",
"496 -20 OFFCURVE",
"712 -20 QCURVE SMOOTH",
"886 -20 OFFCURVE",
"1114 143 OFFCURVE",
"1168 260 QCURVE",
"1184 260 LINE",
"1184 0 LINE",
"1420 0 LINE",
"1420 1146 LINE",
"1646 1162 OFFCURVE",
"1808 1392 OFFCURVE",
"1808 1604 QCURVE",
"1600 1604 LINE"
);
}
);
width = 1752;
}
);
leftKerningGroup = uni0265;
note = uni01B0;
rightKerningGroup = uni01F6;
unicode = 01B0;
},
{
glyphname = uni00B5;
layers = (
{
layerId = "25D77734-040B-4C95-BAE5-6EFF5F3D7B2E";
paths = (
{
closed = 1;
nodes = (
"452 -576 LINE",
"452 228 LINE",
"464 228 LINE",
"527 107 OFFCURVE",
"748 -20 OFFCURVE",
"876 -20 QCURVE SMOOTH",
"1004 -20 OFFCURVE",
"1226 107 OFFCURVE",
"1288 228 QCURVE",
"1300 228 LINE",
"1300 0 LINE",
"1536 0 LINE",
"1536 1536 LINE",
"1300 1536 LINE",
"1300 628 LINE SMOOTH",
"1300 442 OFFCURVE",
"1068 208 OFFCURVE",
"876 208 QCURVE SMOOTH",
"684 208 OFFCURVE",
"452 441 OFFCURVE",
"452 628 QCURVE SMOOTH",
"452 1536 LINE",
"216 1536 LINE",
"216 -576 LINE"
);
}
);
width = 1752;
}
);
leftKerningGroup = uni0265;
note = uni00B5;
rightKerningGroup = uni01F6;
unicode = 00B5;
},
{
glyphname = uni0289;
layers = (
{
layerId = "25D77734-040B-4C95-BAE5-6EFF5F3D7B2E";
paths = (
{
closed = 1;
nodes = (
"1468 980 LINE",
"1468 1536 LINE",
"1232 1536 LINE",
"1232 980 LINE",
"500 980 LINE",
"500 1536 LINE",
"264 1536 LINE",
"264 980 LINE",
"0 980 LINE",
"0 796 LINE",
"264 796 LINE",
"264 560 LINE SMOOTH",
"264 266 OFFCURVE",
"544 -20 OFFCURVE",
"760 -20 QCURVE SMOOTH",
"934 -20 OFFCURVE",
"1162 143 OFFCURVE",
"1216 260 QCURVE",
"1232 260 LINE",
"1232 0 LINE",
"1468 0 LINE",
"1468 796 LINE",
"1732 796 LINE",
"1732 980 LINE"
);
},
{
closed = 1;
nodes = (
"1232 484 OFFCURVE",
"1107 298 OFFCURVE",
"924 208 OFFCURVE",
"836 208 QCURVE SMOOTH",
"689 208 OFFCURVE",
"500 408 OFFCURVE",
"500 576 QCURVE SMOOTH",
"500 796 LINE",
"1232 796 LINE",
"1232 628 LINE SMOOTH"
);
}
);
width = 1732;
}
);
leftKerningGroup = uni0265;
note = uni0289;
rightKerningGroup = uni01F6;
unicode = 0289;
},
{
glyphname = uni0076;
layers = (
{
layerId = "25D77734-040B-4C95-BAE5-6EFF5F3D7B2E";
paths = (
{
closed = 1;
nodes = (
"1216 1536 LINE",
"792 312 LINE",
"776 312 LINE",
"352 1536 LINE",
"96 1536 LINE",
"664 0 LINE",
"904 0 LINE",
"1472 1536 LINE"
);
}
);
width = 1568;
}
);
leftKerningGroup = uni0076;
note = uni0076;
rightKerningGroup = uni0076;
unicode = 0076;
},
{
glyphname = uni0077;
layers = (
{
layerId = "25D77734-040B-4C95-BAE5-6EFF5F3D7B2E";
paths = (
{
closed = 1;
nodes = (
"796 0 LINE",
"1132 1180 LINE",
"1156 1180 LINE",
"1492 0 LINE",
"1724 0 LINE",
"2192 1536 LINE",
"1944 1536 LINE",
"1612 364 LINE",
"1596 364 LINE",
"1272 1536 LINE",
"1020 1536 LINE",
"692 360 LINE",
"676 360 LINE",
"344 1536 LINE",
"96 1536 LINE",
"564 0 LINE"
);
}
);
width = 2288;
}
);
leftKerningGroup = uni0077;
note = uni0077;
rightKerningGroup = uni0077;
unicode = 0077;
},
{
glyphname = uni0078;
layers = (
{
layerId = "25D77734-040B-4C95-BAE5-6EFF5F3D7B2E";
paths = (
{
closed = 1;
nodes = (
"120 1536 LINE",
"608 768 LINE",
"120 0 LINE",
"392 0 LINE",
"760 596 LINE",
"1128 0 LINE",
"1400 0 LINE",
"904 768 LINE",
"1400 1536 LINE",
"1128 1536 LINE",
"760 908 LINE",
"392 1536 LINE"
);
}
);
width = 1520;
}
);
leftKerningGroup = uni029E;
note = uni0078;
rightKerningGroup = uni0078;
unicode = 0078;
},
{
glyphname = uni03C7;
layers = (
{
layerId = "25D77734-040B-4C95-BAE5-6EFF5F3D7B2E";
paths = (
{
closed = 1;
nodes = (
"448 -576 LINE",
"886 262 LINE",
"1172 -310 LINE SMOOTH",
"1228 -421 OFFCURVE",
"1336 -535 OFFCURVE",
"1484 -576 OFFCURVE",
"1598 -576 QCURVE SMOOTH",
"1656 -576 LINE",
"1656 -356 LINE",
"1598 -356 LINE SMOOTH",
"1530 -356 OFFCURVE",
"1455 -340 OFFCURVE",
"1401 -277 OFFCURVE",
"1366 -208 QCURVE SMOOTH",
"1014 489 LINE",
"1580 1536 LINE",
"1330 1536 LINE",
"890 716 LINE",
"604 1268 LINE SMOOTH",
"543 1385 OFFCURVE",
"435 1508 OFFCURVE",
"292 1552 OFFCURVE",
"178 1552 QCURVE SMOOTH",
"120 1552 LINE",
"120 1332 LINE",
"178 1332 LINE SMOOTH",
"248 1332 OFFCURVE",
"317 1316 OFFCURVE",
"368 1246 OFFCURVE",
"410 1166 QCURVE SMOOTH",
"762 491 LINE",
"198 -576 LINE"
);
}
);
width = 1688;
}
);
leftKerningGroup = uni0076;
note = uni03C7;
rightKerningGroup = uni0256;
unicode = 03C7;
},
{
glyphname = uni0079;
layers = (
{
layerId = "25D77734-040B-4C95-BAE5-6EFF5F3D7B2E";
paths = (
{
closed = 1;
nodes = (
"690 -572 OFFCURVE",
"820 -224 QCURVE SMOOTH",
"1474 1532 LINE",
"1216 1536 LINE",
"792 312 LINE",
"776 312 LINE",
"352 1536 LINE",
"96 1536 LINE",
"664 -8 LINE",
"620 -128 LINE SMOOTH",
"557 -300 OFFCURVE",
"385 -369 OFFCURVE",
"256 -336 QCURVE",
"196 -544 LINE",
"214 -553 OFFCURVE",
"308 -572 OFFCURVE",
"368 -572 QCURVE SMOOTH"
);
}
);
width = 1570;
}
);
leftKerningGroup = uni0076;
note = uni0079;
rightKerningGroup = uni0076;
unicode = 0079;
},
{
glyphname = uni01B4;
layers = (
{
layerId = "25D77734-040B-4C95-BAE5-6EFF5F3D7B2E";
paths = (
{
closed = 1;
nodes = (
"1364 1360 LINE SMOOTH",
"1424 1528 OFFCURVE",
"1531 1688 OFFCURVE",
"1624 1688 QCURVE SMOOTH",
"1666 1688 OFFCURVE",
"1753 1657 OFFCURVE",
"1792 1636 QCURVE",
"1856 1800 LINE",
"1805 1842 OFFCURVE",
"1666 1896 OFFCURVE",
"1588 1896 QCURVE SMOOTH",
"1464 1896 OFFCURVE",
"1294 1763 OFFCURVE",
"1180 1556 OFFCURVE",
"1140 1444 QCURVE SMOOTH",
"1120 1388 LINE",
"760 348 LINE",
"352 1536 LINE",
"96 1536 LINE",
"640 0 LINE",
"592 -136 LINE SMOOTH",
"544 -274 OFFCURVE",
"377 -368 OFFCURVE",
"248 -368 QCURVE SMOOTH",
"197 -368 OFFCURVE",
"141 -363 OFFCURVE",
"132 -360 QCURVE",
"132 -580 LINE",
"146 -584 OFFCURVE",
"217 -593 OFFCURVE",
"292 -600 OFFCURVE",
"312 -600 QCURVE SMOOTH",
"480 -600 OFFCURVE",
"741 -405 OFFCURVE",
"804 -228 QCURVE SMOOTH",
"1344 1304 LINE"
);
}
);
width = 1716;
}
);
leftKerningGroup = uni0076;
note = uni01B4;
rightKerningGroup = uni0066;
unicode = 01B4;
},
{
glyphname = uni024F;
layers = (
{
layerId = "25D77734-040B-4C95-BAE5-6EFF5F3D7B2E";
paths = (
{
closed = 1;
nodes = (
"1312 1096 LINE",
"1474 1532 LINE",
"1216 1536 LINE",
"1064 1096 LINE",
"504 1096 LINE",
"352 1536 LINE",
"96 1536 LINE",
"258 1096 LINE",
"108 1096 LINE",
"108 912 LINE",
"326 912 LINE",
"664 -8 LINE",
"620 -128 LINE SMOOTH",
"557 -300 OFFCURVE",
"385 -369 OFFCURVE",
"256 -336 QCURVE",
"196 -544 LINE",
"214 -553 OFFCURVE",
"308 -572 OFFCURVE",
"368 -572 QCURVE SMOOTH",
"690 -572 OFFCURVE",
"820 -224 QCURVE SMOOTH",
"1243 912 LINE",
"1452 912 LINE",
"1452 1096 LINE"
);
},
{
closed = 1;
nodes = (
"792 312 LINE",
"776 312 LINE",
"568 912 LINE",
"1000 912 LINE"
);
}
);
width = 1568;
}
);
leftKerningGroup = uni0076;
note = uni024F;
rightKerningGroup = uni0076;
unicode = 024F;
},
{
glyphname = uni007A;
layers = (
{
layerId = "25D77734-040B-4C95-BAE5-6EFF5F3D7B2E";
paths = (
{
closed = 1;
nodes = (
"1376 0 LINE",
"1376 220 LINE",
"500 220 LINE",
"500 236 LINE",
"1348 1348 LINE",
"1348 1536 LINE",
"200 1536 LINE",
"200 1316 LINE",
"1044 1316 LINE",
"1044 1300 LINE",
"172 180 LINE",
"172 0 LINE"
);
}
);
width = 1524;
}
);
leftKerningGroup = uni007A;
note = uni007A;
rightKerningGroup = uni01F2;
unicode = 007A;
},
{
glyphname = uni0225;
layers = (
{
layerId = "25D77734-040B-4C95-BAE5-6EFF5F3D7B2E";
paths = (
{
closed = 1;
nodes = (
"1404 -320 LINE",
"1404 -184 LINE SMOOTH",
"1404 -13 OFFCURVE",
"1191 220 OFFCURVE",
"996 220 QCURVE SMOOTH",
"484 220 LINE",
"1344 1348 LINE",
"1344 1536 LINE",
"160 1536 LINE",
"160 1316 LINE",
"1040 1316 LINE",
"176 200 LINE",
"176 0 LINE",
"996 0 LINE SMOOTH",
"1116 0 OFFCURVE",
"1192 -148 OFFCURVE",
"1192 -244 QCURVE SMOOTH",
"1192 -320 LINE"
);
}
);
width = 1520;
}
);
leftKerningGroup = uni007A;
note = uni0225;
rightKerningGroup = uni01F2;
unicode = 0225;
},
{
glyphname = uni0240;
layers = (
{
layerId = "25D77734-040B-4C95-BAE5-6EFF5F3D7B2E";
paths = (
{
closed = 1;
nodes = (
"1344 1348 LINE",
"1344 1536 LINE",
"160 1536 LINE",
"160 1316 LINE",
"1040 1316 LINE",
"176 200 LINE",
"176 0 LINE",
"516 0 LINE SMOOTH",
"648 0 OFFCURVE",
"822 -116 OFFCURVE",
"947 -288 OFFCURVE",
"1063 -460 OFFCURVE",
"1208 -576 OFFCURVE",
"1316 -576 QCURVE SMOOTH",
"1415 -576 OFFCURVE",
"1563 -485 OFFCURVE",
"1608 -440 QCURVE",
"1516 -280 LINE",
"1480 -313 OFFCURVE",
"1389 -356 OFFCURVE",
"1332 -356 QCURVE SMOOTH",
"1267 -356 OFFCURVE",
"1162 -240 OFFCURVE",
"1050 -68 OFFCURVE",
"904 104 OFFCURVE",
"695 220 OFFCURVE",
"544 220 QCURVE SMOOTH",
"484 220 LINE"
);
}
);
width = 1516;
}
);
leftKerningGroup = uni007A;
note = uni0240;
rightKerningGroup = uni0256;
unicode = 0240;
},
{
glyphname = uni0290;
layers = (
{
layerId = "25D77734-040B-4C95-BAE5-6EFF5F3D7B2E";
paths = (
{
closed = 1;
nodes = (
"1140 -192 LINE SMOOTH",
"1140 -390 OFFCURVE",
"1373 -600 OFFCURVE",
"1544 -600 QCURVE SMOOTH",
"1577 -600 OFFCURVE",
"1653 -593 OFFCURVE",
"1680 -584 QCURVE",
"1680 -380 LINE",
"1665 -386 OFFCURVE",
"1619 -388 OFFCURVE",
"1604 -388 QCURVE SMOOTH",
"1508 -388 OFFCURVE",
"1376 -312 OFFCURVE",
"1376 -192 QCURVE SMOOTH",
"1376 220 LINE",
"500 220 LINE",
"500 236 LINE",
"1348 1348 LINE",
"1348 1536 LINE",
"200 1536 LINE",
"200 1316 LINE",
"1044 1316 LINE",
"1044 1300 LINE",
"172 180 LINE",
"172 0 LINE",
"1140 0 LINE"
);
}
);
width = 1680;
}
);
leftKerningGroup = uni007A;
note = uni0290;
rightKerningGroup = uni0256;
unicode = 0290;
},
{
glyphname = uni0291;
layers = (
{
layerId = "25D77734-040B-4C95-BAE5-6EFF5F3D7B2E";
paths = (
{
closed = 1;
nodes = (
"1243 0 OFFCURVE",
"1471 91 OFFCURVE",
"1610 235 OFFCURVE",
"1672 395 OFFCURVE",
"1672 464 QCURVE SMOOTH",
"1672 558 OFFCURVE",
"1576 704 OFFCURVE",
"1416 788 OFFCURVE",
"1320 788 QCURVE SMOOTH",
"1202 788 OFFCURVE",
"1000 654 OFFCURVE",
"792 400 OFFCURVE",
"664 220 QCURVE",
"496 220 LINE",
"1356 1348 LINE",
"1356 1536 LINE",
"172 1536 LINE",
"172 1316 LINE",
"1052 1316 LINE",
"188 200 LINE",
"188 0 LINE",
"508 0 LINE",
"408 -140 LINE",
"592 -264 LINE",
"780 0 LINE",
"1076 0 LINE SMOOTH"
);
},
{
closed = 1;
nodes = (
"1048 385 OFFCURVE",
"1209 560 OFFCURVE",
"1304 560 QCURVE SMOOTH",
"1355 560 OFFCURVE",
"1440 504 OFFCURVE",
"1440 444 QCURVE SMOOTH",
"1440 363 OFFCURVE",
"1260 220 OFFCURVE",
"1080 220 QCURVE SMOOTH",
"933 220 LINE"
);
}
);
width = 1732;
}
);
leftKerningGroup = uni007A;
note = uni0291;
rightKerningGroup = uni01F2;
unicode = 0291;
},
{
glyphname = uni00DE;
layers = (
{
layerId = "25D77734-040B-4C95-BAE5-6EFF5F3D7B2E";
paths = (
{
closed = 1;
nodes = (
"232 0 LINE",
"480 0 LINE",
"480 448 LINE",
"876 448 LINE SMOOTH",
"1094 448 OFFCURVE",
"1396 607 OFFCURVE",
"1552 874 OFFCURVE",
"1552 1036 QCURVE SMOOTH",
"1552 1198 OFFCURVE",
"1396 1465 OFFCURVE",
"1094 1624 OFFCURVE",
"876 1624 QCURVE SMOOTH",
"480 1624 LINE",
"480 2048 LINE",
"232 2048 LINE"
);
},
{
closed = 1;
nodes = (
"480 1404 LINE",
"876 1404 LINE SMOOTH",
"1089 1404 OFFCURVE",
"1316 1206 OFFCURVE",
"1316 1032 QCURVE SMOOTH",
"1316 858 OFFCURVE",
"1089 668 OFFCURVE",
"876 668 QCURVE SMOOTH",
"480 668 LINE"
);
}
);
width = 1776;
}
);
leftKerningGroup = uni0042;
note = uni00DE;
unicode = 00DE;
},
{
glyphname = uni0393;
layers = (
{
layerId = "25D77734-040B-4C95-BAE5-6EFF5F3D7B2E";
paths = (
{
closed = 1;
nodes = (
"248 2048 LINE",
"248 0 LINE",
"496 0 LINE",
"496 1828 LINE",
"1484 1828 LINE",
"1484 2048 LINE"
);
}
);
width = 1620;
}
);
leftKerningGroup = uni0042;
note = uni0393;
rightKerningGroup = uni04A4;
unicode = 0393;
},
{
glyphname = uni0394;
layers = (
{
layerId = "25D77734-040B-4C95-BAE5-6EFF5F3D7B2E";
paths = (
{
closed = 1;
nodes = (
"1832 0 LINE",
"1080 2048 LINE",
"824 2048 LINE",
"72 0 LINE"
);
},
{
closed = 1;
nodes = (
"944 1724 LINE",
"960 1724 LINE",
"1492 220 LINE",
"412 220 LINE"
);
}
);
width = 1904;
}
);
leftKerningGroup = uni0394;
note = uni0394;
rightKerningGroup = uni0394;
unicode = "0394,2206";
},
{
glyphname = uni0398;
layers = (
{
layerId = "25D77734-040B-4C95-BAE5-6EFF5F3D7B2E";
paths = (
{
closed = 1;
nodes = (
"1976 1348 OFFCURVE",
"1742 1820 OFFCURVE",
"1334 2076 OFFCURVE",
"1072 2076 QCURVE SMOOTH",
"810 2076 OFFCURVE",
"402 1820 OFFCURVE",
"168 1348 OFFCURVE",
"168 1024 QCURVE SMOOTH",
"168 700 OFFCURVE",
"402 228 OFFCURVE",
"810 -28 OFFCURVE",
"1072 -28 QCURVE SMOOTH",
"1334 -28 OFFCURVE",
"1742 228 OFFCURVE",
"1976 700 OFFCURVE",
"1976 1024 QCURVE SMOOTH"
);
},
{
closed = 1;
nodes = (
"1736 758 OFFCURVE",
"1559 392 OFFCURVE",
"1258 204 OFFCURVE",
"1072 204 QCURVE SMOOTH",
"886 204 OFFCURVE",
"585 392 OFFCURVE",
"408 758 OFFCURVE",
"408 1024 QCURVE SMOOTH",
"408 1290 OFFCURVE",
"585 1656 OFFCURVE",
"886 1844 OFFCURVE",
"1072 1844 QCURVE SMOOTH",
"1258 1844 OFFCURVE",
"1559 1656 OFFCURVE",
"1736 1290 OFFCURVE",
"1736 1024 QCURVE SMOOTH"
);
},
{
closed = 1;
nodes = (
"724 1136 LINE",
"724 916 LINE",
"1424 916 LINE",
"1424 1136 LINE"
);
}
);
width = 2144;
}
);
leftKerningGroup = uni0398;
note = uni0398;
rightKerningGroup = uni0398;
unicode = 0398;
},
{
glyphname = uni039E;
layers = (
{
layerId = "25D77734-040B-4C95-BAE5-6EFF5F3D7B2E";
paths = (
{
closed = 1;
nodes = (
"1408 0 LINE",
"1408 220 LINE",
"112 220 LINE",
"112 0 LINE"
);
},
{
closed = 1;
nodes = (
"1388 1828 LINE",
"1388 2048 LINE",
"116 2048 LINE",
"116 1828 LINE"
);
},
{
closed = 1;
nodes = (
"1280 932 LINE",
"1280 1152 LINE",
"232 1152 LINE",
"232 932 LINE"
);
}
);
width = 1520;
}
);
note = uni039E;
unicode = 039E;
},
{
glyphname = uni03A0;
layers = (
{
layerId = "25D77734-040B-4C95-BAE5-6EFF5F3D7B2E";
paths = (
{
closed = 1;
nodes = (
"252 2048 LINE",
"252 0 LINE",
"500 0 LINE",
"500 1828 LINE",
"1532 1828 LINE",
"1532 0 LINE",
"1780 0 LINE",
"1780 2048 LINE"
);
}
);
width = 2032;
}
);
leftKerningGroup = uni0042;
note = uni03A0;
unicode = 03A0;
},
{
glyphname = uni03A3;
layers = (
{
layerId = "25D77734-040B-4C95-BAE5-6EFF5F3D7B2E";
paths = (
{
closed = 1;
nodes = (
"541 232 LINE",
"1140 984 LINE",
"1140 1012 LINE",
"539 1772 LINE",
"1528 1772 LINE",
"1528 2004 LINE",
"184 2004 LINE",
"184 1792 LINE",
"836 996 LINE",
"184 208 LINE",
"184 0 LINE",
"1592 0 LINE",
"1592 232 LINE"
);
}
);
width = 1776;
}
);
note = uni03A3;
unicode = 03A3;
},
{
glyphname = uni03A6;
layers = (
{
layerId = "25D77734-040B-4C95-BAE5-6EFF5F3D7B2E";
paths = (
{
closed = 1;
nodes = (
"940 2004 LINE",
"940 1748 LINE",
"715 1745 OFFCURVE",
"354 1553 OFFCURVE",
"144 1214 OFFCURVE",
"144 992 QCURVE SMOOTH",
"144 771 OFFCURVE",
"350 434 OFFCURVE",
"710 244 OFFCURVE",
"940 240 QCURVE",
"940 0 LINE",
"1180 0 LINE",
"1180 240 LINE",
"1409 244 OFFCURVE",
"1765 436 OFFCURVE",
"1968 773 OFFCURVE",
"1968 996 QCURVE SMOOTH",
"1968 1217 OFFCURVE",
"1761 1553 OFFCURVE",
"1404 1744 OFFCURVE",
"1180 1748 QCURVE",
"1180 2004 LINE"
);
},
{
closed = 1;
nodes = (
"940 468 LINE",
"689 473 OFFCURVE",
"384 756 OFFCURVE",
"384 992 QCURVE SMOOTH",
"384 1150 OFFCURVE",
"525 1386 OFFCURVE",
"775 1517 OFFCURVE",
"940 1520 QCURVE"
);
},
{
closed = 1;
nodes = (
"1424 1516 OFFCURVE",
"1728 1233 OFFCURVE",
"1728 996 QCURVE SMOOTH",
"1728 761 OFFCURVE",
"1432 474 OFFCURVE",
"1180 468 QCURVE",
"1180 1520 LINE"
);
}
);
width = 2112;
}
);
leftKerningGroup = uni0398;
note = uni03A6;
rightKerningGroup = uni0398;
unicode = 03A6;
},
{
glyphname = uni03A8;
layers = (
{
layerId = "25D77734-040B-4C95-BAE5-6EFF5F3D7B2E";
paths = (
{
closed = 1;
nodes = (
"1696 1276 LINE SMOOTH",
"1696 1028 OFFCURVE",
"1429 750 OFFCURVE",
"1220 723 QCURVE",
"1220 2048 LINE",
"972 2048 LINE",
"972 723 LINE",
"762 750 OFFCURVE",
"496 1028 OFFCURVE",
"496 1276 QCURVE SMOOTH",
"496 2048 LINE",
"248 2048 LINE",
"248 1276 LINE SMOOTH",
"248 1043 OFFCURVE",
"435 710 OFFCURVE",
"762 520 OFFCURVE",
"972 501 QCURVE",
"972 0 LINE",
"1220 0 LINE",
"1220 501 LINE",
"1430 520 OFFCURVE",
"1757 710 OFFCURVE",
"1944 1043 OFFCURVE",
"1944 1276 QCURVE SMOOTH",
"1944 2048 LINE",
"1696 2048 LINE"
);
}
);
width = 2192;
}
);
note = uni03A8;
unicode = 03A8;
},
{
glyphname = uni03A9;
layers = (
{
layerId = "25D77734-040B-4C95-BAE5-6EFF5F3D7B2E";
paths = (
{
closed = 1;
nodes = (
"896 0 LINE",
"896 280 LINE",
"764 336 OFFCURVE",
"542 567 OFFCURVE",
"408 888 OFFCURVE",
"408 1080 QCURVE SMOOTH",
"408 1294 OFFCURVE",
"578 1640 OFFCURVE",
"878 1844 OFFCURVE",
"1072 1844 QCURVE SMOOTH",
"1266 1844 OFFCURVE",
"1566 1640 OFFCURVE",
"1736 1294 OFFCURVE",
"1736 1080 QCURVE SMOOTH",
"1736 888 OFFCURVE",
"1602 567 OFFCURVE",
"1380 336 OFFCURVE",
"1248 280 QCURVE",
"1248 0 LINE",
"1976 0 LINE",
"1976 220 LINE",
"1548 220 LINE",
"1548 236 LINE",
"1746 365 OFFCURVE",
"1976 789 OFFCURVE",
"1976 1080 QCURVE SMOOTH",
"1976 1372 OFFCURVE",
"1744 1821 OFFCURVE",
"1336 2076 OFFCURVE",
"1072 2076 QCURVE SMOOTH",
"808 2076 OFFCURVE",
"400 1821 OFFCURVE",
"168 1372 OFFCURVE",
"168 1080 QCURVE SMOOTH",
"168 789 OFFCURVE",
"398 365 OFFCURVE",
"596 236 QCURVE",
"596 220 LINE",
"168 220 LINE",
"168 0 LINE"
);
}
);
width = 2144;
}
);
note = uni03A9;
unicode = "03A9,2126";
},
{
glyphname = uni01B1;
layers = (
{
layerId = "25D77734-040B-4C95-BAE5-6EFF5F3D7B2E";
paths = (
{
closed = 1;
nodes = (
"168 676 OFFCURVE",
"400 227 OFFCURVE",
"808 -28 OFFCURVE",
"1072 -28 QCURVE SMOOTH",
"1336 -28 OFFCURVE",
"1744 227 OFFCURVE",
"1976 676 OFFCURVE",
"1976 968 QCURVE SMOOTH",
"1976 1259 OFFCURVE",
"1746 1686 OFFCURVE",
"1548 1812 QCURVE",
"1548 1828 LINE",
"1976 1828 LINE",
"1976 2048 LINE",
"1248 2048 LINE",
"1248 1768 LINE",
"1380 1712 OFFCURVE",
"1602 1481 OFFCURVE",
"1736 1160 OFFCURVE",
"1736 968 QCURVE SMOOTH",
"1736 754 OFFCURVE",
"1566 408 OFFCURVE",
"1266 204 OFFCURVE",
"1072 204 QCURVE SMOOTH",
"878 204 OFFCURVE",
"578 408 OFFCURVE",
"408 754 OFFCURVE",
"408 968 QCURVE SMOOTH",
"408 1160 OFFCURVE",
"542 1481 OFFCURVE",
"764 1712 OFFCURVE",
"896 1768 QCURVE",
"896 2048 LINE",
"168 2048 LINE",
"168 1828 LINE",
"596 1828 LINE",
"596 1812 LINE",
"398 1683 OFFCURVE",
"168 1259 OFFCURVE",
"168 968 QCURVE SMOOTH"
);
}
);
width = 2144;
}
);
note = uni01B1;
unicode = 01B1;
},
{
glyphname = uni03D2;
layers = (
{
layerId = "25D77734-040B-4C95-BAE5-6EFF5F3D7B2E";
paths = (
{
closed = 1;
nodes = (
"1056 0 LINE",
"1056 744 LINE",
"1488 1680 LINE SMOOTH",
"1512 1731 OFFCURVE",
"1574 1772 OFFCURVE",
"1616 1772 QCURVE SMOOTH",
"1666 1772 OFFCURVE",
"1684 1760 QCURVE",
"1736 1984 LINE",
"1688 2005 OFFCURVE",
"1608 2020 OFFCURVE",
"1560 2020 QCURVE SMOOTH",
"1431 2020 OFFCURVE",
"1305 1882 OFFCURVE",
"1248 1756 QCURVE SMOOTH",
"932 1044 LINE",
"620 1756 LINE SMOOTH",
"554 1912 OFFCURVE",
"403 2020 OFFCURVE",
"304 2020 QCURVE SMOOTH",
"256 2020 OFFCURVE",
"176 2004 OFFCURVE",
"128 1980 QCURVE",
"180 1760 LINE",
"189 1766 OFFCURVE",
"230 1772 OFFCURVE",
"248 1772 QCURVE SMOOTH",
"293 1772 OFFCURVE",
"356 1731 OFFCURVE",
"380 1680 QCURVE SMOOTH",
"808 744 LINE",
"808 0 LINE"
);
}
);
width = 1864;
}
);
note = uni03D2;
unicode = 03D2;
},
{
glyphname = uni0194;
layers = (
{
layerId = "25D77734-040B-4C95-BAE5-6EFF5F3D7B2E";
paths = (
{
closed = 1;
nodes = (
"760 359 LINE",
"685 186 OFFCURVE",
"576 -46 OFFCURVE",
"516 -206 OFFCURVE",
"516 -272 QCURVE SMOOTH",
"516 -428 OFFCURVE",
"714 -600 OFFCURVE",
"888 -600 QCURVE SMOOTH",
"1062 -600 OFFCURVE",
"1260 -428 OFFCURVE",
"1260 -272 QCURVE SMOOTH",
"1260 -210 OFFCURVE",
"1198 -53 OFFCURVE",
"1087 177 OFFCURVE",
"1014 346 QCURVE",
"1748 2048 LINE",
"1480 2048 LINE",
"885 652 LINE",
"296 2048 LINE",
"28 2048 LINE"
);
},
{
closed = 1;
nodes = (
"948 -71 OFFCURVE",
"1008 -221 OFFCURVE",
"1008 -272 QCURVE SMOOTH",
"1008 -311 OFFCURVE",
"942 -376 OFFCURVE",
"888 -376 QCURVE SMOOTH",
"834 -376 OFFCURVE",
"768 -314 OFFCURVE",
"768 -272 QCURVE SMOOTH",
"768 -221 OFFCURVE",
"833 -67 OFFCURVE",
"890 60 QCURVE"
);
}
);
width = 1776;
}
);
leftKerningGroup = uni0056;
note = uni0194;
rightKerningGroup = uni0056;
unicode = 0194;
},
{
glyphname = uni0411;
layers = (
{
layerId = "25D77734-040B-4C95-BAE5-6EFF5F3D7B2E";
paths = (
{
closed = 1;
nodes = (
"1016 0 LINE SMOOTH",
"1346 0 OFFCURVE",
"1696 337 OFFCURVE",
"1696 604 QCURVE SMOOTH",
"1696 871 OFFCURVE",
"1346 1188 OFFCURVE",
"1016 1188 QCURVE SMOOTH",
"496 1188 LINE",
"496 1828 LINE",
"1484 1828 LINE",
"1484 2048 LINE",
"248 2048 LINE",
"248 0 LINE"
);
},
{
closed = 1;
nodes = (
"496 968 LINE",
"1016 968 LINE SMOOTH",
"1226 968 OFFCURVE",
"1452 755 OFFCURVE",
"1452 608 QCURVE SMOOTH",
"1452 508 OFFCURVE",
"1351 329 OFFCURVE",
"1156 216 OFFCURVE",
"1016 216 QCURVE SMOOTH",
"496 216 LINE"
);
}
);
width = 1856;
}
);
leftKerningGroup = uni0042;
note = uni0411;
rightKerningGroup = uni0042;
unicode = 0411;
},
{
glyphname = uni0490;
layers = (
{
layerId = "25D77734-040B-4C95-BAE5-6EFF5F3D7B2E";
paths = (
{
closed = 1;
nodes = (
"496 0 LINE",
"496 1828 LINE",
"1484 1828 LINE",
"1484 2504 LINE",
"1236 2504 LINE",
"1236 2048 LINE",
"248 2048 LINE",
"248 0 LINE"
);
}
);
width = 1620;
}
);
leftKerningGroup = uni0042;
note = uni0490;
rightKerningGroup = uni04A4;
unicode = 0490;
},
{
glyphname = uni0414;
layers = (
{
layerId = "25D77734-040B-4C95-BAE5-6EFF5F3D7B2E";
paths = (
{
closed = 1;
nodes = (
"308 -496 LINE",
"308 0 LINE",
"1752 0 LINE",
"1752 -492 LINE",
"1988 -492 LINE",
"1988 220 LINE",
"1752 220 LINE",
"1752 2048 LINE",
"536 2048 LINE",
"492 1184 LINE SMOOTH",
"478 890 OFFCURVE",
"393 509 OFFCURVE",
"272 282 OFFCURVE",
"204 220 QCURVE",
"72 220 LINE",
"72 -496 LINE"
);
},
{
closed = 1;
nodes = (
"593 367 OFFCURVE",
"710 848 OFFCURVE",
"728 1184 QCURVE SMOOTH",
"760 1828 LINE",
"1516 1828 LINE",
"1516 220 LINE",
"500 220 LINE"
);
}
);
width = 2116;
}
);
note = uni0414;
unicode = 0414;
},
{
glyphname = uni0416;
layers = (
{
layerId = "25D77734-040B-4C95-BAE5-6EFF5F3D7B2E";
paths = (
{
closed = 1;
nodes = (
"1212 2048 LINE",
"1212 1140 LINE",
"964 1140 LINE",
"432 2048 LINE",
"132 2048 LINE",
"740 1068 LINE",
"76 0 LINE",
"356 0 LINE",
"916 908 LINE",
"1212 908 LINE",
"1212 0 LINE",
"1460 0 LINE",
"1460 908 LINE",
"1756 908 LINE",
"2312 0 LINE",
"2596 0 LINE",
"1932 1064 LINE",
"2544 2048 LINE",
"2244 2048 LINE",
"1712 1140 LINE",
"1460 1140 LINE",
"1460 2048 LINE"
);
}
);
width = 2672;
}
);
leftKerningGroup = uni0058;
note = uni0416;
rightKerningGroup = uni0058;
unicode = 0416;
},
{
glyphname = uni041A;
layers = (
{
layerId = "25D77734-040B-4C95-BAE5-6EFF5F3D7B2E";
paths = (
{
closed = 1;
nodes = (
"1748 0 LINE",
"892 1148 LINE",
"1720 2048 LINE",
"1424 2048 LINE",
"604 1160 LINE",
"496 1160 LINE",
"496 2048 LINE",
"248 2048 LINE",
"248 0 LINE",
"496 0 LINE",
"496 940 LINE",
"748 940 LINE",
"1452 0 LINE"
);
}
);
width = 1820;
}
);
leftKerningGroup = uni0042;
note = uni041A;
rightKerningGroup = uni004B;
unicode = 041A;
},
{
glyphname = uni049C;
layers = (
{
layerId = "25D77734-040B-4C95-BAE5-6EFF5F3D7B2E";
paths = (
{
closed = 1;
nodes = (
"664 1128 LINE",
"496 1128 LINE",
"496 2048 LINE",
"248 2048 LINE",
"248 0 LINE",
"496 0 LINE",
"496 892 LINE",
"664 892 LINE",
"664 568 LINE",
"884 568 LINE",
"884 892 LINE",
"996 892 LINE",
"1504 0 LINE",
"1780 0 LINE",
"1204 1024 LINE",
"1744 2048 LINE",
"1456 2048 LINE",
"980 1128 LINE",
"884 1128 LINE",
"884 1472 LINE",
"664 1472 LINE"
);
}
);
width = 1852;
}
);
leftKerningGroup = uni0042;
note = uni049C;
rightKerningGroup = uni004B;
unicode = 049C;
},
{
glyphname = uni04C3;
layers = (
{
layerId = "25D77734-040B-4C95-BAE5-6EFF5F3D7B2E";
paths = (
{
closed = 1;
nodes = (
"496 0 LINE",
"496 932 LINE",
"896 932 LINE SMOOTH",
"1166 932 OFFCURVE",
"1476 620 OFFCURVE",
"1476 348 QCURVE SMOOTH",
"1476 98 OFFCURVE",
"1252 -188 OFFCURVE",
"1056 -188 QCURVE",
"1060 -408 LINE",
"1370 -408 OFFCURVE",
"1724 -4 OFFCURVE",
"1724 348 QCURVE SMOOTH",
"1724 695 OFFCURVE",
"1343 1117 OFFCURVE",
"1006 1147 QCURVE",
"1752 2048 LINE",
"1440 2048 LINE",
"732 1152 LINE",
"496 1152 LINE",
"496 2048 LINE",
"248 2048 LINE",
"248 0 LINE"
);
}
);
width = 1912;
}
);
leftKerningGroup = uni0042;
note = uni04C3;
rightKerningGroup = uni0042;
unicode = 04C3;
},
{
glyphname = uni041B;
layers = (
{
layerId = "25D77734-040B-4C95-BAE5-6EFF5F3D7B2E";
paths = (
{
closed = 1;
nodes = (
"148 0 LINE SMOOTH",
"374 0 OFFCURVE",
"610 238 OFFCURVE",
"704 690 OFFCURVE",
"716 1012 QCURVE SMOOTH",
"748 1828 LINE",
"1512 1828 LINE",
"1512 0 LINE",
"1760 0 LINE",
"1760 2048 LINE",
"512 2048 LINE",
"476 1060 LINE SMOOTH",
"465 758 OFFCURVE",
"402 392 OFFCURVE",
"260 228 OFFCURVE",
"132 228 QCURVE SMOOTH",
"72 228 LINE",
"72 0 LINE"
);
}
);
width = 2008;
}
);
leftKerningGroup = uni041B;
note = uni041B;
rightKerningGroup = uni018E;
unicode = 041B;
},
{
glyphname = uni0472;
layers = (
{
layerId = "25D77734-040B-4C95-BAE5-6EFF5F3D7B2E";
paths = (
{
closed = 1;
nodes = (
"1976 1348 OFFCURVE",
"1742 1820 OFFCURVE",
"1334 2076 OFFCURVE",
"1072 2076 QCURVE SMOOTH",
"810 2076 OFFCURVE",
"402 1820 OFFCURVE",
"168 1348 OFFCURVE",
"168 1024 QCURVE SMOOTH",
"168 700 OFFCURVE",
"402 228 OFFCURVE",
"810 -28 OFFCURVE",
"1072 -28 QCURVE SMOOTH",
"1334 -28 OFFCURVE",
"1742 228 OFFCURVE",
"1976 700 OFFCURVE",
"1976 1024 QCURVE SMOOTH"
);
},
{
closed = 1;
nodes = (
"1708 671 OFFCURVE",
"1525 362 OFFCURVE",
"1242 204 OFFCURVE",
"1072 204 QCURVE SMOOTH",
"897 204 OFFCURVE",
"609 371 OFFCURVE",
"427 695 OFFCURVE",
"411 932 QCURVE",
"541 976 OFFCURVE",
"762 980 OFFCURVE",
"961 934 OFFCURVE",
"1057 905 QCURVE SMOOTH",
"1158 875 OFFCURVE",
"1365 830 OFFCURVE",
"1594 841 OFFCURVE",
"1730 896 QCURVE"
);
},
{
closed = 1;
nodes = (
"1602 1074 OFFCURVE",
"1380 1070 OFFCURVE",
"1181 1116 OFFCURVE",
"1084 1144 QCURVE SMOOTH",
"984 1174 OFFCURVE",
"778 1220 OFFCURVE",
"549 1210 OFFCURVE",
"414 1156 QCURVE",
"437 1380 OFFCURVE",
"620 1686 OFFCURVE",
"902 1844 OFFCURVE",
"1072 1844 QCURVE SMOOTH",
"1247 1844 OFFCURVE",
"1534 1678 OFFCURVE",
"1716 1355 OFFCURVE",
"1733 1120 QCURVE"
);
}
);
width = 2144;
}
);
note = uni0472;
unicode = 0472;
},
{
glyphname = uni040F;
layers = (
{
layerId = "25D77734-040B-4C95-BAE5-6EFF5F3D7B2E";
paths = (
{
closed = 1;
nodes = (
"888 0 LINE",
"888 -496 LINE",
"1136 -496 LINE",
"1136 0 LINE",
"1776 0 LINE",
"1776 2048 LINE",
"1528 2048 LINE",
"1528 228 LINE",
"496 228 LINE",
"496 2048 LINE",
"248 2048 LINE",
"248 0 LINE"
);
}
);
width = 2024;
}
);
leftKerningGroup = uni0042;
note = uni040F;
unicode = 040F;
},
{
glyphname = uni0423;
layers = (
{
layerId = "25D77734-040B-4C95-BAE5-6EFF5F3D7B2E";
paths = (
{
closed = 1;
nodes = (
"488 -28 LINE SMOOTH",
"644 -28 OFFCURVE",
"827 72 OFFCURVE",
"934 236 OFFCURVE",
"976 332 QCURVE SMOOTH",
"1684 2048 LINE",
"1420 2048 LINE",
"904 776 LINE",
"340 2048 LINE",
"72 2048 LINE",
"780 480 LINE",
"748 404 LINE SMOOTH",
"715 329 OFFCURVE",
"595 204 OFFCURVE",
"484 204 QCURVE SMOOTH",
"356 204 LINE",
"356 -28 LINE"
);
}
);
width = 1756;
}
);
leftKerningGroup = uni0059;
note = uni0423;
rightKerningGroup = uni0059;
unicode = 0423;
},
{
glyphname = uni0424;
layers = (
{
layerId = "25D77734-040B-4C95-BAE5-6EFF5F3D7B2E";
paths = (
{
closed = 1;
nodes = (
"724 1804 OFFCURVE",
"370 1598 OFFCURVE",
"168 1232 OFFCURVE",
"168 992 QCURVE SMOOTH",
"168 752 OFFCURVE",
"370 388 OFFCURVE",
"724 184 OFFCURVE",
"952 184 QCURVE SMOOTH",
"992 184 LINE",
"992 -84 LINE",
"1240 -84 LINE",
"1240 184 LINE",
"1276 184 LINE SMOOTH",
"1504 184 OFFCURVE",
"1858 390 OFFCURVE",
"2060 756 OFFCURVE",
"2060 996 QCURVE SMOOTH",
"2060 1236 OFFCURVE",
"1858 1600 OFFCURVE",
"1504 1804 OFFCURVE",
"1276 1804 QCURVE SMOOTH",
"1240 1804 LINE",
"1240 2084 LINE",
"992 2084 LINE",
"992 1804 LINE",
"952 1804 LINE SMOOTH"
);
},
{
closed = 1;
nodes = (
"992 1584 LINE",
"992 404 LINE",
"952 404 LINE SMOOTH",
"691 404 OFFCURVE",
"416 725 OFFCURVE",
"416 992 QCURVE SMOOTH",
"416 1262 OFFCURVE",
"691 1584 OFFCURVE",
"952 1584 QCURVE SMOOTH"
);
},
{
closed = 1;
nodes = (
"1276 1584 LINE SMOOTH",
"1537 1584 OFFCURVE",
"1812 1263 OFFCURVE",
"1812 996 QCURVE SMOOTH",
"1812 726 OFFCURVE",
"1537 404 OFFCURVE",
"1276 404 QCURVE SMOOTH",
"1240 404 LINE",
"1240 1584 LINE"
);
}
);
width = 2228;
}
);
leftKerningGroup = uni0043;
note = uni0424;
rightKerningGroup = uni0044;
unicode = 0424;
},
{
glyphname = uni0426;
layers = (
{
layerId = "25D77734-040B-4C95-BAE5-6EFF5F3D7B2E";
paths = (
{
closed = 1;
nodes = (
"1776 236 LINE",
"1776 2048 LINE",
"1540 2048 LINE",
"1540 228 LINE",
"484 228 LINE",
"484 2048 LINE",
"248 2048 LINE",
"248 0 LINE",
"1704 0 LINE",
"1704 -484 LINE",
"1960 -484 LINE",
"1988 236 LINE"
);
}
);
width = 2116;
}
);
leftKerningGroup = uni0042;
note = uni0426;
unicode = 0426;
},
{
glyphname = uni04B4;
layers = (
{
layerId = "25D77734-040B-4C95-BAE5-6EFF5F3D7B2E";
paths = (
{
closed = 1;
nodes = (
"136 2048 LINE",
"136 1828 LINE",
"672 1828 LINE",
"672 0 LINE",
"2128 0 LINE",
"2128 -484 LINE",
"2384 -484 LINE",
"2412 236 LINE",
"2200 236 LINE",
"2200 2048 LINE",
"1964 2048 LINE",
"1964 228 LINE",
"908 228 LINE",
"908 1828 LINE",
"1448 1828 LINE",
"1448 2048 LINE"
);
}
);
width = 2540;
}
);
leftKerningGroup = uni0054;
note = uni04B4;
unicode = 04B4;
},
{
glyphname = uni0427;
layers = (
{
layerId = "25D77734-040B-4C95-BAE5-6EFF5F3D7B2E";
paths = (
{
closed = 1;
nodes = (
"268 1364 LINE SMOOTH",
"268 1025 OFFCURVE",
"630 744 OFFCURVE",
"948 744 QCURVE SMOOTH",
"1134 744 OFFCURVE",
"1391 788 OFFCURVE",
"1516 826 QCURVE",
"1516 0 LINE",
"1764 0 LINE",
"1764 2048 LINE",
"1516 2048 LINE",
"1516 1051 LINE",
"1385 1013 OFFCURVE",
"1103 968 OFFCURVE",
"948 968 QCURVE SMOOTH",
"750 968 OFFCURVE",
"516 1136 OFFCURVE",
"516 1364 QCURVE SMOOTH",
"516 2048 LINE",
"268 2048 LINE"
);
}
);
width = 2012;
}
);
note = uni0427;
rightKerningGroup = uni018E;
unicode = 0427;
},
{
glyphname = uni04B8;
layers = (
{
layerId = "25D77734-040B-4C95-BAE5-6EFF5F3D7B2E";
paths = (
{
closed = 1;
nodes = (
"872 1392 LINE",
"872 971 LINE",
"707 984 OFFCURVE",
"516 1159 OFFCURVE",
"516 1364 QCURVE SMOOTH",
"516 2048 LINE",
"268 2048 LINE",
"268 1364 LINE SMOOTH",
"268 1046 OFFCURVE",
"588 761 OFFCURVE",
"872 746 QCURVE",
"872 428 LINE",
"1092 428 LINE",
"1092 748 LINE",
"1218 756 OFFCURVE",
"1417 796 OFFCURVE",
"1516 826 QCURVE",
"1516 0 LINE",
"1764 0 LINE",
"1764 2048 LINE",
"1516 2048 LINE",
"1516 1051 LINE",
"1416 1022 OFFCURVE",
"1205 981 OFFCURVE",
"1092 973 QCURVE",
"1092 1392 LINE"
);
}
);
width = 2032;
}
);
note = uni04B8;
unicode = 04B8;
},
{
glyphname = uni040B;
layers = (
{
layerId = "25D77734-040B-4C95-BAE5-6EFF5F3D7B2E";
paths = (
{
closed = 1;
nodes = (
"136 2048 LINE",
"136 1828 LINE",
"752 1828 LINE",
"752 0 LINE",
"1000 0 LINE",
"1000 997 LINE",
"1131 1035 OFFCURVE",
"1413 1080 OFFCURVE",
"1568 1080 QCURVE SMOOTH",
"1766 1080 OFFCURVE",
"2000 912 OFFCURVE",
"2000 684 QCURVE SMOOTH",
"2000 0 LINE",
"2248 0 LINE",
"2248 684 LINE SMOOTH",
"2248 1023 OFFCURVE",
"1886 1304 OFFCURVE",
"1568 1304 QCURVE SMOOTH",
"1382 1304 OFFCURVE",
"1125 1260 OFFCURVE",
"1000 1222 QCURVE",
"1000 1828 LINE",
"1692 1828 LINE",
"1692 2048 LINE"
);
}
);
width = 2536;
}
);
leftKerningGroup = uni0054;
note = uni040B;
rightKerningGroup = uni0061;
unicode = 040B;
},
{
glyphname = uni0428;
layers = (
{
layerId = "25D77734-040B-4C95-BAE5-6EFF5F3D7B2E";
paths = (
{
closed = 1;
nodes = (
"248 0 LINE",
"2432 0 LINE",
"2432 2048 LINE",
"2184 2048 LINE",
"2184 228 LINE",
"1464 228 LINE",
"1464 2048 LINE",
"1216 2048 LINE",
"1216 228 LINE",
"496 228 LINE",
"496 2048 LINE",
"248 2048 LINE"
);
}
);
width = 2680;
}
);
leftKerningGroup = uni0042;
note = uni0428;
rightKerningGroup = uni018E;
unicode = 0428;
},
{
glyphname = uni0429;
layers = (
{
layerId = "25D77734-040B-4C95-BAE5-6EFF5F3D7B2E";
paths = (
{
closed = 1;
nodes = (
"2432 220 LINE",
"2432 2048 LINE",
"2184 2048 LINE",
"2184 228 LINE",
"1464 228 LINE",
"1464 2048 LINE",
"1216 2048 LINE",
"1216 228 LINE",
"496 228 LINE",
"496 2048 LINE",
"248 2048 LINE",
"248 0 LINE",
"2360 0 LINE",
"2360 -484 LINE",
"2604 -484 LINE",
"2632 220 LINE"
);
}
);
width = 2760;
}
);
leftKerningGroup = uni0042;
note = uni0429;
unicode = 0429;
},
{
glyphname = uni042A;
layers = (
{
layerId = "25D77734-040B-4C95-BAE5-6EFF5F3D7B2E";
paths = (
{
closed = 1;
nodes = (
"696 1828 LINE",
"696 0 LINE",
"1464 0 LINE SMOOTH",
"1794 0 OFFCURVE",
"2144 337 OFFCURVE",
"2144 604 QCURVE SMOOTH",
"2144 871 OFFCURVE",
"1794 1188 OFFCURVE",
"1464 1188 QCURVE SMOOTH",
"944 1188 LINE",
"944 2048 LINE",
"136 2048 LINE",
"136 1828 LINE"
);
},
{
closed = 1;
nodes = (
"1464 968 LINE SMOOTH",
"1674 968 OFFCURVE",
"1900 755 OFFCURVE",
"1900 608 QCURVE SMOOTH",
"1900 508 OFFCURVE",
"1799 329 OFFCURVE",
"1604 216 OFFCURVE",
"1464 216 QCURVE SMOOTH",
"944 216 LINE",
"944 968 LINE"
);
}
);
width = 2288;
}
);
leftKerningGroup = uni0054;
note = uni042A;
rightKerningGroup = uni0062;
unicode = 042A;
},
{
glyphname = uni042C;
layers = (
{
layerId = "25D77734-040B-4C95-BAE5-6EFF5F3D7B2E";
paths = (
{
closed = 1;
nodes = (
"496 2048 LINE",
"248 2048 LINE",
"248 0 LINE",
"1016 0 LINE SMOOTH",
"1346 0 OFFCURVE",
"1696 337 OFFCURVE",
"1696 604 QCURVE SMOOTH",
"1696 871 OFFCURVE",
"1346 1188 OFFCURVE",
"1016 1188 QCURVE SMOOTH",
"496 1188 LINE"
);
},
{
closed = 1;
nodes = (
"1016 968 LINE SMOOTH",
"1226 968 OFFCURVE",
"1452 755 OFFCURVE",
"1452 608 QCURVE SMOOTH",
"1452 508 OFFCURVE",
"1351 329 OFFCURVE",
"1156 216 OFFCURVE",
"1016 216 QCURVE SMOOTH",
"496 216 LINE",
"496 968 LINE"
);
}
);
width = 1840;
}
);
leftKerningGroup = uni0042;
note = uni042C;
rightKerningGroup = uni0062;
unicode = 042C;
},
{
glyphname = uni0409;
layers = (
{
layerId = "25D77734-040B-4C95-BAE5-6EFF5F3D7B2E";
paths = (
{
closed = 1;
nodes = (
"132 0 LINE SMOOTH",
"358 0 OFFCURVE",
"591 216 OFFCURVE",
"685 664 OFFCURVE",
"700 1012 QCURVE SMOOTH",
"736 1828 LINE",
"1456 1828 LINE",
"1456 0 LINE",
"2224 0 LINE SMOOTH",
"2554 0 OFFCURVE",
"2904 337 OFFCURVE",
"2904 604 QCURVE SMOOTH",
"2904 871 OFFCURVE",
"2554 1188 OFFCURVE",
"2224 1188 QCURVE SMOOTH",
"1704 1188 LINE",
"1704 2048 LINE",
"496 2048 LINE",
"460 1060 LINE SMOOTH",
"451 804 OFFCURVE",
"402 477 OFFCURVE",
"318 298 OFFCURVE",
"195 228 OFFCURVE",
"112 228 QCURVE SMOOTH",
"56 228 LINE",
"56 0 LINE"
);
},
{
closed = 1;
nodes = (
"2224 968 LINE SMOOTH",
"2434 968 OFFCURVE",
"2660 755 OFFCURVE",
"2660 608 QCURVE SMOOTH",
"2660 508 OFFCURVE",
"2559 329 OFFCURVE",
"2364 216 OFFCURVE",
"2224 216 QCURVE SMOOTH",
"1704 216 LINE",
"1704 968 LINE"
);
}
);
width = 3048;
}
);
leftKerningGroup = uni041B;
note = uni0409;
rightKerningGroup = uni0062;
unicode = 0409;
},
{
glyphname = uni040A;
layers = (
{
layerId = "25D77734-040B-4C95-BAE5-6EFF5F3D7B2E";
paths = (
{
closed = 1;
nodes = (
"496 0 LINE",
"496 968 LINE",
"1588 968 LINE",
"1588 0 LINE",
"2356 0 LINE SMOOTH",
"2686 0 OFFCURVE",
"3036 337 OFFCURVE",
"3036 604 QCURVE SMOOTH",
"3036 871 OFFCURVE",
"2686 1188 OFFCURVE",
"2356 1188 QCURVE SMOOTH",
"1836 1188 LINE",
"1836 2048 LINE",
"1588 2048 LINE",
"1588 1188 LINE",
"496 1188 LINE",
"496 2048 LINE",
"248 2048 LINE",
"248 0 LINE"
);
},
{
closed = 1;
nodes = (
"2356 968 LINE SMOOTH",
"2566 968 OFFCURVE",
"2792 755 OFFCURVE",
"2792 608 QCURVE SMOOTH",
"2792 508 OFFCURVE",
"2691 329 OFFCURVE",
"2496 216 OFFCURVE",
"2356 216 QCURVE SMOOTH",
"1836 216 LINE",
"1836 968 LINE"
);
}
);
width = 3180;
}
);
leftKerningGroup = uni0042;
note = uni040A;
rightKerningGroup = uni0062;
unicode = 040A;
},
{
glyphname = uni042D;
layers = (
{
layerId = "25D77734-040B-4C95-BAE5-6EFF5F3D7B2E";
paths = (
{
closed = 1;
nodes = (
"190 452 OFFCURVE",
"365 149 OFFCURVE",
"688 -28 OFFCURVE",
"932 -28 QCURVE SMOOTH",
"1170 -28 OFFCURVE",
"1524 203 OFFCURVE",
"1720 622 OFFCURVE",
"1720 904 QCURVE SMOOTH",
"1720 1140 LINE SMOOTH",
"1720 1422 OFFCURVE",
"1522 1843 OFFCURVE",
"1158 2076 OFFCURVE",
"908 2076 QCURVE SMOOTH",
"678 2076 OFFCURVE",
"363 1901 OFFCURVE",
"188 1596 OFFCURVE",
"168 1400 QCURVE",
"424 1400 LINE",
"454 1613 OFFCURVE",
"680 1852 OFFCURVE",
"908 1852 QCURVE SMOOTH",
"1082 1852 OFFCURVE",
"1331 1671 OFFCURVE",
"1464 1348 OFFCURVE",
"1464 1136 QCURVE SMOOTH",
"1464 1108 LINE",
"656 1108 LINE",
"656 888 LINE",
"1464 888 LINE",
"1461 700 OFFCURVE",
"1339 384 OFFCURVE",
"1105 192 OFFCURVE",
"932 192 QCURVE SMOOTH",
"683 192 OFFCURVE",
"457 424 OFFCURVE",
"424 640 QCURVE",
"168 640 LINE"
);
}
);
width = 1888;
}
);
leftKerningGroup = uni0043;
note = uni042D;
rightKerningGroup = uni0044;
unicode = 042D;
},
{
glyphname = uni0404;
layers = (
{
layerId = "25D77734-040B-4C95-BAE5-6EFF5F3D7B2E";
paths = (
{
closed = 1;
nodes = (
"416 1124 LINE",
"421 1336 OFFCURVE",
"568 1660 OFFCURVE",
"821 1844 OFFCURVE",
"984 1844 QCURVE SMOOTH",
"1105 1844 OFFCURVE",
"1314 1737 OFFCURVE",
"1450 1538 OFFCURVE",
"1460 1400 QCURVE",
"1720 1400 LINE",
"1709 1610 OFFCURVE",
"1516 1913 OFFCURVE",
"1192 2076 OFFCURVE",
"984 2076 QCURVE SMOOTH",
"745 2076 OFFCURVE",
"377 1825 OFFCURVE",
"168 1383 OFFCURVE",
"168 1096 QCURVE SMOOTH",
"168 904 LINE SMOOTH",
"168 631 OFFCURVE",
"369 211 OFFCURVE",
"725 -28 OFFCURVE",
"956 -28 QCURVE SMOOTH",
"1171 -28 OFFCURVE",
"1507 133 OFFCURVE",
"1708 433 OFFCURVE",
"1720 640 QCURVE",
"1460 640 LINE",
"1449 504 OFFCURVE",
"1305 306 OFFCURVE",
"1084 200 OFFCURVE",
"956 200 QCURVE SMOOTH",
"799 200 OFFCURVE",
"556 378 OFFCURVE",
"417 692 OFFCURVE",
"416 896 QCURVE",
"1228 896 LINE",
"1228 1124 LINE"
);
}
);
width = 1872;
}
);
leftKerningGroup = uni0043;
note = uni0404;
rightKerningGroup = uni0404;
unicode = 0404;
},
{
glyphname = uni04A8;
layers = (
{
layerId = "25D77734-040B-4C95-BAE5-6EFF5F3D7B2E";
paths = (
{
closed = 1;
nodes = (
"1899 196 OFFCURVE",
"1759 229 QCURVE",
"1895 360 OFFCURVE",
"2044 724 OFFCURVE",
"2044 936 QCURVE SMOOTH",
"2044 1316 LINE SMOOTH",
"2044 1538 OFFCURVE",
"1902 1881 OFFCURVE",
"1646 2076 OFFCURVE",
"1476 2076 QCURVE SMOOTH",
"1304 2076 OFFCURVE",
"1047 1876 OFFCURVE",
"904 1534 OFFCURVE",
"904 1320 QCURVE SMOOTH",
"904 968 LINE SMOOTH",
"904 737 OFFCURVE",
"1081 357 OFFCURVE",
"1242 224 QCURVE",
"1166 208 OFFCURVE",
"1084 208 QCURVE SMOOTH",
"908 208 OFFCURVE",
"633 398 OFFCURVE",
"476 724 OFFCURVE",
"476 928 QCURVE SMOOTH",
"476 1208 LINE SMOOTH",
"476 1388 OFFCURVE",
"578 1674 OFFCURVE",
"752 1840 OFFCURVE",
"860 1840 QCURVE",
"860 2080 LINE",
"670 2080 OFFCURVE",
"386 1849 OFFCURVE",
"228 1452 OFFCURVE",
"228 1204 QCURVE SMOOTH",
"228 928 LINE SMOOTH",
"228 658 OFFCURVE",
"443 225 OFFCURVE",
"828 -28 OFFCURVE",
"1084 -28 QCURVE SMOOTH",
"1203 -28 OFFCURVE",
"1419 18 OFFCURVE",
"1513 62 QCURVE",
"1632 12 OFFCURVE",
"1907 -40 OFFCURVE",
"2060 -40 QCURVE",
"2060 196 LINE"
);
},
{
closed = 1;
nodes = (
"1333 431 OFFCURVE",
"1152 755 OFFCURVE",
"1152 964 QCURVE SMOOTH",
"1152 1324 LINE SMOOTH",
"1152 1472 OFFCURVE",
"1241 1705 OFFCURVE",
"1388 1840 OFFCURVE",
"1476 1840 QCURVE SMOOTH",
"1564 1840 OFFCURVE",
"1709 1710 OFFCURVE",
"1796 1476 OFFCURVE",
"1796 1320 QCURVE SMOOTH",
"1796 936 LINE SMOOTH",
"1796 744 OFFCURVE",
"1639 429 OFFCURVE",
"1499 332 QCURVE"
);
}
);
width = 2288;
}
);
note = uni04A8;
unicode = 04A8;
},
{
glyphname = uni04BC;
layers = (
{
layerId = "25D77734-040B-4C95-BAE5-6EFF5F3D7B2E";
paths = (
{
closed = 1;
nodes = (
"176 1268 OFFCURVE",
"409 991 OFFCURVE",
"616 960 QCURVE",
"616 836 LINE SMOOTH",
"616 567 OFFCURVE",
"822 177 OFFCURVE",
"1206 -32 OFFCURVE",
"1472 -32 QCURVE SMOOTH",
"1632 -32 OFFCURVE",
"1914 39 OFFCURVE",
"2000 100 QCURVE",
"1936 308 LINE",
"1827 258 OFFCURVE",
"1579 200 OFFCURVE",
"1472 200 QCURVE SMOOTH",
"1189 200 OFFCURVE",
"864 540 OFFCURVE",
"864 836 QCURVE SMOOTH",
"864 952 LINE",
"2116 952 LINE",
"2116 1108 LINE SMOOTH",
"2116 1409 OFFCURVE",
"1936 1843 OFFCURVE",
"1601 2076 OFFCURVE",
"1368 2076 QCURVE SMOOTH",
"1135 2076 OFFCURVE",
"798 1858 OFFCURVE",
"617 1452 OFFCURVE",
"616 1171 QCURVE",
"514 1201 OFFCURVE",
"400 1365 OFFCURVE",
"400 1488 QCURVE",
"176 1488 LINE"
);
},
{
closed = 1;
nodes = (
"864 1168 LINE SMOOTH",
"864 1483 OFFCURVE",
"1133 1844 OFFCURVE",
"1368 1844 QCURVE SMOOTH",
"1601 1844 OFFCURVE",
"1868 1498 OFFCURVE",
"1868 1196 QCURVE SMOOTH",
"1868 1152 LINE",
"864 1152 LINE"
);
}
);
width = 2288;
}
);
note = uni04BC;
unicode = 04BC;
},
{
glyphname = uni04D8;
layers = (
{
layerId = "25D77734-040B-4C95-BAE5-6EFF5F3D7B2E";
paths = (
{
closed = 1;
nodes = (
"734 2076 OFFCURVE",
"506 2025 OFFCURVE",
"364 1962 OFFCURVE",
"336 1944 QCURVE",
"404 1736 LINE",
"479 1769 OFFCURVE",
"715 1840 OFFCURVE",
"892 1840 QCURVE SMOOTH",
"1113 1840 OFFCURVE",
"1387 1622 OFFCURVE",
"1515 1268 OFFCURVE",
"1516 1064 QCURVE",
"144 1064 LINE",
"144 892 LINE SMOOTH",
"144 469 OFFCURVE",
"561 -28 OFFCURVE",
"972 -28 QCURVE SMOOTH",
"1202 -28 OFFCURVE",
"1580 218 OFFCURVE",
"1804 654 OFFCURVE",
"1804 940 QCURVE SMOOTH",
"1804 1056 LINE SMOOTH",
"1804 1342 OFFCURVE",
"1593 1804 OFFCURVE",
"1186 2076 OFFCURVE",
"892 2076 QCURVE SMOOTH"
);
},
{
closed = 1;
nodes = (
"1499 666 OFFCURVE",
"1365 374 OFFCURVE",
"1133 204 OFFCURVE",
"972 204 QCURVE SMOOTH",
"768 204 OFFCURVE",
"530 364 OFFCURVE",
"428 636 OFFCURVE",
"428 804 QCURVE SMOOTH",
"428 848 LINE",
"1513 848 LINE"
);
}
);
width = 1948;
}
);
note = uni04D8;
unicode = 04D8;
},
{
glyphname = uni0474;
layers = (
{
layerId = "25D77734-040B-4C95-BAE5-6EFF5F3D7B2E";
paths = (
{
closed = 1;
nodes = (
"964 324 LINE",
"940 324 LINE",
"332 2048 LINE",
"72 2048 LINE",
"824 0 LINE",
"1080 0 LINE",
"1684 1644 LINE SMOOTH",
"1720 1746 OFFCURVE",
"1784 1852 OFFCURVE",
"1868 1852 QCURVE SMOOTH",
"1900 1852 LINE",
"1900 2080 LINE",
"1832 2080 LINE SMOOTH",
"1673 2080 OFFCURVE",
"1508 1866 OFFCURVE",
"1440 1672 QCURVE SMOOTH"
);
}
);
width = 1972;
}
);
leftKerningGroup = uni0056;
note = uni0474;
rightKerningGroup = uni0056;
unicode = 0474;
},
{
glyphname = uni0402;
layers = (
{
layerId = "25D77734-040B-4C95-BAE5-6EFF5F3D7B2E";
paths = (
{
closed = 1;
nodes = (
"136 2048 LINE",
"136 1828 LINE",
"780 1828 LINE",
"780 0 LINE",
"1028 0 LINE",
"1028 950 LINE",
"1220 1008 OFFCURVE",
"1412 1008 QCURVE SMOOTH",
"1632 1008 OFFCURVE",
"1884 788 OFFCURVE",
"1884 596 QCURVE SMOOTH",
"1884 413 OFFCURVE",
"1645 204 OFFCURVE",
"1436 204 QCURVE",
"1440 -16 LINE",
"1763 -16 OFFCURVE",
"2132 313 OFFCURVE",
"2132 600 QCURVE SMOOTH",
"2132 893 OFFCURVE",
"1747 1228 OFFCURVE",
"1412 1228 QCURVE SMOOTH",
"1238 1228 OFFCURVE",
"1028 1167 QCURVE",
"1028 1828 LINE",
"1672 1828 LINE",
"1672 2048 LINE"
);
}
);
width = 2276;
}
);
leftKerningGroup = uni0054;
note = uni0402;
rightKerningGroup = uni0062;
unicode = 0402;
},
{
glyphname = uni00F0;
layers = (
{
layerId = "25D77734-040B-4C95-BAE5-6EFF5F3D7B2E";
paths = (
{
closed = 1;
nodes = (
"1260 2096 LINE",
"920 1932 LINE",
"833 2007 OFFCURVE",
"651 2129 OFFCURVE",
"560 2176 QCURVE",
"456 2008 LINE",
"533 1968 OFFCURVE",
"668 1883 OFFCURVE",
"727 1839 QCURVE",
"440 1700 LINE",
"508 1552 LINE",
"864 1724 LINE",
"1010 1585 OFFCURVE",
"1177 1300 OFFCURVE",
"1220 1180 QCURVE",
"1200 1180 LINE",
"1166 1240 OFFCURVE",
"1046 1360 OFFCURVE",
"872 1440 OFFCURVE",
"756 1440 QCURVE SMOOTH",
"586 1440 OFFCURVE",
"308 1254 OFFCURVE",
"144 922 OFFCURVE",
"144 704 QCURVE SMOOTH",
"144 490 OFFCURVE",
"308 158 OFFCURVE",
"610 -32 OFFCURVE",
"816 -32 QCURVE SMOOTH",
"1018 -32 OFFCURVE",
"1320 153 OFFCURVE",
"1488 504 OFFCURVE",
"1488 752 QCURVE SMOOTH",
"1488 1082 OFFCURVE",
"1236 1615 OFFCURVE",
"1047 1812 QCURVE",
"1328 1948 LINE"
);
},
{
closed = 1;
nodes = (
"662 180 OFFCURVE",
"470 329 OFFCURVE",
"380 568 OFFCURVE",
"380 704 QCURVE SMOOTH",
"380 848 OFFCURVE",
"476 1094 OFFCURVE",
"670 1244 OFFCURVE",
"816 1244 QCURVE SMOOTH",
"974 1244 OFFCURVE",
"1170 1074 OFFCURVE",
"1260 818 OFFCURVE",
"1260 688 QCURVE SMOOTH",
"1260 546 OFFCURVE",
"1160 316 OFFCURVE",
"962 180 OFFCURVE",
"816 180 QCURVE SMOOTH"
);
}
);
width = 1632;
}
);
leftKerningGroup = uniE02C;
note = uni00F0;
rightKerningGroup = uni0062;
unicode = 00F0;
},
{
glyphname = uni00FE;
layers = (
{
layerId = "25D77734-040B-4C95-BAE5-6EFF5F3D7B2E";
paths = (
{
closed = 1;
nodes = (
"216 -576 LINE",
"452 -576 LINE",
"452 236 LINE",
"472 236 LINE",
"498 194 OFFCURVE",
"594 67 OFFCURVE",
"772 -32 OFFCURVE",
"920 -32 QCURVE SMOOTH",
"1112 -32 OFFCURVE",
"1406 163 OFFCURVE",
"1572 520 OFFCURVE",
"1572 764 QCURVE SMOOTH",
"1572 1006 OFFCURVE",
"1406 1362 OFFCURVE",
"1110 1556 OFFCURVE",
"916 1556 QCURVE SMOOTH",
"766 1556 OFFCURVE",
"591 1457 OFFCURVE",
"498 1332 OFFCURVE",
"472 1292 QCURVE",
"452 1292 LINE",
"452 2048 LINE",
"216 2048 LINE"
);
},
{
closed = 1;
nodes = (
"1336 604 OFFCURVE",
"1235 337 OFFCURVE",
"1036 180 OFFCURVE",
"888 180 QCURVE SMOOTH",
"675 180 OFFCURVE",
"448 507 OFFCURVE",
"448 768 QCURVE SMOOTH",
"448 1026 OFFCURVE",
"672 1344 OFFCURVE",
"888 1344 QCURVE SMOOTH",
"1038 1344 OFFCURVE",
"1237 1191 OFFCURVE",
"1336 930 OFFCURVE",
"1336 768 QCURVE SMOOTH"
);
}
);
width = 1716;
}
);
leftKerningGroup = uni0042;
note = uni00FE;
rightKerningGroup = uni0062;
unicode = 00FE;
},
{
glyphname = uni03B1;
layers = (
{
layerId = "25D77734-040B-4C95-BAE5-6EFF5F3D7B2E";
paths = (
{
closed = 1;
nodes = (
"992 -34 OFFCURVE",
"1266 202 OFFCURVE",
"1344 388 QCURVE",
"1346 388 LINE",
"1440 0 LINE",
"1660 0 LINE",
"1461 768 LINE",
"1640 1536 LINE",
"1420 1536 LINE",
"1333 1136 LINE",
"1332 1136 LINE",
"1259 1321 OFFCURVE",
"1006 1556 OFFCURVE",
"796 1556 QCURVE SMOOTH",
"605 1556 OFFCURVE",
"311 1354 OFFCURVE",
"144 999 OFFCURVE",
"144 768 QCURVE SMOOTH",
"144 535 OFFCURVE",
"302 175 OFFCURVE",
"588 -30 OFFCURVE",
"780 -32 QCURVE SMOOTH"
);
},
{
closed = 1;
nodes = (
"1252 764 LINE SMOOTH",
"1236 689 OFFCURVE",
"1167 490 OFFCURVE",
"1055 303 OFFCURVE",
"891 180 OFFCURVE",
"780 180 QCURVE SMOOTH",
"660 180 OFFCURVE",
"480 333 OFFCURVE",
"380 598 OFFCURVE",
"380 764 QCURVE SMOOTH",
"380 934 OFFCURVE",
"486 1196 OFFCURVE",
"674 1344 OFFCURVE",
"796 1344 QCURVE SMOOTH",
"910 1344 OFFCURVE",
"1071 1223 OFFCURVE",
"1175 1039 OFFCURVE",
"1237 845 OFFCURVE",
"1252 772 QCURVE SMOOTH",
"1253 768 LINE"
);
}
);
width = 1804;
}
);
leftKerningGroup = uniE02C;
note = uni03B1;
rightKerningGroup = uni03B1;
unicode = 03B1;
},
{
glyphname = uni03B2;
layers = (
{
layerId = "25D77734-040B-4C95-BAE5-6EFF5F3D7B2E";
paths = (
{
closed = 1;
nodes = (
"648 2076 OFFCURVE",
"373 1932 OFFCURVE",
"216 1682 OFFCURVE",
"216 1524 QCURVE SMOOTH",
"216 -576 LINE",
"452 -576 LINE",
"452 164 LINE",
"468 172 LINE",
"552 55 OFFCURVE",
"769 -28 OFFCURVE",
"880 -28 QCURVE SMOOTH",
"1062 -28 OFFCURVE",
"1346 135 OFFCURVE",
"1508 414 OFFCURVE",
"1508 588 QCURVE SMOOTH",
"1508 742 OFFCURVE",
"1366 1035 OFFCURVE",
"1212 1115 QCURVE",
"1318 1196 OFFCURVE",
"1420 1423 OFFCURVE",
"1420 1536 QCURVE SMOOTH",
"1420 1670 OFFCURVE",
"1280 1918 OFFCURVE",
"1014 2076 OFFCURVE",
"824 2076 QCURVE SMOOTH"
);
},
{
closed = 1;
nodes = (
"708 980 LINE",
"904 980 LINE SMOOTH",
"1016 980 OFFCURVE",
"1181 867 OFFCURVE",
"1272 688 OFFCURVE",
"1272 588 QCURVE SMOOTH",
"1272 482 OFFCURVE",
"1170 302 OFFCURVE",
"982 192 OFFCURVE",
"852 192 QCURVE SMOOTH",
"666 192 OFFCURVE",
"452 409 OFFCURVE",
"452 556 QCURVE SMOOTH",
"452 1524 LINE SMOOTH",
"452 1622 OFFCURVE",
"553 1772 OFFCURVE",
"722 1856 OFFCURVE",
"824 1856 QCURVE SMOOTH",
"977 1856 OFFCURVE",
"1188 1674 OFFCURVE",
"1188 1536 QCURVE SMOOTH",
"1188 1450 OFFCURVE",
"1101 1296 OFFCURVE",
"936 1200 OFFCURVE",
"820 1200 QCURVE SMOOTH",
"708 1200 LINE",
"708 1184 LINE"
);
}
);
width = 1668;
}
);
leftKerningGroup = uni0250;
note = uni03B2;
rightKerningGroup = uni0042;
unicode = 03B2;
},
{
glyphname = uni03B3;
layers = (
{
layerId = "25D77734-040B-4C95-BAE5-6EFF5F3D7B2E";
paths = (
{
closed = 1;
nodes = (
"636 32 LINE",
"636 -572 LINE",
"872 -572 LINE",
"872 32 LINE",
"1408 1536 LINE",
"1152 1536 LINE",
"756 368 LINE",
"352 1536 LINE",
"96 1536 LINE"
);
}
);
width = 1504;
}
);
leftKerningGroup = uni03B3;
note = uni03B3;
rightKerningGroup = uni03B3;
unicode = 03B3;
},
{
glyphname = uni03B4;
layers = (
{
layerId = "25D77734-040B-4C95-BAE5-6EFF5F3D7B2E";
paths = (
{
closed = 1;
nodes = (
"264 1614 OFFCURVE",
"415 1423 OFFCURVE",
"544 1372 QCURVE",
"544 1364 LINE",
"422 1334 OFFCURVE",
"218 1154 OFFCURVE",
"96 888 OFFCURVE",
"96 728 QCURVE SMOOTH",
"96 700 LINE SMOOTH",
"96 494 OFFCURVE",
"253 164 OFFCURVE",
"552 -28 OFFCURVE",
"764 -28 QCURVE SMOOTH",
"972 -28 OFFCURVE",
"1269 164 OFFCURVE",
"1428 494 OFFCURVE",
"1428 700 QCURVE SMOOTH",
"1428 728 LINE SMOOTH",
"1428 1004 OFFCURVE",
"1151 1388 OFFCURVE",
"848 1496 QCURVE SMOOTH",
"659 1565 OFFCURVE",
"544 1697 OFFCURVE",
"544 1748 QCURVE SMOOTH",
"544 1829 OFFCURVE",
"670 1924 OFFCURVE",
"784 1924 QCURVE SMOOTH",
"892 1924 OFFCURVE",
"1100 1868 OFFCURVE",
"1160 1844 QCURVE",
"1160 2080 LINE",
"1067 2116 OFFCURVE",
"896 2152 OFFCURVE",
"788 2152 QCURVE SMOOTH",
"542 2152 OFFCURVE",
"264 1932 OFFCURVE",
"264 1740 QCURVE SMOOTH"
);
},
{
closed = 1;
nodes = (
"372 866 OFFCURVE",
"455 1101 OFFCURVE",
"628 1244 OFFCURVE",
"764 1244 QCURVE",
"882 1220 OFFCURVE",
"1056 1059 OFFCURVE",
"1152 840 OFFCURVE",
"1152 728 QCURVE SMOOTH",
"1152 700 LINE SMOOTH",
"1152 562 OFFCURVE",
"1070 331 OFFCURVE",
"898 192 OFFCURVE",
"764 192 QCURVE SMOOTH",
"628 192 OFFCURVE",
"455 331 OFFCURVE",
"372 562 OFFCURVE",
"372 700 QCURVE SMOOTH",
"372 728 LINE SMOOTH"
);
}
);
width = 1520;
}
);
leftKerningGroup = uni03B4;
note = uni03B4;
rightKerningGroup = uni03B4;
unicode = 03B4;
},
{
glyphname = uni03B5;
layers = (
{
layerId = "25D77734-040B-4C95-BAE5-6EFF5F3D7B2E";
paths = (
{
closed = 1;
nodes = (
"928 892 LINE",
"744 892 LINE SMOOTH",
"577 892 OFFCURVE",
"412 1008 OFFCURVE",
"412 1104 QCURVE SMOOTH",
"412 1211 OFFCURVE",
"602 1344 OFFCURVE",
"760 1344 QCURVE SMOOTH",
"915 1344 OFFCURVE",
"1103 1216 OFFCURVE",
"1128 1112 QCURVE",
"1376 1112 LINE",
"1347 1321 OFFCURVE",
"1023 1556 OFFCURVE",
"760 1556 QCURVE SMOOTH",
"498 1556 OFFCURVE",
"172 1317 OFFCURVE",
"172 1104 QCURVE SMOOTH",
"172 1042 OFFCURVE",
"214 911 OFFCURVE",
"332 800 OFFCURVE",
"446 768 QCURVE",
"324 734 OFFCURVE",
"193 616 OFFCURVE",
"144 479 OFFCURVE",
"144 416 QCURVE SMOOTH",
"144 283 OFFCURVE",
"305 83 OFFCURVE",
"586 -28 OFFCURVE",
"764 -28 QCURVE SMOOTH",
"1037 -28 OFFCURVE",
"1379 231 OFFCURVE",
"1404 448 QCURVE",
"1156 448 LINE",
"1126 316 OFFCURVE",
"944 188 OFFCURVE",
"776 188 QCURVE SMOOTH",
"602 188 OFFCURVE",
"392 320 OFFCURVE",
"392 428 QCURVE SMOOTH",
"392 537 OFFCURVE",
"582 688 OFFCURVE",
"744 688 QCURVE SMOOTH",
"928 688 LINE",
"928 800 LINE"
);
}
);
width = 1532;
}
);
leftKerningGroup = uni03B5;
note = uni03B5;
unicode = 03B5;
},
{
glyphname = uni029A;
layers = (
{
layerId = "25D77734-040B-4C95-BAE5-6EFF5F3D7B2E";
paths = (
{
closed = 1;
nodes = (
"1105 -28 OFFCURVE",
"1456 410 OFFCURVE",
"1456 792 QCURVE SMOOTH",
"1456 1148 OFFCURVE",
"1103 1556 OFFCURVE",
"760 1556 QCURVE SMOOTH",
"498 1556 OFFCURVE",
"172 1317 OFFCURVE",
"172 1104 QCURVE SMOOTH",
"172 1042 OFFCURVE",
"214 911 OFFCURVE",
"332 800 OFFCURVE",
"446 768 QCURVE",
"324 734 OFFCURVE",
"193 616 OFFCURVE",
"144 479 OFFCURVE",
"144 416 QCURVE SMOOTH",
"144 283 OFFCURVE",
"305 83 OFFCURVE",
"586 -28 OFFCURVE",
"764 -28 QCURVE SMOOTH"
);
},
{
closed = 1;
nodes = (
"928 892 LINE",
"744 892 LINE SMOOTH",
"577 892 OFFCURVE",
"412 1008 OFFCURVE",
"412 1104 QCURVE SMOOTH",
"412 1211 OFFCURVE",
"597 1344 OFFCURVE",
"748 1344 QCURVE SMOOTH",
"987 1344 OFFCURVE",
"1220 1049 OFFCURVE",
"1220 792 QCURVE SMOOTH",
"1220 511 OFFCURVE",
"995 188 OFFCURVE",
"764 188 QCURVE SMOOTH",
"597 188 OFFCURVE",
"392 320 OFFCURVE",
"392 428 QCURVE SMOOTH",
"392 537 OFFCURVE",
"582 688 OFFCURVE",
"744 688 QCURVE SMOOTH",
"928 688 LINE",
"928 736 LINE"
);
}
);
width = 1584;
}
);
leftKerningGroup = uni03B5;
note = uni029A;
rightKerningGroup = uni0250;
unicode = 029A;
},
{
glyphname = uni025D;
layers = (
{
layerId = "25D77734-040B-4C95-BAE5-6EFF5F3D7B2E";
paths = (
{
closed = 1;
nodes = (
"604 688 LINE",
"788 688 LINE SMOOTH",
"950 688 OFFCURVE",
"1140 537 OFFCURVE",
"1140 428 QCURVE SMOOTH",
"1140 320 OFFCURVE",
"930 188 OFFCURVE",
"756 188 QCURVE SMOOTH",
"588 188 OFFCURVE",
"406 316 OFFCURVE",
"376 448 QCURVE",
"128 448 LINE",
"154 231 OFFCURVE",
"495 -28 OFFCURVE",
"768 -28 QCURVE SMOOTH",
"947 -28 OFFCURVE",
"1227 83 OFFCURVE",
"1388 283 OFFCURVE",
"1388 416 QCURVE SMOOTH",
"1388 479 OFFCURVE",
"1339 616 OFFCURVE",
"1208 734 OFFCURVE",
"1086 768 QCURVE",
"1220 805 OFFCURVE",
"1337 945 OFFCURVE",
"1352 1021 QCURVE",
"1428 1036 LINE",
"1448 944 OFFCURVE",
"1520 787 OFFCURVE",
"1654 692 OFFCURVE",
"1768 692 QCURVE SMOOTH",
"1862 692 OFFCURVE",
"1944 736 QCURVE",
"1908 904 LINE",
"1896 901 OFFCURVE",
"1860 896 OFFCURVE",
"1824 896 QCURVE SMOOTH",
"1713 896 OFFCURVE",
"1631 1119 OFFCURVE",
"1604 1296 QCURVE",
"1338 1243 LINE",
"1289 1392 OFFCURVE",
"988 1556 OFFCURVE",
"772 1556 QCURVE SMOOTH",
"510 1556 OFFCURVE",
"185 1321 OFFCURVE",
"156 1112 QCURVE",
"404 1112 LINE",
"429 1216 OFFCURVE",
"618 1344 OFFCURVE",
"772 1344 QCURVE SMOOTH",
"930 1344 OFFCURVE",
"1120 1211 OFFCURVE",
"1120 1104 QCURVE SMOOTH",
"1120 1008 OFFCURVE",
"955 892 OFFCURVE",
"788 892 QCURVE SMOOTH",
"604 892 LINE",
"604 736 LINE"
);
}
);
width = 2032;
}
);
leftKerningGroup = uni03B5;
note = uni025D;
unicode = 025D;
},
{
glyphname = uni03B6;
layers = (
{
layerId = "25D77734-040B-4C95-BAE5-6EFF5F3D7B2E";
paths = (
{
closed = 1;
nodes = (
"136 1828 LINE",
"1008 1828 LINE",
"628 1372 LINE SMOOTH",
"506 1230 OFFCURVE",
"330 973 OFFCURVE",
"236 698 OFFCURVE",
"236 528 QCURVE SMOOTH",
"236 348 OFFCURVE",
"460 77 OFFCURVE",
"656 20 QCURVE SMOOTH",
"780 -16 LINE SMOOTH",
"877 -44 OFFCURVE",
"988 -122 OFFCURVE",
"988 -160 QCURVE SMOOTH",
"988 -206 OFFCURVE",
"920 -336 OFFCURVE",
"860 -404 QCURVE",
"1004 -528 LINE",
"1117 -433 OFFCURVE",
"1252 -216 OFFCURVE",
"1252 -120 QCURVE SMOOTH",
"1252 -25 OFFCURVE",
"1058 140 OFFCURVE",
"888 192 QCURVE SMOOTH",
"704 248 LINE SMOOTH",
"602 279 OFFCURVE",
"484 429 OFFCURVE",
"484 532 QCURVE SMOOTH",
"484 686 OFFCURVE",
"571 902 OFFCURVE",
"732 1114 OFFCURVE",
"844 1260 QCURVE SMOOTH",
"1312 1872 LINE",
"1312 2048 LINE",
"136 2048 LINE"
);
}
);
width = 1472;
}
);
note = uni03B6;
unicode = 03B6;
},
{
glyphname = uni03B7;
layers = (
{
layerId = "25D77734-040B-4C95-BAE5-6EFF5F3D7B2E";
paths = (
{
closed = 1;
nodes = (
"452 1125 OFFCURVE",
"676 1344 OFFCURVE",
"844 1344 QCURVE SMOOTH",
"1009 1344 OFFCURVE",
"1196 1140 OFFCURVE",
"1196 960 QCURVE SMOOTH",
"1196 -576 LINE",
"1432 -576 LINE",
"1432 976 LINE SMOOTH",
"1432 1270 OFFCURVE",
"1146 1556 OFFCURVE",
"912 1556 QCURVE SMOOTH",
"738 1556 OFFCURVE",
"518 1413 OFFCURVE",
"464 1296 QCURVE",
"444 1296 LINE",
"444 1536 LINE",
"216 1536 LINE",
"216 0 LINE",
"452 0 LINE",
"452 924 LINE SMOOTH"
);
}
);
width = 1648;
}
);
leftKerningGroup = uni0250;
note = uni03B7;
unicode = 03B7;
},
{
glyphname = uni03B8;
layers = (
{
layerId = "25D77734-040B-4C95-BAE5-6EFF5F3D7B2E";
paths = (
{
closed = 1;
nodes = (
"1396 1600 OFFCURVE",
"1051 2032 OFFCURVE",
"760 2032 QCURVE SMOOTH",
"472 2032 OFFCURVE",
"124 1600 OFFCURVE",
"124 1132 QCURVE SMOOTH",
"124 888 LINE SMOOTH",
"124 417 OFFCURVE",
"476 -28 OFFCURVE",
"764 -28 QCURVE SMOOTH",
"1052 -28 OFFCURVE",
"1396 417 OFFCURVE",
"1396 888 QCURVE SMOOTH",
"1396 1132 LINE SMOOTH"
);
},
{
closed = 1;
nodes = (
"360 1176 LINE SMOOTH",
"360 1485 OFFCURVE",
"586 1820 OFFCURVE",
"760 1820 QCURVE SMOOTH",
"937 1820 OFFCURVE",
"1156 1485 OFFCURVE",
"1156 1176 QCURVE SMOOTH",
"1156 1108 LINE",
"360 1108 LINE"
);
},
{
closed = 1;
nodes = (
"1156 535 OFFCURVE",
"941 184 OFFCURVE",
"764 184 QCURVE SMOOTH",
"590 184 OFFCURVE",
"360 535 OFFCURVE",
"360 844 QCURVE SMOOTH",
"360 888 LINE",
"1156 888 LINE",
"1156 844 LINE SMOOTH"
);
}
);
width = 1520;
}
);
note = uni03B8;
unicode = 03B8;
},
{
glyphname = uni03B9;
layers = (
{
layerId = "25D77734-040B-4C95-BAE5-6EFF5F3D7B2E";
paths = (
{
closed = 1;
nodes = (
"208 380 LINE SMOOTH",
"208 158 OFFCURVE",
"395 -20 OFFCURVE",
"536 -20 QCURVE SMOOTH",
"608 -20 OFFCURVE",
"706 -1 OFFCURVE",
"736 8 QCURVE",
"736 232 LINE",
"721 226 OFFCURVE",
"650 212 OFFCURVE",
"620 212 QCURVE SMOOTH",
"557 212 OFFCURVE",
"444 272 OFFCURVE",
"444 380 QCURVE SMOOTH",
"444 1536 LINE",
"208 1536 LINE"
);
}
);
width = 748;
}
);
leftKerningGroup = uni03B9;
note = uni03B9;
rightKerningGroup = uni03B9;
unicode = 03B9;
},
{
glyphname = uni03BB;
layers = (
{
layerId = "25D77734-040B-4C95-BAE5-6EFF5F3D7B2E";
paths = (
{
closed = 1;
nodes = (
"1490 -22 OFFCURVE",
"1552 -8 QCURVE",
"1500 200 LINE",
"1491 200 OFFCURVE",
"1456 196 OFFCURVE",
"1444 196 QCURVE SMOOTH",
"1384 196 OFFCURVE",
"1339 273 OFFCURVE",
"1324 312 QCURVE SMOOTH",
"796 1740 LINE SMOOTH",
"666 2088 OFFCURVE",
"344 2088 QCURVE SMOOTH",
"284 2088 OFFCURVE",
"190 2069 OFFCURVE",
"172 2060 QCURVE",
"232 1852 LINE",
"379 1888 OFFCURVE",
"533 1803 OFFCURVE",
"596 1644 QCURVE SMOOTH",
"650 1503 LINE",
"96 0 LINE",
"352 0 LINE",
"760 1180 LINE",
"777 1180 LINE",
"1100 256 LINE SMOOTH",
"1149 115 OFFCURVE",
"1324 -21 OFFCURVE",
"1440 -21 QCURVE SMOOTH"
);
}
);
width = 1648;
}
);
note = uni03BB;
unicode = 03BB;
},
{
glyphname = uni03BE;
layers = (
{
layerId = "25D77734-040B-4C95-BAE5-6EFF5F3D7B2E";
paths = (
{
closed = 1;
nodes = (
"1232 2000 OFFCURVE",
"1040 2032 OFFCURVE",
"944 2032 QCURVE SMOOTH",
"635 2032 OFFCURVE",
"268 1781 OFFCURVE",
"268 1556 QCURVE SMOOTH",
"268 1426 OFFCURVE",
"451 1216 OFFCURVE",
"611 1158 QCURVE",
"413 1097 OFFCURVE",
"180 824 OFFCURVE",
"180 616 QCURVE SMOOTH",
"180 410 OFFCURVE",
"334 162 OFFCURVE",
"610 26 OFFCURVE",
"792 -12 QCURVE SMOOTH",
"868 -28 LINE SMOOTH",
"982 -55 OFFCURVE",
"1076 -114 OFFCURVE",
"1076 -168 QCURVE SMOOTH",
"1076 -246 OFFCURVE",
"1002 -346 OFFCURVE",
"936 -424 QCURVE",
"1096 -544 LINE",
"1144 -502 OFFCURVE",
"1256 -365 OFFCURVE",
"1338 -206 OFFCURVE",
"1340 -132 QCURVE SMOOTH",
"1340 -32 OFFCURVE",
"1253 80 OFFCURVE",
"1090 144 OFFCURVE",
"976 172 QCURVE SMOOTH",
"820 208 LINE SMOOTH",
"728 230 OFFCURVE",
"561 330 OFFCURVE",
"456 494 OFFCURVE",
"456 612 QCURVE SMOOTH",
"456 834 OFFCURVE",
"725 1044 OFFCURVE",
"980 1044 QCURVE SMOOTH",
"1176 1044 LINE",
"1176 1264 LINE",
"980 1264 LINE SMOOTH",
"746 1264 OFFCURVE",
"544 1429 OFFCURVE",
"544 1564 QCURVE SMOOTH",
"544 1660 OFFCURVE",
"734 1812 OFFCURVE",
"944 1812 QCURVE SMOOTH",
"1028 1812 OFFCURVE",
"1180 1781 OFFCURVE",
"1252 1760 QCURVE",
"1292 1976 LINE"
);
}
);
width = 1520;
}
);
note = uni03BE;
unicode = 03BE;
},
{
glyphname = uni03C0;
layers = (
{
layerId = "25D77734-040B-4C95-BAE5-6EFF5F3D7B2E";
paths = (
{
closed = 1;
nodes = (
"100 1536 LINE",
"100 1316 LINE",
"328 1316 LINE",
"328 0 LINE",
"564 0 LINE",
"564 1316 LINE",
"1152 1316 LINE",
"1152 380 LINE SMOOTH",
"1152 158 OFFCURVE",
"1335 -20 OFFCURVE",
"1476 -20 QCURVE SMOOTH",
"1548 -20 OFFCURVE",
"1650 3 OFFCURVE",
"1680 12 QCURVE",
"1680 232 LINE",
"1662 226 OFFCURVE",
"1593 212 OFFCURVE",
"1560 212 QCURVE SMOOTH",
"1500 212 OFFCURVE",
"1388 272 OFFCURVE",
"1388 380 QCURVE SMOOTH",
"1388 1316 LINE",
"1608 1316 LINE",
"1608 1536 LINE"
);
}
);
width = 1776;
}
);
note = uni03C0;
unicode = 03C0;
},
{
glyphname = uni03C1;
layers = (
{
layerId = "25D77734-040B-4C95-BAE5-6EFF5F3D7B2E";
paths = (
{
closed = 1;
nodes = (
"436 -572 LINE",
"432 163 LINE",
"503 71 OFFCURVE",
"701 -28 OFFCURVE",
"840 -28 QCURVE SMOOTH",
"1032 -28 OFFCURVE",
"1312 157 OFFCURVE",
"1464 480 OFFCURVE",
"1464 688 QCURVE SMOOTH",
"1464 716 LINE SMOOTH",
"1464 950 OFFCURVE",
"1310 1311 OFFCURVE",
"1022 1516 OFFCURVE",
"820 1516 QCURVE SMOOTH",
"644 1516 OFFCURVE",
"363 1350 OFFCURVE",
"200 1026 OFFCURVE",
"200 788 QCURVE SMOOTH",
"200 -572 LINE"
);
},
{
closed = 1;
nodes = (
"428 792 LINE SMOOTH",
"428 902 OFFCURVE",
"507 1136 OFFCURVE",
"680 1296 OFFCURVE",
"820 1296 QCURVE SMOOTH",
"958 1296 OFFCURVE",
"1135 1136 OFFCURVE",
"1220 872 OFFCURVE",
"1220 716 QCURVE SMOOTH",
"1220 688 LINE SMOOTH",
"1220 552 OFFCURVE",
"1136 323 OFFCURVE",
"962 184 OFFCURVE",
"828 184 QCURVE SMOOTH",
"684 184 OFFCURVE",
"513 334 OFFCURVE",
"434 548 OFFCURVE",
"429 644 QCURVE"
);
}
);
width = 1608;
}
);
leftKerningGroup = uni0250;
note = uni03C1;
rightKerningGroup = uni0062;
unicode = 03C1;
},
{
glyphname = uni03C2;
layers = (
{
layerId = "25D77734-040B-4C95-BAE5-6EFF5F3D7B2E";
paths = (
{
closed = 1;
nodes = (
"588 1516 OFFCURVE",
"297 1309 OFFCURVE",
"144 970 OFFCURVE",
"144 772 QCURVE SMOOTH",
"144 716 LINE SMOOTH",
"144 431 OFFCURVE",
"482 75 OFFCURVE",
"812 0 QCURVE SMOOTH",
"920 -24 OFFCURVE",
"1024 -76 OFFCURVE",
"1024 -136 QCURVE SMOOTH",
"1024 -214 OFFCURVE",
"958 -317 OFFCURVE",
"892 -392 QCURVE",
"1036 -516 LINE",
"1086 -474 OFFCURVE",
"1200 -335 OFFCURVE",
"1282 -176 OFFCURVE",
"1284 -104 QCURVE SMOOTH",
"1284 12 OFFCURVE",
"1176 127 OFFCURVE",
"998 184 OFFCURVE",
"892 212 QCURVE SMOOTH",
"652 278 OFFCURVE",
"384 536 OFFCURVE",
"384 716 QCURVE SMOOTH",
"384 772 LINE SMOOTH",
"384 898 OFFCURVE",
"478 1139 OFFCURVE",
"662 1296 OFFCURVE",
"796 1296 QCURVE SMOOTH",
"961 1296 OFFCURVE",
"1120 1105 OFFCURVE",
"1120 976 QCURVE",
"1380 976 LINE",
"1380 1146 OFFCURVE",
"1230 1388 OFFCURVE",
"966 1516 OFFCURVE",
"796 1516 QCURVE SMOOTH"
);
}
);
width = 1516;
}
);
leftKerningGroup = uni03B4;
note = uni03C2;
unicode = 03C2;
},
